<?xml version="1.0" encoding="utf-8"?>
<!-- Generator: Adobe Illustrator 26.5.0, SVG Export Plug-In . SVG Version: 6.00 Build 0)  -->
<svg version="1.1" id="Camada_1" xmlns="http://www.w3.org/2000/svg" xmlns:xlink="http://www.w3.org/1999/xlink" x="0px" y="0px"
	 viewBox="0 0 170 60" style="enable-background:new 0 0 170 60;" xml:space="preserve">
<style type="text/css">
	.st0{fill:#FFFFFF;}
	.st1{fill:#FF7F00;}
</style>
<g>
	<path class="st0" d="M45,58.9c-1.2,0-2.2-0.5-2.9-1.4c-0.6-0.8-0.9-1.6-0.9-2.5c0-0.9,0.4-1.8,1-2.8c0.3-0.5,0.8-1.1,1.2-1.8
		c0.5-0.6,1-1.3,1.5-1.9c0.6-0.7,1.1-1.2,1.5-1.6c0.9-0.8,2.2-1.4,7-2.4c0.9-0.2,1.8-0.4,2.8-0.6l-0.7-0.3l10.3-1.3h0
		c0.1,0,0.2,0,0.4-0.1l0.1,0l0.1,0c1.5-0.2,3.1-0.4,4.8-0.7l0.2,0c1.8-0.2,3.6-0.5,5.3-0.8l0.1,0l0.1,0c4.4-0.6,8.7-1.1,12.9-1.6
		c4.7-0.6,9.3-1.1,13.7-1.5c3.1-0.3,6.1-0.6,8.8-0.8c2.7-0.2,5.2-0.4,7.4-0.5c2.2-0.1,4.1-0.2,5.7-0.2h0.3c1.6,0,2.7,0.1,3.5,0.2
		c2,0.4,3.5,1.6,4.2,3.5c0.5,1.2,0.7,2.5,0.6,3.8c0,0.3-0.1,0.7-0.1,1.2c-0.1,0.6-0.3,1.2-0.5,1.7c-0.3,0.7-0.7,1.3-1.3,1.9
		c-0.8,0.8-1.8,1.2-3,1.4c-0.2,0-0.3,0-0.5,0c-0.3,0-0.6,0-1-0.1c-0.1,0-0.4,0-1.1-0.1c-0.4,0-0.8,0-1.3,0c-1.1,0-2.4,0-3.9,0.1
		c-2.2,0.1-4.8,0.3-7.8,0.5c-3,0.2-6.3,0.5-9.6,0.8c-3.4,0.3-7,0.6-10.7,1c-5,0.5-10,1.1-15,1.7c-4.9,0.6-9.6,1.2-13.9,1.8
		c-4.2,0.6-7.9,1.1-11,1.6c-3.6,0.6-5.4,1-6.2,1.3c-0.8,0.3-1.3,0.4-1.9,0.5C45.3,58.9,45.1,58.9,45,58.9z"/>
	<path class="st0" d="M103.8,7.1c-0.2-0.4-0.4-0.8-0.7-1.2c-0.3-0.5-0.6-0.9-0.9-1.3c-0.4-0.5-0.7-0.9-1-1.2c-0.8-0.8-2-1.1-3.8-1.3
		l0,0c0,0,0,0,0,0c-3,0-6,0-9,0l-0.2,0c0,0,0,0-0.1,0h-0.1l-0.1,0c-0.9,0.1-1.8,0.1-2.8,0.2h0l-0.1,0c-1.1,0.1-2.1,0.1-3.1,0.2h-0.1
		l-0.1,0c-2.6,0.2-5.2,0.3-7.7,0.5c-2.8,0.2-5.6,0.5-8.3,0.7C63.8,3.8,62,4,60.4,4.2c-1.7,0.2-3.2,0.4-4.5,0.6
		c-1.4,0.2-2.6,0.4-3.5,0.6c-1.1,0.2-1.9,0.5-2.5,0.7c-1,0.4-2.1,1.1-3.4,2.2c-0.9,0.8-1.9,1.7-2.9,2.7c-0.2-0.4-0.5-0.8-1-1.2
		c-0.4-0.4-0.9-0.7-1.4-1c-0.5-0.3-1.1-0.5-1.7-0.7c-0.6-0.2-1.1-0.3-1.7-0.3c-0.2,0-0.5,0-0.7,0c-1.4,0.2-2.8,1-4.6,2.5
		c-1.4,1.2-3,2.7-4.7,4.6c-1.7,1.8-3.5,3.9-5.4,6.2c-1.9,2.3-3.8,4.7-5.6,7.2c-1.8,2.5-3.6,4.9-5.3,7.4c-1.7,2.4-3.2,4.7-4.5,6.8
		c-1.3,2.1-2.4,4.1-3.2,5.7c-1,2.1-1.5,3.5-1.5,4.8c0,1.1,0.4,2.2,1,3.2c0.5,0.7,1.2,1.4,1.9,1.9c0.7,0.4,1.3,0.8,2.1,1
		c0.7,0.2,1.3,0.3,1.9,0.3c0.3,0,0.5,0,0.8-0.1c1.5-0.2,2.7-1.2,3.3-2.6c0.2-0.5,0.3-1,0.4-1.5c0.1-0.5,0.5-1.3,1.2-2.8
		c0.7-1.4,1.5-2.9,2.4-4.6c0.2-0.3,0.4-0.7,0.6-1c0,0.4-0.1,0.7-0.1,1c0,1.1,0.3,2.2,1,3.1c0.5,0.7,1.1,1.3,1.8,1.8
		c0.7,0.5,1.4,0.8,2.2,1.1c0.6,0.2,1.2,0.3,1.8,0.3c0.3,0,0.5,0,0.8-0.1c1.5-0.2,2.7-1.2,3.3-2.5c0.2-0.5,0.3-0.9,0.4-1.4
		c0.1-0.4,0.3-0.9,0.5-1.4c0,0.1,0,0.3,0,0.4c0,1.2,0.2,2.3,0.7,3.1c0.5,1,1.3,1.8,2.2,2.3c0.8,0.4,1.6,0.7,2.6,0.8
		c0.3,0,0.6,0,0.9,0c0.5,0,0.9,0,1.4-0.1c0.7-0.1,1.3-0.2,1.8-0.4c0.9-0.3,1.6-0.7,2.1-1.4c0.7-0.9,1-2,0.8-3.1c0-0.1,0-0.3-0.1-0.5
		l0-0.1l0-0.1c-0.1-0.3-0.1-1.2,0.3-3.1c0.4-1.7,1-3.6,1.7-5.7c0.8-2.2,1.7-4.5,2.7-6.8c1.1-2.4,2.1-4.8,3.2-7.1
		c1.1-2.3,2.2-4.4,3.2-6.4c0.8-1.5,1.5-2.8,2.1-3.9c0.2,0,0.4-0.1,0.6-0.1c1.3-0.2,2.9-0.4,4.6-0.7c1.8-0.2,3.8-0.5,5.7-0.7
		c2-0.2,4.2-0.5,6.4-0.7c3-0.3,6-0.6,8.9-0.8c2.9-0.2,5.7-0.4,8.3-0.6c2.5-0.2,4.7-0.2,6.5-0.3c0.4,0,0.7,0,1.1,0
		c1.4,0,2,0.1,2.3,0.1c0.4,0.1,0.8,0.1,1.2,0.1c0.1,0,0.3,0,0.4,0c1.1-0.1,2.1-0.7,2.7-1.7c0.4-0.6,0.6-1.3,0.6-1.9
		C104.5,8.7,104.3,7.9,103.8,7.1z"/>
	<path class="st0" d="M46,48.8c-0.6,0-1.3-0.1-1.9-0.3c-0.8-0.2-1.6-0.6-2.3-1c-0.8-0.5-1.4-1.1-1.9-1.8c-0.6-0.9-1-1.8-1-2.8
		c0-0.8,0.1-1.7,0.4-2.7c0.2-0.9,0.6-1.8,1-2.8c0.4-1,0.8-2,1.4-3c0.5-1,1-2,1.5-3l0,0c0.6-1.2,1.3-2.3,2-3.4
		c0.7-1.1,1.4-2.1,2.1-2.9c0.7-0.9,1.4-1.7,2.1-2.3c1-1,2-1.5,3.1-1.7c0.3,0,0.6-0.1,0.9-0.1c0.8,0,1.6,0.2,2.4,0.5
		c0.7,0.3,1.4,0.6,2,1c0.2-0.3,0.5-0.5,0.7-0.8c0.8-0.8,1.9-1.8,3.5-2.1c0.3,0,0.6-0.1,0.9-0.1c0.8,0,1.6,0.2,2.4,0.5
		c0.5,0.2,1,0.5,1.5,0.7c0.1-0.2,0.2-0.4,0.4-0.5c0.3-0.5,0.7-1,1-1.6c0.1-0.7,0.3-1.3,0.6-2c0.5-1,1.4-1.6,2.2-2
		c0.4-0.5,0.7-0.9,1-1.3c0.8-1,1.5-1.8,2.2-2.4c0.7-0.7,1.7-1.5,3-1.7c0.3,0,0.7-0.1,1-0.1c0.9,0,1.8,0.2,2.6,0.5
		c0.6,0.2,1,0.5,1.5,0.8c0.1-0.1,0.1-0.1,0.2-0.2c0.7-0.7,1.8-1.6,3.1-1.8c0.3,0,0.7-0.1,1-0.1c0.9,0,1.8,0.2,2.6,0.6
		c0.8,0.4,1.5,0.8,2,1.2c0.1,0.1,0.2,0.2,0.4,0.3c0.3,0,0.6,0,0.9,0c0.1,0,0.1,0,0.2,0c1.4,0,2.3,0.1,3.1,0.4l0.1,0l0.1,0.1
		c0.8,0.4,1.5,1,2,1.8c0.2,0.4,0.4,0.8,0.6,1.2c0.6-0.3,1.3-0.5,1.9-0.6c0.2,0,0.5-0.1,0.8-0.1c0.6,0,1.3,0.1,1.9,0.3
		c0.7,0.2,1.4,0.5,2.1,0.9c0.7,0.4,1.4,0.8,1.9,1.4c1.2,1.2,1.4,2.3,1.4,3.1c0,0.9-0.2,1.8-0.6,3.1c-0.4,1.2-1.1,2.5-2.1,3.9l0,0.1
		c-0.7,0.9-1.5,1.5-2.4,1.9c-0.6,0.3-1.4,0.4-2.6,0.6c0,0,0,0,0,0c0.2,0.5,0.3,1.1,0.5,1.6c0.2,0.9,0.4,1.7,0.4,2.6
		c0,1.3-0.4,2.6-1.1,3.8c-0.6,1-1.4,2-2.3,2.8c-0.9,0.8-1.8,1.4-2.9,1.9c-1.1,0.6-2.2,0.9-3.3,1.1c-0.4,0.1-0.7,0.1-1.1,0.1
		c-0.7,0-1.4-0.1-2-0.3c-0.5-0.2-1-0.4-1.4-0.6c-1.1,0.9-2.1,1.4-3.1,1.6c-0.4,0.1-0.7,0.1-1.1,0.1c-0.7,0-1.4-0.1-2-0.3
		c-0.8-0.3-1.6-0.6-2.3-1.1c0,0,0,0,0,0c-0.3,0.3-0.5,0.5-0.7,0.8c-1.5,1.5-2.7,2.3-4,2.5c-0.4,0.1-0.8,0.1-1.1,0.1
		c-0.6,0-1.3-0.1-1.9-0.2c-0.8-0.2-1.5-0.5-2.1-0.9c-1.2,1.1-2.3,1.7-3.4,1.8c-0.4,0.1-0.7,0.1-1.1,0.1c-0.7,0-1.4-0.1-2-0.3
		c-0.7-0.2-1.4-0.5-2-0.9c0,0,0,0,0,0c-1.5,1.5-2.7,2.2-4,2.4c-0.4,0.1-0.8,0.1-1.1,0.1c-0.6,0-1.3-0.1-1.9-0.3
		c-0.8-0.2-1.5-0.5-2.1-0.9c-0.2,0.2-0.4,0.3-0.5,0.5c-1.3,1.2-2.6,1.8-3.8,2C46.8,48.8,46.4,48.8,46,48.8z"/>
	<path class="st0" d="M103.6,40.4c-0.7,0-1.3-0.1-2-0.3c-0.9-0.3-1.7-0.6-2.4-1.1c-0.7-0.5-1.3-1.1-1.7-1.7c-0.6-0.9-1-1.9-1-2.8
		c0-0.7,0.1-1.6,0.4-2.6c0.2-0.8,0.5-1.7,0.9-2.7c0.4-1,0.9-2.1,1.4-3.2c0.5-1.1,1.1-2.2,1.7-3.4l0,0c0.9-1.6,1.8-3.3,2.7-5
		c-0.4,0.2-0.9,0.3-1.6,0.3c-0.2,0-0.4,0-0.6-0.1c-0.5-0.1-2.1-0.5-2.7-2.6c-0.1-0.5-0.2-1.1-0.3-1.6c0-0.9,0.2-1.7,0.6-2.7
		c0.6-1.2,1.8-1.9,2.7-2.3c0.8-0.4,1.8-0.7,2.9-1c1.1-0.3,2.3-0.6,3.6-0.9c0.9-0.2,1.8-0.4,2.8-0.6c0.5-0.6,1-1.2,1.4-1.6
		c0.7-0.8,1.8-1.7,3.1-1.9c0.3,0,0.6-0.1,1-0.1c0.9,0,1.9,0.2,2.7,0.6c0.8,0.4,1.5,0.8,2,1.3c0.1,0.1,0.2,0.2,0.3,0.3
		c0.3,0,0.6,0,0.8,0h0c1.5,0,2.5,0.2,3.3,0.5l0.1,0l0.1,0.1c0.8,0.4,1.4,1.1,1.9,1.9c0.3,0.6,0.5,1.2,0.7,1.8
		c0.1,0.6,0.2,1.2,0.2,1.8c0,0.7-0.2,1.4-0.5,2c0.4,0.3,0.8,0.5,1.1,0.8c0.4,0.4,0.7,0.7,1,1.1c0,0,0,0,0,0c0.6-1,1.1-1.7,1.5-2.3
		c0-1.1,0.3-2.2,1-3.4c0.5-0.9,1.1-1.9,1.8-2.7c0.7-0.9,1.5-1.7,2.2-2.3c1.1-0.9,2.1-1.4,3.2-1.6c0.3,0,0.6-0.1,0.9-0.1
		c0.8,0,1.6,0.2,2.4,0.5c0.8,0.3,1.6,0.7,2.2,1.2l0.1,0l0.1,0c1.7,1.4,1.8,3.2,1.1,4.5c0,0.1-0.1,0.1-0.1,0.2c0.7,0.3,1.3,0.6,1.8,1
		l0.1,0.1l0.1,0.1c0.9-0.8,1.8-1.6,2.7-2.1c1.2-0.8,2.4-1.2,3.5-1.4c0.3,0,0.6-0.1,0.9-0.1c0.6,0,1.3,0.1,2,0.3
		c0.8,0.2,1.5,0.5,2.2,0.8c0.7,0.4,1.4,0.8,1.9,1.3c0.9,0.8,1.5,1.7,1.6,2.7c0.2,0,0.4,0.1,0.6,0.1c0.5,0.1,0.9,0.3,1.3,0.5
		c0.8,0.4,1.4,1.1,1.8,1.8c0.6,1.2,0.5,2.5-0.2,3.6c-0.9,1.5-2,3.1-3.1,4.8c-1.2,1.8-2.5,3.5-3.9,5c-1.4,1.6-3,3-4.7,4.2
		c-1.9,1.3-3.9,2.1-6.1,2.5c-0.4,0.1-0.9,0.1-1.3,0.1l0,0c-0.9,0-1.7-0.1-2.5-0.4c-1.1-0.4-2-0.9-2.8-1.6c-0.4,0.4-0.7,0.8-1.1,1.1
		c-1.5,1.5-2.7,2.2-4,2.4c-0.4,0.1-0.8,0.1-1.1,0.1c-0.6,0-1.3-0.1-1.9-0.3c-0.9-0.2-1.6-0.6-2.3-1c-0.3-0.2-0.5-0.3-0.7-0.5
		c-0.1,0.6-0.3,1.1-0.7,1.6c-0.4,0.6-1.2,1.3-2.7,1.5c-0.3,0-0.6,0.1-0.9,0.1c-0.4,0-0.7,0-1.1-0.1c-0.7-0.1-1.4-0.3-2.1-0.7
		c-0.6-0.3-1.2-0.7-1.7-1.2c-0.5,0.5-1,0.9-1.6,1.3c-0.7,0.6-1.5,1.1-2.3,1.5c-1,0.5-2,0.8-3,1c-0.3,0-0.6,0.1-1,0.1
		c-0.7,0-1.3-0.1-2-0.3c-0.9-0.3-1.8-0.7-2.5-1.2c-0.2-0.1-0.4-0.3-0.6-0.4c-0.3,0.3-0.5,0.6-0.8,0.9c-1.4,1.6-2.7,2.4-4,2.6
		C104.3,40.3,104,40.4,103.6,40.4z"/>
	<g>
		<g>
			<path class="st1" d="M128.6,39.5c-0.6-0.1-1.6-0.2-3.2-0.2s-3.4,0.1-5.5,0.2c-2.2,0.1-4.6,0.3-7.4,0.5c-2.7,0.2-5.6,0.5-8.7,0.8
				c-4.4,0.4-8.9,0.9-13.7,1.5c-4.4,0.5-8.7,1.1-12.9,1.6c-1.9,0.3-3.7,0.6-5.6,0.8c-1.7,0.3-3.4,0.5-4.9,0.7
				c-0.2,0-0.4,0.1-0.7,0.1c0,0,0,0,0,0c0,0,0,0,0,0c-4.8,0.7-8.9,1.4-12.1,2.1c-3.2,0.7-5,1.2-5.5,1.7c-0.4,0.3-0.8,0.8-1.3,1.3
				c-0.5,0.6-0.9,1.1-1.4,1.7c-0.4,0.6-0.8,1.1-1.1,1.6c-0.3,0.5-0.5,0.9-0.5,1.2c0,0.1,0.1,0.2,0.2,0.4c0.1,0.2,0.3,0.2,0.6,0.2
				c0.3,0,0.7-0.1,1.2-0.3c1.3-0.4,3.5-0.9,6.7-1.4c3.2-0.5,6.9-1.1,11.1-1.7c4.3-0.6,8.9-1.2,13.9-1.8c5-0.6,10-1.2,15-1.7
				c3.7-0.4,7.3-0.7,10.7-1c3.4-0.3,6.7-0.6,9.6-0.8c3-0.2,5.6-0.4,7.9-0.5c2.3-0.1,4.1-0.1,5.5-0.1c0.6,0,1,0.1,1.3,0.1
				c0.3,0,0.5,0.1,0.7,0c0.4,0,0.8-0.2,1.1-0.5c0.3-0.3,0.5-0.6,0.6-0.9c0.1-0.3,0.2-0.7,0.3-1c0.1-0.3,0.1-0.6,0.1-0.8
				c0-0.9-0.1-1.7-0.4-2.5C130.2,40.2,129.5,39.7,128.6,39.5z"/>
		</g>
		<g>
			<path class="st1" d="M46.9,25.6c1.1-2.3,2.2-4.5,3.2-6.5c1-2,1.9-3.7,2.7-5.1c0-0.1,0.1-0.1,0.1-0.2c0.6-0.1,1.4-0.3,2.2-0.4
				c1.4-0.2,3-0.5,4.7-0.7c1.8-0.2,3.7-0.5,5.8-0.7c2.1-0.2,4.2-0.5,6.4-0.7c3-0.3,6-0.6,9-0.8s5.8-0.4,8.3-0.6
				c2.6-0.2,4.8-0.2,6.7-0.3c1.9,0,3.2,0,4,0.1c0.3,0.1,0.5,0.1,0.7,0.1c0.2,0,0.3-0.1,0.4-0.2c0.1-0.1,0.1-0.2,0.1-0.3
				c0-0.2-0.1-0.5-0.2-0.8c-0.2-0.3-0.4-0.7-0.6-1s-0.5-0.7-0.7-1.1c-0.3-0.4-0.5-0.6-0.7-0.8c-0.2-0.3-1.3-0.4-3.2-0.5
				c-1.9-0.1-4.3,0-7.2,0.1c0,0,0,0,0,0c0,0,0,0,0,0c-0.1,0-0.3,0-0.4,0c-0.9,0.1-1.9,0.1-2.9,0.2c-1.1,0.1-2.2,0.2-3.3,0.2
				c-2.5,0.2-5.1,0.3-7.7,0.5c-2.8,0.2-5.5,0.5-8.2,0.7c-1.9,0.2-3.6,0.4-5.2,0.6c-1.6,0.2-3.1,0.4-4.4,0.6
				c-1.3,0.2-2.4,0.4-3.3,0.6c-0.9,0.2-1.5,0.4-1.9,0.6c-0.7,0.3-1.6,0.8-2.7,1.7c-1.4,1.2-2.9,2.6-4.7,4.5
				c-1.7,1.8-3.5,3.9-5.5,6.2c-1.9,2.3-3.8,4.6-5.6,7c1-2.6,2.2-5.1,3.4-7.6c1.2-2.5,2.6-5,4.1-7.4c0.1-0.2,0.2-0.3,0.4-0.4
				c0.1-0.1,0.2-0.2,0.2-0.3c0-0.2-0.1-0.4-0.4-0.6c-0.2-0.2-0.5-0.4-0.8-0.6c-0.3-0.2-0.7-0.3-1-0.5c-0.4-0.1-0.7-0.2-1-0.1
				c-0.7,0.1-1.8,0.7-3,1.8c-1.3,1.1-2.8,2.6-4.4,4.3c-1.6,1.8-3.4,3.8-5.3,6.1c-1.9,2.3-3.7,4.6-5.5,7.1c-1.8,2.4-3.6,4.9-5.3,7.3
				c-1.7,2.4-3.2,4.6-4.5,6.7c-1.3,2.1-2.3,3.9-3.1,5.4c-0.8,1.5-1.1,2.6-1.1,3.3c0,0.5,0.1,0.9,0.4,1.3c0.3,0.4,0.6,0.7,1.1,1
				c0.4,0.3,0.9,0.5,1.3,0.6c0.5,0.1,0.9,0.2,1.2,0.1c0.4-0.1,0.6-0.3,0.8-0.6c0.1-0.3,0.2-0.7,0.3-1c0.2-0.9,0.7-2,1.4-3.5
				c0.7-1.4,1.5-3,2.5-4.8c1-1.8,2.1-3.6,3.3-5.6c1.2-2,2.6-4,4-6.1c1.4-2,2.8-4.1,4.3-6.1c1.5-2,2.9-3.9,4.4-5.6
				c-1.1,2.3-2.3,4.8-3.4,7.3c-1.1,2.5-2.1,5-3,7.3c-0.9,2.3-1.6,4.4-2.2,6.2s-0.8,3.2-0.8,4.1c0,0.5,0.1,0.9,0.4,1.3
				c0.3,0.4,0.6,0.7,1,1c0.4,0.3,0.8,0.5,1.3,0.6c0.5,0.1,0.9,0.2,1.2,0.1c0.4-0.1,0.6-0.2,0.8-0.6c0.1-0.3,0.2-0.7,0.3-1
				c0.3-1.1,0.8-2.4,1.6-3.9c0.8-1.5,1.7-3.2,2.7-4.9c1-1.7,2.2-3.5,3.4-5.4c1.2-1.8,2.4-3.6,3.7-5.3c1.2-1.7,2.4-3.3,3.5-4.8
				c1.1-1.5,2.1-2.7,3-3.7c-1.3,2.4-2.6,4.9-4,7.5c-1.3,2.7-2.5,5.2-3.6,7.8s-1.9,4.9-2.6,7.1c-0.7,2.2-1,4-1,5.4
				c0,0.7,0.1,1.2,0.3,1.7c0.2,0.4,0.5,0.8,0.9,1s0.8,0.4,1.3,0.4c0.5,0.1,1,0,1.5,0c0.6-0.1,1-0.2,1.3-0.3c0.3-0.1,0.5-0.2,0.6-0.3
				c0.1-0.1,0.1-0.3,0.1-0.5c0-0.2-0.1-0.4-0.1-0.8c-0.2-1.1-0.1-2.5,0.3-4.4c0.4-1.8,1-3.9,1.8-6.1c0.8-2.2,1.7-4.6,2.8-7
				C44.7,30.4,45.8,28,46.9,25.6z"/>
		</g>
		<g>
			<path class="st1" d="M46.7,45.6c0.6-0.1,1.3-0.5,2.2-1.2c0.8-0.7,1.7-1.7,2.7-2.9v0.2c0,0.3,0.1,0.6,0.4,0.9
				c0.2,0.3,0.6,0.6,1,0.9c0.4,0.3,0.9,0.5,1.5,0.6c0.5,0.2,1.1,0.2,1.7,0.1c0.5-0.1,1.3-0.6,2.2-1.5c0.8-0.8,1.6-1.7,2.4-2.7
				c0,0.1,0,0.2,0,0.3c0,0.3,0.1,0.6,0.4,0.9c0.2,0.3,0.6,0.6,1,0.9c0.4,0.3,0.9,0.5,1.5,0.7s1.1,0.2,1.7,0.1
				c0.5-0.1,1.3-0.6,2.2-1.5c0.6-0.6,1.1-1.2,1.7-1.9c0,0,0,0.1,0,0.1c0,0.3,0.1,0.6,0.4,1c0.3,0.3,0.6,0.6,1,0.9
				c0.4,0.3,0.9,0.5,1.4,0.6c0.6,0.1,1.1,0.2,1.7,0.1c0.5-0.1,1.3-0.6,2.2-1.5c0.9-0.9,1.9-2.1,3-3.5c0.2-0.3,0.4-0.5,0.6-0.8
				c-0.1,0.5-0.1,0.9-0.1,1.3c0,0.3,0.1,0.6,0.4,0.9s0.6,0.6,1,0.9c0.4,0.3,0.9,0.5,1.5,0.7s1.1,0.2,1.7,0.1
				c0.5-0.1,1.3-0.6,2.2-1.5c0.4-0.4,0.9-0.9,1.3-1.5c0,0.1,0,0.1,0.1,0.2c0.2,0.5,0.5,0.9,0.9,1.3c0.4,0.3,0.9,0.6,1.4,0.8
				c0.5,0.2,1.1,0.2,1.7,0.1c0.8-0.1,1.6-0.4,2.4-0.8c0.8-0.4,1.5-0.9,2.2-1.5c0.7-0.6,1.2-1.2,1.6-2c0.4-0.7,0.6-1.5,0.6-2.2
				c0-0.6-0.1-1.2-0.2-1.8c-0.2-0.6-0.3-1.1-0.5-1.7c-0.2-0.5-0.4-1-0.5-1.6c-0.2-0.5-0.2-1-0.2-1.5c0-0.6,0.2-1.2,0.5-1.9
				c0.3-0.7,0.7-1.3,1.2-2c0.5-0.6,1.1-1.2,1.7-1.7c0.6-0.5,1.2-0.9,1.8-1.2c0.1,0.2,0,0.5-0.1,0.9c-0.1,0.4-0.3,0.7-0.6,1.2
				c-0.3,0.4-0.6,0.9-1,1.3c-0.4,0.5-0.8,0.9-1.2,1.4C99,24.8,99,24.9,99,25c0.1,0.1,0.2,0.2,0.3,0.3c0.1,0.1,0.3,0.2,0.5,0.2
				c0.2,0,0.3,0.1,0.5,0c0.9-0.1,1.5-0.3,1.8-0.4c0.4-0.1,0.7-0.4,1-0.9c0.8-1.2,1.4-2.2,1.7-3.1c0.3-0.9,0.5-1.6,0.5-2.1
				c0-0.2-0.2-0.5-0.5-0.8c-0.3-0.3-0.7-0.6-1.2-0.8c-0.5-0.3-1-0.5-1.5-0.6c-0.5-0.2-1-0.2-1.3-0.1c-0.8,0.1-1.6,0.5-2.5,1.2
				c-0.9,0.7-1.7,1.5-2.6,2.5c-0.8,1-1.5,2-2,3s-0.9,1.9-1,2.7l0,0c-0.7,1.1-1.5,2.2-2.3,3.3c-0.8,1.2-1.6,2.3-2.3,3.3
				c-0.8,1-1.5,1.9-2.2,2.7s-1.3,1.2-1.7,1.4c-0.2-0.2-0.3-0.6-0.1-1.3c0.2-0.7,0.5-1.5,1-2.5c0.5-1,1-2.1,1.7-3.2
				c0.7-1.2,1.3-2.3,2.1-3.4c0.7-1.1,1.5-2.2,2.2-3.1c0.8-1,1.4-1.7,2.1-2.3c0.2-0.2,0.4-0.4,0.5-0.5c0.1-0.1,0-0.3-0.3-0.5
				c-0.4-0.3-0.9-0.6-1.5-0.8c-0.6-0.2-1.1-0.3-1.7-0.2c-0.5,0.1-1,0.5-1.8,1.2c-0.7,0.7-1.5,1.7-2.3,2.8c-0.7,1.1-1.5,2.2-2.2,3.5
				c-0.1,0-0.1,0-0.1,0c-0.1,0-0.3,0.1-0.5,0.4c-0.2,0.2-0.5,0.7-0.9,1.3c-0.7,1.1-1.5,2.2-2.3,3.3c-0.8,1.2-1.6,2.3-2.3,3.3
				c-0.8,1-1.5,1.9-2.1,2.7c-0.7,0.8-1.2,1.2-1.7,1.4c-0.1-0.1-0.2-0.3-0.2-0.5c0-0.4,0.2-1.1,0.6-2c0.4-0.9,0.9-1.9,1.5-3
				c0.6-1.1,1.3-2.4,2.1-3.8c0.8-1.4,1.6-2.7,2.5-4.1c0.9-1.4,1.8-2.7,2.7-4c0.9-1.3,1.8-2.5,2.6-3.6c1.7-0.2,3.3-0.3,4.8-0.4
				c1.5-0.1,2.7,0,3.6,0.1c0.2,0,0.4,0,0.6,0.1s0.4-0.1,0.5-0.3c0.1-0.2,0.2-0.5,0.2-0.8c0-0.3,0-0.6-0.1-0.9
				c-0.1-0.3-0.2-0.6-0.3-0.9c-0.2-0.3-0.4-0.5-0.6-0.6c-0.4-0.2-1.1-0.2-2.1-0.2c-1,0-2.2,0.1-3.6,0.2c0,0,0-0.1,0.1-0.1
				c0,0,0-0.1,0.1-0.1c0.1-0.1,0.2-0.2,0.3-0.3c0.1-0.1,0.1-0.2,0.1-0.3c0-0.1-0.1-0.3-0.3-0.4c-0.3-0.3-0.8-0.5-1.3-0.8
				c-0.6-0.3-1.2-0.3-1.8-0.2c-0.3,0-0.8,0.3-1.3,0.9c-0.6,0.6-1.2,1.3-2,2.2c-1,0.2-2,0.4-2.9,0.6c0.3-0.4,0.6-0.7,0.9-0.9
				c0.1-0.1,0.2-0.2,0.3-0.3c0.1-0.1,0.1-0.2,0.1-0.3c0-0.1-0.1-0.3-0.3-0.4c-0.3-0.3-0.8-0.5-1.3-0.8c-0.6-0.3-1.2-0.3-1.9-0.2
				c-0.3,0-0.7,0.3-1.3,0.8c-0.5,0.5-1.2,1.2-1.9,2.1c-0.5,0.6-0.9,1.2-1.4,1.9c-0.1,0-0.2,0.1-0.3,0.1c-0.7,0.3-1.1,0.6-1.2,0.8
				c-0.2,0.4-0.3,0.8-0.3,1.1c0,0.1,0,0.3,0,0.4c-0.5,0.8-1,1.5-1.6,2.4c-0.9,1.3-1.7,2.6-2.5,4s-1.6,2.7-2.3,4.1c0,0,0,0,0,0
				c-0.7,1.1-1.4,2.2-2.2,3.3c-0.8,1.2-1.6,2.3-2.3,3.3c-0.8,1-1.5,1.9-2.2,2.7c-0.7,0.8-1.3,1.2-1.7,1.4c-0.2-0.2-0.3-0.6-0.1-1.3
				c0.2-0.7,0.5-1.5,1-2.5c0.4-1,1-2,1.7-3.2c0.7-1.2,1.4-2.3,2.1-3.4c0.7-1.1,1.5-2.2,2.2-3.1c0.8-1,1.4-1.7,2.1-2.3
				c0.2-0.2,0.4-0.4,0.4-0.5c0.1-0.1,0-0.3-0.3-0.5c-0.4-0.3-0.9-0.6-1.5-0.8c-0.6-0.2-1.2-0.3-1.7-0.2c-0.4,0.1-1,0.4-1.7,1.1
				c-0.7,0.7-1.4,1.6-2.2,2.6c-0.8,1.1-1.5,2.3-2.3,3.6s-1.5,2.6-2.1,4c-0.3,0.5-0.8,1.2-1.4,2c-0.6,0.8-1.2,1.6-1.8,2.4
				c-0.7,0.8-1.3,1.6-2,2.2c-0.7,0.7-1.3,1.1-1.9,1.4c-0.2-0.2-0.3-0.6-0.1-1.3c0.2-0.7,0.5-1.5,1-2.5c0.5-1,1-2.1,1.7-3.2
				c0.7-1.2,1.3-2.3,2.1-3.4c0.7-1.1,1.5-2.2,2.2-3.1c0.8-1,1.4-1.7,2.1-2.3c0.2-0.2,0.4-0.4,0.4-0.5c0.1-0.1,0-0.3-0.3-0.5
				c-0.4-0.3-0.9-0.6-1.5-0.8c-0.6-0.2-1.1-0.3-1.7-0.2c-0.4,0.1-0.8,0.3-1.4,0.8c-0.5,0.5-1.1,1.1-1.7,1.9
				c-0.6,0.8-1.3,1.7-1.9,2.7c-0.7,1-1.3,2.1-1.9,3.2c-0.5,1-1,1.9-1.5,2.9c-0.5,1-0.9,1.9-1.3,2.8c-0.4,0.9-0.6,1.7-0.8,2.5
				c-0.2,0.8-0.3,1.4-0.3,1.9c0,0.3,0.1,0.6,0.4,1c0.2,0.3,0.6,0.6,1,0.9c0.4,0.3,0.9,0.5,1.5,0.6C45.5,45.6,46.1,45.7,46.7,45.6z
				 M89.2,35.1c1.1-1.4,2.2-2.9,3.3-4.6c0.2-0.3,0.4-0.6,0.6-0.9c0.1,0.2,0.1,0.5,0.2,0.7c0.1,0.6,0.3,1.1,0.4,1.5
				c0.1,0.5,0.2,0.9,0.2,1.3c0,0.4-0.1,0.8-0.3,1.1c-0.2,0.3-0.4,0.6-0.7,0.8s-0.6,0.4-0.9,0.5c-0.3,0.1-0.6,0.2-0.9,0.3
				c-0.6,0.1-1.1,0.1-1.5,0c-0.3-0.1-0.5-0.1-0.7-0.2C88.9,35.4,89,35.3,89.2,35.1z M66.3,36.3c0.6-1.2,1.3-2.6,2.2-4.2
				c0.9-1.6,1.9-3.3,3-5c1.1-1.8,2.2-3.5,3.4-5.1c0.7-1,1.4-2,2.1-2.9c1-0.2,2.1-0.4,3.2-0.6c-1.1,1.6-2.3,3.4-3.5,5.3
				c-1.2,1.9-2.3,3.8-3.3,5.6c-0.4,0.7-0.8,1.5-1.1,2.2c-0.1,0.2-0.3,0.4-0.4,0.6c-0.8,1.2-1.6,2.3-2.3,3.3c-0.8,1-1.5,1.9-2.2,2.7
				c-0.7,0.8-1.3,1.2-1.7,1.4c-0.1-0.1-0.2-0.3-0.2-0.5C65.4,38.4,65.7,37.5,66.3,36.3z"/>
		</g>
		<g>
			<path class="st1" d="M164.5,15c-0.1-0.2-0.2-0.3-0.4-0.4c-0.2-0.1-0.4-0.2-0.7-0.3s-0.4-0.1-0.6-0.1c-0.1,0-0.3,0.1-0.5,0.4
				c-0.2,0.2-0.5,0.7-0.9,1.3c-0.8,1.1-1.5,2.3-2.4,3.5c-0.8,1.2-1.7,2.4-2.6,3.4s-1.9,2-2.9,2.7c-1,0.8-2.1,1.2-3.2,1.4
				c-0.7,0.1-1.2,0-1.4-0.4c-0.2-0.4-0.3-0.8-0.3-1.4c0-0.5,0.1-1.1,0.3-1.7s0.3-1.1,0.5-1.5c0.3,0.2,0.7,0.3,1.1,0.4s0.8,0.1,1.2,0
				c0.5-0.1,1-0.3,1.6-0.7c0.6-0.4,1.3-1,1.9-1.6c0.7-0.6,1.3-1.4,1.9-2.1c0.6-0.8,1.2-1.6,1.7-2.4c0.5-0.8,0.9-1.5,1.2-2.3
				c0.3-0.7,0.5-1.3,0.5-1.8c0-0.2-0.2-0.5-0.5-0.8c-0.3-0.3-0.8-0.6-1.3-0.8c-0.5-0.3-1-0.5-1.6-0.6c-0.6-0.2-1.1-0.2-1.6-0.1
				c-0.7,0.1-1.5,0.4-2.3,0.9c-0.8,0.5-1.7,1.2-2.5,2c-0.9,0.8-1.7,1.7-2.5,2.8c-0.8,1-1.6,2.1-2.3,3.3c-0.7,1.1-1.4,2.2-2.2,3.3
				c-0.8,1.2-1.6,2.3-2.3,3.3c-0.8,1-1.5,1.9-2.2,2.7c-0.7,0.8-1.3,1.2-1.7,1.4c-0.2-0.2-0.3-0.6-0.1-1.3c0.2-0.7,0.5-1.5,1-2.5
				c0.4-1,1-2,1.7-3.2c0.7-1.2,1.4-2.3,2.1-3.4c0.7-1.1,1.5-2.2,2.2-3.1c0.8-1,1.4-1.7,2.1-2.3c0.2-0.2,0.4-0.4,0.4-0.5
				c0.1-0.1,0-0.3-0.3-0.5c-0.4-0.3-0.9-0.6-1.5-0.8c-0.6-0.2-1.2-0.3-1.7-0.2c-0.4,0.1-0.8,0.2-1.1,0.4c-0.3,0.2-0.6,0.3-0.9,0.4
				c-0.5,0.1-0.7,0-0.7-0.3c0-0.4,0.2-0.9,0.7-1.5c0.5-0.7,1.2-1.5,2.2-2.6c0.2-0.2,0.4-0.4,0.5-0.5c0.1-0.1,0-0.3-0.3-0.5
				c-0.4-0.3-0.9-0.6-1.5-0.8c-0.6-0.2-1.1-0.3-1.7-0.2c-0.4,0.1-1,0.4-1.6,0.9s-1.2,1.2-1.8,1.9c-0.6,0.7-1.1,1.5-1.5,2.2
				c-0.4,0.8-0.6,1.4-0.6,2c0,0.2,0.1,0.5,0.2,0.6c-0.1,0.1-0.1,0.2-0.2,0.2c-0.1,0.1-0.1,0.2-0.2,0.3c-0.4,0.6-1,1.5-1.9,2.8
				c-0.9,1.3-1.8,2.8-2.8,4.3c0,0-0.1,0.1-0.1,0.1c-0.4,0.5-0.7,1.1-1.2,1.8c-0.4,0.7-0.9,1.4-1.4,2c-0.5,0.7-1,1.3-1.6,1.8
				c-0.6,0.6-1.2,1-1.8,1.3c1.1-1.7,2-3.5,2.7-5.4c0.7-1.9,1-3.7,1-5.4c0-0.4-0.2-0.8-0.6-1.1c-0.4-0.4-0.9-0.7-1.5-0.9
				s-1.1-0.5-1.7-0.6s-1.1-0.2-1.4-0.1c-0.8,0.1-1.7,0.4-2.6,1c-0.9,0.5-1.7,1.2-2.6,2c-0.9,0.8-1.7,1.7-2.5,2.8
				c-0.2,0.3-0.5,0.6-0.7,1c-0.1,0-0.2,0-0.3,0c-0.1,0-0.3,0.1-0.4,0.4c-0.2,0.2-0.4,0.7-0.9,1.4c-0.7,1.1-1.4,2.3-2.2,3.5
				c-0.8,1.2-1.5,2.4-2.3,3.4c-0.7,1.1-1.5,2-2.1,2.8c-0.7,0.8-1.2,1.3-1.7,1.4c-0.1-0.2-0.2-0.3-0.2-0.6c0-0.5,0.2-1.1,0.6-2.1
				c0.4-0.9,0.8-2,1.4-3.2c0.6-1.2,1.3-2.5,2.1-3.9c0.8-1.4,1.6-2.8,2.5-4.3c0.9-1.4,1.7-2.8,2.6-4.2c0.9-1.4,1.7-2.6,2.6-3.8
				c1.7-0.2,3.3-0.3,4.8-0.4c1.5,0,2.7,0,3.6,0.1c0.2,0,0.4,0.1,0.6,0.1c0.2,0,0.4-0.1,0.5-0.3c0.1-0.2,0.2-0.5,0.2-0.8s0-0.6-0.1-1
				c-0.1-0.3-0.2-0.6-0.3-0.9c-0.2-0.3-0.4-0.5-0.6-0.6c-0.4-0.2-1.1-0.3-2.1-0.3c-1,0-2.2,0.1-3.5,0.2c0,0,0-0.1,0.1-0.1
				c0,0,0-0.1,0.1-0.1c0.1-0.1,0.2-0.2,0.3-0.3c0.1-0.1,0.1-0.2,0.1-0.3c0-0.1-0.1-0.3-0.3-0.5c-0.3-0.3-0.7-0.5-1.3-0.8
				c-0.6-0.3-1.2-0.4-1.8-0.3c-0.3,0-0.7,0.4-1.3,0.9c-0.6,0.6-1.2,1.3-1.9,2.3c-1.3,0.3-2.6,0.5-3.9,0.8c-1.3,0.3-2.4,0.6-3.4,0.9
				c-1,0.3-1.8,0.6-2.5,0.9c-0.7,0.3-1.1,0.6-1.2,0.8c-0.2,0.5-0.3,0.9-0.3,1.2c0,0.3,0.1,0.6,0.1,0.9c0.1,0.2,0.1,0.3,0.2,0.4
				s0.2,0,0.5-0.2c0.6-0.3,1.6-0.7,3.1-1c1.4-0.4,3-0.7,4.8-1c-1.1,1.7-2.3,3.5-3.4,5.5c-1.2,2-2.2,3.9-3.3,5.9
				c-0.6,1.2-1.1,2.3-1.7,3.4c-0.5,1.1-0.9,2.1-1.3,3c-0.4,0.9-0.6,1.7-0.8,2.4c-0.2,0.7-0.3,1.3-0.3,1.8c0,0.3,0.1,0.7,0.4,1
				c0.3,0.4,0.6,0.7,1,1c0.4,0.3,0.9,0.5,1.4,0.7c0.6,0.2,1.1,0.2,1.7,0.1c0.5-0.1,1.2-0.6,2.1-1.6c0.9-1,1.9-2.2,2.9-3.6
				c0.4-0.5,0.8-1.1,1.2-1.7c-0.1,0.6-0.1,1.2-0.1,1.8c0,0.5,0.2,1,0.5,1.5c0.3,0.5,0.7,0.9,1.1,1.2c0.4,0.3,1,0.6,1.5,0.7
				s1.1,0.2,1.6,0.1c0.7-0.1,1.3-0.3,2-0.7s1.3-0.7,1.9-1.2c0.6-0.5,1.1-0.9,1.7-1.5c0.5-0.5,1-1,1.4-1.5c0.1,0,0.3,0,0.4,0
				c0.1,0,0.3,0,0.4,0c0.6-0.1,1.2-0.3,1.7-0.5c-0.2,0.5-0.4,0.9-0.4,1.1c0,0.5,0.1,0.9,0.4,1.2c0.3,0.3,0.6,0.6,1,0.8
				c0.4,0.2,0.8,0.3,1.2,0.4c0.4,0.1,0.8,0.1,1.1,0c0.3,0,0.5-0.1,0.6-0.3c0.1-0.1,0.2-0.3,0.2-0.5c0-0.2,0-0.4-0.1-0.7
				c-0.1-0.2-0.1-0.5-0.1-0.8c0-1.1,0.3-2.3,0.9-3.8c0.6-1.5,1.4-3,2.3-4.6c0.9-1.6,1.9-3.1,2.9-4.7s1.9-2.9,2.6-4.1
				c0.3,0.2,0.7,0.3,1.1,0.5s0.8,0.3,1.2,0.4c-0.8,1.2-1.6,2.4-2.4,3.8c-0.8,1.4-1.5,2.8-2.2,4.1c-0.6,1.3-1.2,2.6-1.6,3.8
				c-0.4,1.2-0.6,2.1-0.6,2.9c0,0.3,0.1,0.6,0.4,0.9c0.2,0.3,0.6,0.7,1,0.9c0.4,0.3,0.9,0.5,1.5,0.6c0.5,0.2,1.1,0.2,1.7,0.1
				c0.5-0.1,1.3-0.6,2.2-1.5s1.9-2.1,3-3.5c0.2-0.3,0.5-0.6,0.7-0.9c0,0.1,0,0.1,0,0.2c0,0.5,0.1,1,0.4,1.5c0.3,0.5,0.7,1,1.2,1.4
				c0.5,0.4,1.1,0.8,1.8,1c0.7,0.2,1.5,0.3,2.3,0.2c1.7-0.2,3.3-0.9,4.8-1.9c1.5-1,2.9-2.3,4.1-3.7s2.5-3,3.6-4.7
				c1.1-1.7,2.1-3.3,3.1-4.7C164.6,15.4,164.6,15.2,164.5,15z M152,17.4c0.5-0.7,1-1.4,1.5-2c0.5-0.7,1.1-1.3,1.8-1.8
				c0.6-0.6,1.3-1,2-1.3c0,0.1,0,0.2,0,0.4c0,0.3-0.2,0.9-0.6,1.6c-0.4,0.7-0.9,1.5-1.5,2.2c-0.6,0.8-1.2,1.5-1.8,2.1
				c-0.6,0.6-1.2,0.9-1.6,1c-0.2,0-0.4,0-0.5,0c-0.2,0-0.4-0.1-0.5-0.2C151.1,18.8,151.5,18.1,152,17.4z M117,31.5
				c-0.7,0.6-1.5,1.1-2.3,1.5c0.1-0.9,0.3-1.9,0.7-3c0.4-1.1,0.8-2.2,1.4-3.3c0.1,0.5,0.4,1,0.8,1.6c0.4,0.5,0.9,1,1.5,1.4
				C118.4,30.3,117.7,30.9,117,31.5z M122.6,24.8c-0.5,0.9-1,1.8-1.6,2.6c-0.8-0.7-1.3-1.6-1.3-2.7c0-0.6,0.2-1.2,0.5-1.9
				c0.3-0.7,0.8-1.4,1.3-2c0.5-0.6,1-1.2,1.6-1.8c0.6-0.6,1.1-1,1.6-1.3c0.1,0.6,0,1.3-0.1,2.1c-0.1,0.8-0.4,1.6-0.7,2.4
				C123.5,23.1,123.1,23.9,122.6,24.8z"/>
		</g>
	</g>
	<g>
		<g>
			<path class="st0" d="M97.4,13.4c0.2,0.3,0.4,0.6,0.5,0.9c0.5-0.3,0.9-0.5,1.4-0.8c0,0,0,0,0-0.1c0,0.1,0.1,0.1,0.1,0.2
				c0-0.1,0-0.1,0-0.2c0,0.1,0,0.1,0,0.2c0-0.1,0-0.1,0-0.2c0,0.1,0,0.1,0,0.2c0-0.1,0-0.1,0.1-0.2c0,0.1-0.1,0.1-0.1,0.2
				c0,0,0-0.1,0.1-0.1c-0.5-0.2-1-0.4-1.4-0.6c-0.1,0.2-0.2,0.4-0.3,0.7c0-0.1,0.1-0.1,0.1-0.2c0,0,0,0,0,0c0-0.1,0.1-0.1,0.1-0.2
				l0,0c0.1,0,0.1-0.1,0.2-0.1c0,0,0,0,0,0c0.1,0,0.1-0.1,0.2-0.1c0,0,0,0,0,0c0.1,0,0.1,0,0.2,0c0,0,0,0,0,0c0.1,0,0.1,0,0.2,0
				c0,0,0,0,0,0c-0.1,0-0.2,0-0.3,0c-0.1,0-0.2,0-0.3,0.1c-0.1,0-0.2,0.1-0.2,0.2c-0.1,0.1-0.1,0.2-0.1,0.3c0,0.1,0,0.1,0,0.2
				c0,0.1,0,0.3,0.1,0.4c0.1,0.2,0.3,0.3,0.5,0.4c0.2,0,0.2,0,0.3,0c0.1,0,0.2,0,0.3-0.1c0.1-0.1,0.2-0.2,0.3-0.3
				c0-0.1,0.1-0.1,0.1-0.2c0-0.1,0.1-0.1,0.1-0.2c0.1-0.1,0.1-0.3,0.2-0.4c0-0.1,0-0.2,0-0.3c0-0.1,0-0.2-0.1-0.3
				c0-0.1-0.1-0.1-0.1-0.2c-0.1-0.1-0.2-0.1-0.3-0.2c-0.1,0-0.1-0.1-0.2-0.1c-0.1,0-0.2,0-0.3,0c-0.1,0-0.1,0.1-0.2,0.1
				c-0.1,0.1-0.2,0.2-0.3,0.3c-0.1,0.1-0.1,0.2-0.2,0.4c0,0.1-0.1,0.3-0.1,0.4c0,0.1,0,0.3,0,0.4c0,0.1,0.1,0.3,0.1,0.4
				c0,0.1,0.1,0.2,0.2,0.2c0.1,0.1,0.2,0.1,0.3,0.1c0.1,0,0.2,0,0.3,0c0.1,0,0.2,0,0.3-0.1c0.2-0.1,0.3-0.3,0.4-0.5
				c0-0.1,0-0.1,0-0.2c0-0.1,0-0.3-0.1-0.4c-0.1-0.3-0.3-0.6-0.5-0.9c0-0.1-0.1-0.2-0.2-0.2c-0.1-0.1-0.2-0.1-0.3-0.1
				c-0.1,0-0.2,0-0.3,0c-0.1,0-0.2,0-0.3,0.1c-0.2,0.1-0.3,0.3-0.4,0.5c0,0.1,0,0.1,0,0.2C97.3,13.2,97.4,13.3,97.4,13.4L97.4,13.4z
				"/>
		</g>
	</g>
	<g>
		<g>
			<path class="st0" d="M109.3,37.8c0.2,0,0.3,0,0.5,0c0.1,0,0.2,0,0.2-0.1c0.1,0,0.2-0.1,0.3-0.1c0.1-0.1,0.2-0.1,0.2-0.2
				c0.1-0.1,0.1-0.2,0.1-0.3c0-0.1,0-0.2,0-0.3c0-0.1-0.1-0.1-0.1-0.2c-0.1-0.1-0.2-0.2-0.3-0.3c-0.1,0-0.1-0.1-0.2-0.1
				c-0.1,0-0.3,0-0.4,0c-0.1,0-0.2,0.1-0.3,0.1c0.1,0,0.1,0,0.2,0c-0.1,0-0.1,0-0.2,0c-0.1,0-0.2,0-0.3,0.1c-0.1,0-0.2,0.1-0.3,0.2
				c-0.1,0.1-0.1,0.2-0.2,0.3c0,0.1-0.1,0.2-0.1,0.3c0,0.1,0,0.1,0,0.2c0,0.1,0.1,0.2,0.2,0.3c0.1,0,0.1,0.1,0.2,0.1
				C109,37.8,109.1,37.8,109.3,37.8L109.3,37.8z"/>
		</g>
	</g>
	<g>
		<g>
			<path class="st0" d="M121.7,36.6c0.2-0.2,0.4-0.4,0.7-0.6c0.1,0,0.1-0.1,0.2-0.1c0,0,0,0,0,0c0,0,0,0,0.1-0.1
				c0.1-0.1,0.3-0.2,0.4-0.3c0.3-0.2,0.5-0.7,0.3-1.1c-0.2-0.4-0.7-0.5-1.1-0.3c-0.5,0.3-1,0.6-1.5,0.9c-0.3,0.2-0.6,0.3-0.8,0.6
				c-0.2,0.4-0.1,0.9,0.2,1.2c0.4,0.3,0.8,0.2,1.2,0c0.1,0,0.2-0.1,0.3-0.2c0.1-0.1,0.2-0.1,0.2-0.2c0,0,0.2-0.1,0.1-0.1
				c-0.1,0.1,0.1-0.1,0.1-0.1c0,0,0.1,0,0.1-0.1c0.2-0.1,0,0,0.1,0c0.1,0,0.1,0,0.2,0c0,0,0.2,0,0.1,0c-0.1,0,0.1,0,0.1,0
				c0.1,0,0.3,0,0.4,0c-0.1-0.5-0.1-1-0.2-1.6c-0.8,0.3-1.7,0.5-2.5,0.6c0.2,0.5,0.4,1,0.6,1.4c0.2-0.1,0.6-0.3,0.8-0.3
				c0.2-0.1,0.5-0.2,0.8-0.3c0.1,0,0.3-0.1,0.4-0.1c0.1,0,0.1,0,0.2,0c0,0,0.2,0,0.1,0c0.2,0,0.3,0,0.5,0c0.1,0,0.1,0,0.2,0
				c0,0,0.1,0,0.1,0c-0.1,0-0.2-0.1-0.3-0.1c-0.1-0.1-0.1-0.2-0.2-0.3c0,0,0-0.1,0-0.1c0-0.1,0.1-0.3,0.1-0.4
				c0.1-0.1,0.1-0.1,0.2-0.2c0,0,0,0-0.1,0c-0.1,0-0.1,0.1-0.2,0.1c0,0-0.1,0-0.1,0.1c-0.1,0.1,0.1,0,0,0c-0.2,0.1-0.4,0.1-0.7,0.2
				c-0.1,0-0.2,0-0.3,0.1c-0.1,0-0.1,0-0.2,0c0,0-0.1,0,0,0c-0.2,0-0.5,0.1-0.7,0.1c-0.4,0-0.8,0.3-0.8,0.8c0,0.4,0.3,0.8,0.8,0.8
				c0.7,0,1.3-0.1,2-0.2c0.1,0,0.3-0.1,0.4-0.1c0.1,0,0.2,0,0.2,0c0.3,0-0.1,0,0.1,0c0.2,0,0.3,0,0.5,0c0.1,0,0.1,0,0.2,0
				c0,0,0.3,0,0.1,0c-0.2-0.4-0.3-0.8-0.5-1.2c0.4-0.2,0.4-0.3,0.3-0.2c-0.1,0-0.1,0-0.2,0c-0.1,0-0.2,0-0.3,0.1c-0.1,0-0.1,0-0.2,0
				c0.1,0,0.1,0,0,0c-0.1,0-0.2,0-0.3,0c-0.2,0-0.5,0-0.7,0c-0.1,0-0.2,0-0.3,0c-0.1,0-0.1,0,0,0c-0.1,0-0.1,0-0.2,0
				c-0.1,0.5-0.1,1-0.2,1.6c0.8,0.1,1.7,0.2,2.5,0.3c0.4,0.1,0.8-0.4,0.8-0.8c0-0.5-0.3-0.7-0.8-0.8c-0.8-0.1-1.7-0.2-2.5-0.3
				c-0.4,0-0.7,0.3-0.8,0.7c0,0.4,0.2,0.8,0.6,0.9c0.6,0.1,1.3,0.2,1.9,0.1c0.3,0,0.6-0.1,1-0.1c0.4-0.1,0.8-0.2,0.9-0.6
				c0.1-0.2,0.1-0.5,0-0.7c-0.1-0.2-0.3-0.4-0.5-0.5c-0.8-0.1-1.5,0-2.2,0.1c-0.3,0.1-0.6,0.1-1,0.2c0,0-0.1,0-0.1,0
				c0.1,0,0.1,0,0,0c-0.1,0-0.2,0-0.2,0c-0.2,0-0.3,0-0.5,0c0,0.5,0,1.1,0,1.6c0.7-0.1,1.4-0.1,2.1-0.4c0.3-0.1,0.7-0.2,1-0.4
				c0.5-0.3,0.7-1,0.2-1.5c-0.3-0.3-0.8-0.3-1.2-0.3c-0.4,0-0.8,0.1-1.2,0.2c-0.7,0.2-1.5,0.5-2.2,0.9c-0.4,0.2-0.5,0.7-0.3,1
				c0.2,0.4,0.5,0.5,0.9,0.5c0.9-0.1,1.7-0.3,2.5-0.6c0.4-0.1,0.6-0.5,0.6-0.9c-0.1-0.4-0.4-0.7-0.8-0.7c-0.5,0-1.1,0.1-1.5,0.3
				c-0.2,0.1-0.4,0.3-0.6,0.4c-0.1,0-0.1,0.1,0,0c0,0-0.1,0.1-0.1,0.1c0,0-0.2,0.1-0.1,0.1c0,0,0,0,0,0c-0.1,0,0,0,0.2,0
				c0.1,0.1,0.2,0.1,0.3,0.2c0,0,0,0,0,0c0.1,0.1,0.1,0.2,0.2,0.3c0.1,0.4-0.5,0.7-0.1,0.5c0.1,0,0.2-0.1,0.2-0.1
				c0.2-0.1,0.3-0.2,0.5-0.3c0.3-0.2,0.6-0.4,1-0.6c-0.3-0.5-0.5-0.9-0.8-1.4c-0.6,0.4-1.1,0.8-1.7,1.3c-0.3,0.3-0.3,0.8,0,1.1
				C120.9,36.9,121.4,36.9,121.7,36.6L121.7,36.6z"/>
		</g>
	</g>
	<g>
		<g>
			<path class="st0" d="M57.7,18.9c0.7,0,1.5,0,2.2,0c0.4,0,0.8-0.4,0.8-0.8c0-0.4-0.3-0.8-0.8-0.8c-0.7,0-1.5,0-2.2,0
				c-0.4,0-0.8,0.4-0.8,0.8C56.9,18.6,57.3,18.9,57.7,18.9L57.7,18.9z"/>
		</g>
	</g>
	<g>
		<g>
			<path class="st0" d="M56.1,17.4C55,17,53.9,17,52.9,17.6c-0.6,0.4-0.4,1.5,0.4,1.5c0.9,0,1.7-0.3,2.4-0.9
				c0.5-0.4,0.1-1.4-0.6-1.3c-0.5,0-0.9,0.1-1.4,0.2c0.1,0.5,0.3,1,0.4,1.5c1-0.4,2.1-0.6,3.2-0.7c-0.1-0.5-0.1-1-0.2-1.6
				c-0.7,0.2-1.4,0.2-2.2,0.1c0,0.5,0,1.1,0,1.6c2.7-0.2,5.5-0.5,8.2-0.7c1-0.1,1-1.6,0-1.6c-2.8,0.1-5.6,0.1-8.3,0.2
				c0,0.5,0,1.1,0,1.6c4.1-0.4,8.3-0.9,12.4-1.3c-0.1-0.5-0.1-1-0.2-1.6c-3.3,0.6-6.7,0.5-10,0.5c0,0.5,0,1.1,0,1.6
				c2.1-0.2,4.3-0.3,6.4-0.5c2.1-0.2,4.3-0.4,6.4-0.3c-0.3-0.3-0.5-0.7-0.8-1c0.1-0.2,0.1-0.1-0.1-0.1C68.6,15,68.3,15,68,15.1
				c-0.5,0.1-1,0.2-1.5,0.2c-1.1,0.1-2.1,0.3-3.2,0.3c-2.1,0.2-4.2,0.2-6.3,0.2c0.1,0.5,0.1,1,0.2,1.6c3.2-1,6.5-1.5,9.8-1.4
				c-0.2-0.4-0.4-0.9-0.6-1.3c-0.3,0.2-0.8,0.3-1.1,0.4c-0.5,0.1-1,0.2-1.5,0.3c-1,0.2-2,0.4-3,0.6c-2,0.4-4,0.8-6,1.2
				c0.1,0.5,0.3,1,0.4,1.5c4-0.9,8-1.5,12-1.7c-0.1-0.5-0.1-1-0.2-1.6c-3.4,1.1-6.9,2-10.4,2.7c0.1,0.5,0.3,1,0.4,1.5
				c3.4-1.2,6.9-2,10.4-2.5c-0.2-0.5-0.4-1-0.6-1.4c-3.9,1.9-7.9,3.3-12.2,4.2c0.2,0.5,0.4,1,0.6,1.4c3.4-1.6,6.9-2.9,10.6-3.7
				c-0.1-0.5-0.3-1-0.4-1.5c-3.6,0.9-7,2.9-10.7,3c0.2,0.4,0.4,0.9,0.6,1.3c0.9-1.1,2.1-1.9,3.3-2.4c-0.3-0.4-0.6-0.8-1-1.2
				c-1.4,1.3-2.8,2.6-4.2,4c0.4,0.3,0.9,0.5,1.3,0.8c0.2-1.3,0.3-2.5,0.4-3.8c0.1-0.7-0.9-1-1.3-0.6c-1,0.8-1.9,1.6-2.9,2.4
				c-0.6,0.5,0,1.6,0.8,1.3c1.3-0.5,2.5-1.1,3.7-1.8c-0.4-0.3-0.8-0.6-1.2-0.9c-0.3,1-0.5,2-0.8,3c0.5,0.1,1,0.3,1.5,0.4
				c0.3-1.4,0.5-2.8,0.6-4.2c0.1-0.7-0.7-0.9-1.2-0.7c-1.3,0.6-2.4,1.7-3,3.1c-0.2,0.4-0.1,1.1,0.5,1.2c1.9,0.3,3.8-0.5,4.6-2.3
				c0.5-0.9-0.8-1.6-1.4-0.8c-0.7,0.9-1.5,1.9-2.2,2.8c0.5,0.2,1,0.4,1.4,0.6c0.5-1.2,1-2.4,1.7-3.6c0.4-0.8-0.6-1.6-1.2-1
				c-1.2,1.2-2.2,2.6-3,4.1c-0.4,0.7,0.4,1.5,1.1,1.1C54.6,20.9,55.8,19.3,56.1,17.4c0.2-0.9-0.9-1.4-1.4-0.7
				c-0.9,1.3-1.7,2.6-2.4,4c-0.5,0.9,0.9,1.7,1.4,0.8c0.7-1.2,1.2-2.4,1.7-3.7c0.3-0.7-0.8-1.4-1.3-0.8c-0.8,1-1.4,2-1.8,3.2
				c-0.3,0.9,1,1.3,1.4,0.6c0.9-1.2,2-2.3,3.1-3.2c-0.4-0.3-0.8-0.6-1.2-1c-0.7,1.4-1.4,2.9-2.1,4.3c0.5,0.2,1,0.4,1.4,0.6
				c0.6-1.5,1.2-3.1,1.8-4.6c-0.5-0.1-1-0.3-1.5-0.4c-0.4,1.1-0.9,2.3-1.3,3.4c-0.3,0.8,0.8,1.3,1.3,0.8c1.1-1,2-2.2,2.6-3.6
				c0.4-0.9-0.8-1.7-1.4-0.8c-0.9,1.5-1.9,3-2.8,4.4c-0.6,0.9,0.8,1.6,1.4,0.8c0.9-1.3,1.9-2.5,3-3.7c-0.4-0.3-0.8-0.6-1.2-1
				c-0.8,1.4-1.6,2.7-2.3,4.1c-0.4,0.8,0.6,1.7,1.2,1c1.4-1.6,2.4-3.5,3-5.6c0.2-0.6-0.6-1.3-1.2-0.9c-1.9,1.3-3.4,3.1-4.4,5.2
				c-0.4,0.8,0.6,1.6,1.2,1c1.5-1.3,3-2.7,4.5-4c-0.4-0.3-0.9-0.5-1.3-0.8c-0.6,1.5-1.6,2.7-2.8,3.8c0.4,0.3,0.8,0.6,1.2,1
				c0.8-1.5,1.6-3,2.5-4.5c-0.5-0.3-0.9-0.5-1.4-0.8c-0.9,1.7-1.6,3.5-2.3,5.4c-0.3,0.8,0.8,1.3,1.3,0.8c1.6-1.6,3-3.5,4-5.6
				c0.3-0.7-0.4-1.5-1.1-1.1c-2.1,1.3-3.3,3.4-4.4,5.5c-0.4,0.8,0.6,1.6,1.2,1c1.5-1.6,2.9-3.2,4.1-5c-0.5-0.3-0.9-0.5-1.4-0.8
				c-1,1.8-1.9,3.7-2.7,5.6c-0.4,0.9,1,1.3,1.4,0.6c1.1-1.7,1.9-3.5,2.3-5.4c0.2-0.9-1-1.4-1.4-0.6C57,18.6,56,20.6,55,22.6
				c-0.4,0.7,0.7,1.7,1.2,1c1.4-1.8,2.5-3.7,3.1-5.9c0.3-0.8-1-1.4-1.4-0.6c-0.6,1.3-1.4,2.4-2.4,3.5c0.4,0.3,0.9,0.5,1.3,0.8
				c0.4-1,0.9-1.9,1.4-2.8c-0.5-0.3-0.9-0.5-1.4-0.8c-0.8,1.5-1.5,3.1-2,4.8c-0.2,0.6,0.6,1.3,1.2,0.9c2.2-1.6,4-3.7,5.3-6.2
				c0.4-0.8-0.6-1.7-1.2-1c-1.6,1.8-3,3.8-4.1,5.9c-0.4,0.7,0.7,1.7,1.2,1c1.7-2.2,2.7-4.7,3-7.4c0.1-0.9-1.1-1-1.5-0.4
				c-1,1.4-1.7,3-2.1,4.6c-0.2,0.7,0.8,1.4,1.3,0.8c1.1-1.4,1.9-2.9,2.5-4.5c0.3-0.8-1.1-1.4-1.4-0.6c-0.8,1.9-1.6,3.7-2.4,5.6
				c-0.4,0.9,0.8,1.6,1.4,0.8c1.2-1.6,2.4-3.2,3.5-4.7c0.6-0.8-0.8-1.6-1.4-0.8c-1.3,1.7-2.5,3.5-3.6,5.4c-0.5,0.8,0.6,1.5,1.2,1
				c1.8-1.4,3-3.5,3.4-5.8c0.1-0.7-0.7-1.4-1.3-0.8c-1.5,1.6-2.6,3.5-3.2,5.6c-0.2,0.7,0.6,1.3,1.2,0.9c2.1-1.3,3.6-3.3,4.3-5.6
				c0.2-0.8-0.8-1.3-1.3-0.8c-1.2,1.2-2.3,2.6-3.3,4c-0.6,0.8,0.6,1.5,1.2,1c1.5-1.2,2.9-2.6,4.2-4c-0.4-0.3-0.8-0.6-1.2-1
				c-0.9,1.4-1.9,2.7-2.9,3.9c-0.6,0.8,0.4,1.9,1.1,1.1c1.3-1.4,2.6-2.9,3.8-4.3c0.7-0.8-0.4-1.8-1.1-1.1c-2,2-4,4-6,6
				c0.4,0.4,0.7,0.7,1.1,1.1c0.6-0.7,1.2-1.3,1.9-1.8c-0.4-0.3-0.8-0.6-1.2-1c-0.4,0.7-0.9,1.4-1.4,2.1c-0.5,0.8,0.6,1.5,1.2,1
				c1.5-1.4,3-2.9,4.3-4.5c-0.4-0.4-0.7-0.7-1.1-1.1c-0.6,0.8-1.3,1.5-1.9,2.3c-0.5,0.6,0.2,1.8,1,1.2c1.2-0.8,2.3-1.8,3.3-2.8
				c0.7-0.7-0.4-1.8-1.1-1.1c-0.8,0.8-1.6,1.6-2.4,2.3c-0.7,0.7,0.4,1.8,1.1,1.1c1.1-1,2.3-2.1,3.4-3.1c-0.4-0.3-0.8-0.6-1.2-1
				c-0.6,0.8-1.2,1.7-1.8,2.5c-0.6,0.8,0.6,1.5,1.2,1c1.1-1,2.2-2,3.2-3.2c-0.4-0.4-0.7-0.7-1.1-1.1c-0.7,0.9-1.6,1.8-2.4,2.5
				c-0.7,0.6,0.2,1.7,1,1.2c1.2-0.8,2.3-1.7,3.3-2.7c-0.4-0.4-0.7-0.7-1.1-1.1c-1.1,1.1-2.1,2.4-2.9,3.7c-0.5,0.7,0.4,1.4,1.1,1.1
				c1.7-1,3.2-2.2,4.5-3.6c0.6-0.6-0.2-1.8-1-1.2c-1.4,0.9-2.7,2-3.9,3.2c0.4,0.3,0.8,0.6,1.2,1c0.6-1.1,1.5-2,2.5-2.7
				c-0.3-0.4-0.6-0.8-1-1.2c-1.2,1.1-2.4,2.1-3.6,3.2c-0.7,0.6,0.2,1.8,1,1.2c1.1-0.8,2.3-1.6,3.4-2.4c0.8-0.6,0.1-1.8-0.8-1.4
				c-2,0.9-4,1.9-6,2.8c0.3,0.5,0.5,0.9,0.8,1.4c2.6-1.2,5.1-2.4,7.7-3.6c-0.3-0.4-0.6-0.8-1-1.2c-0.9,1.1-1.9,2.1-2.9,3.1
				c0.4,0.4,0.7,0.7,1.1,1.1c1.2-1.3,2.5-2.6,3.7-3.8c-0.4-0.4-0.7-0.7-1.1-1.1c-1,1.1-2.1,2.3-3.1,3.4c-0.7,0.8,0.4,1.8,1.1,1.1
				c1.1-1,2.3-2,3.4-3c0.7-0.6-0.2-1.8-1-1.2c-1.5,1-3,2.1-4.4,3.1c0.3,0.5,0.5,0.9,0.8,1.4c1.7-1.3,3.2-2.8,4.4-4.5
				c0.6-0.8-0.6-1.5-1.2-1c-0.9,0.7-1.8,1.4-2.6,2.1c-0.7,0.6,0.2,1.7,1,1.2c1.1-0.7,2.3-1.4,3.4-2.1c-0.4-0.3-0.8-0.6-1.2-0.9
				c-0.1,0.3-0.1,0.5-0.2,0.8c-0.2,0.8,0.7,1.3,1.3,0.8c0.5-0.4,0.9-0.9,1.1-1.5c0.3-0.7-0.3-1.4-1.1-1.1c-0.3,0.1-0.6,0.3-0.9,0.4
				c0.3,0.5,0.5,0.9,0.8,1.4c0.7-0.4,1.2-1,1.6-1.7c0.4-0.7-0.4-1.4-1.1-1.1c-1.3,0.6-2.5,1.4-3.5,2.5c-0.5,0.5-0.9,1-1.3,1.6
				c-0.3,0.5-0.7,1.2-1.3,1.4c-0.8,0.3-0.7,1.6,0.2,1.6c0.2,0,0.5,0,0.7,0c-0.2-0.4-0.4-0.9-0.6-1.3c-0.4,0.5-0.9,1-1.3,1.5
				c-0.5,0.6,0,1.6,0.8,1.3c1.3-0.4,2.4-1.1,3.3-2c0.6-0.7-0.2-1.7-1-1.2c-0.9,0.5-1.8,0.9-2.7,1.4c-0.9,0.5-0.1,1.8,0.8,1.4
				c1.6-0.8,3.1-1.7,4.4-2.9c0.7-0.6-0.2-1.7-1-1.2c-1.6,1.1-3.1,2.3-4.5,3.7c-0.7,0.6,0.2,1.7,1,1.2c1.2-0.7,2.3-1.5,3.2-2.5
				c0.7-0.7-0.4-1.8-1.1-1.1c-0.9,0.9-1.6,1.8-2.2,2.9c-0.4,0.7,0.4,1.5,1.1,1.1c1.2-0.7,2.2-1.7,2.9-2.9c0.4-0.8-0.6-1.6-1.2-1
				c-0.6,0.6-1.2,1.2-1.7,2c-0.4,0.7,0.4,1.5,1.1,1.1c0.6-0.4,1.2-0.9,1.7-1.4c-0.4-0.4-0.7-0.7-1.1-1.1c-0.4,0.5-0.8,1-1.1,1.5
				c-0.6,0.8,0.8,1.6,1.4,0.8c0.3-0.4,0.6-0.8,0.9-1.2c0.7-0.8-0.4-1.9-1.1-1.1c-0.4,0.4-0.9,0.8-1.4,1.2c0.4,0.4,0.7,0.7,1.1,1.1
				c0.4-0.6,0.9-1.2,1.4-1.6c-0.4-0.3-0.8-0.6-1.2-1c-0.5,1-1.3,1.8-2.3,2.4c0.4,0.4,0.7,0.7,1.1,1.1c0.6-1,1.2-1.8,2-2.6
				c-0.4-0.4-0.7-0.7-1.1-1.1c-0.9,0.9-1.8,1.7-2.9,2.3c0.3,0.4,0.6,0.8,1,1.2c1.3-1.3,2.7-2.4,4.2-3.4c-0.3-0.4-0.6-0.8-1-1.2
				c-1.2,1.1-2.6,2-4.1,2.7c0.3,0.5,0.5,0.9,0.8,1.4c0.9-0.5,1.8-0.9,2.7-1.4c-0.3-0.4-0.6-0.8-1-1.2c-0.7,0.8-1.6,1.3-2.6,1.6
				c0.3,0.4,0.5,0.9,0.8,1.3c0.4-0.5,0.9-1,1.3-1.5c0.4-0.5,0.2-1.4-0.6-1.3c-0.2,0-0.5,0-0.7,0c0.1,0.5,0.1,1,0.2,1.6
				c1.5-0.4,1.9-1.9,2.8-3c1-1.2,2.2-2.1,3.6-2.7c-0.4-0.4-0.7-0.7-1.1-1.1c-0.3,0.5-0.6,0.8-1,1.1c-0.9,0.6-0.1,1.8,0.8,1.4
				c0.3-0.1,0.6-0.3,0.9-0.4c-0.4-0.4-0.7-0.7-1.1-1.1c-0.2,0.5-0.5,0.9-0.9,1.2c0.4,0.3,0.9,0.5,1.3,0.8c0.1-0.3,0.1-0.5,0.2-0.8
				c0.2-0.7-0.6-1.2-1.2-0.9c-1.2,0.7-2.3,1.4-3.4,2.1c0.3,0.4,0.6,0.8,1,1.2c0.9-0.7,1.8-1.4,2.6-2.1c-0.4-0.3-0.8-0.6-1.2-1
				c-1.1,1.5-2.3,2.8-3.8,3.9c-0.8,0.6,0,2,0.8,1.4c1.5-1,3-2.1,4.4-3.1c-0.3-0.4-0.6-0.8-1-1.2c-1.1,1-2.3,2-3.4,3
				c0.4,0.4,0.7,0.7,1.1,1.1c1-1.1,2.1-2.3,3.1-3.4c0.7-0.7-0.4-1.9-1.1-1.1c-1.2,1.3-2.5,2.6-3.7,3.8c-0.7,0.7,0.4,1.8,1.1,1.1
				c1-1,2-2,2.9-3.1c0.6-0.7-0.1-1.6-1-1.2c-2.6,1.2-5.1,2.4-7.7,3.6c-0.9,0.4-0.1,1.8,0.8,1.4c2-0.9,4-1.9,6-2.8
				c-0.3-0.5-0.5-0.9-0.8-1.4c-1.1,0.8-2.3,1.6-3.4,2.4c0.3,0.4,0.6,0.8,1,1.2c1.2-1.1,2.4-2.1,3.6-3.2c0.7-0.6-0.2-1.8-1-1.2
				c-1.3,0.9-2.3,2-3.1,3.3c-0.5,0.8,0.6,1.6,1.2,1c1.1-1.1,2.3-2.1,3.5-3c-0.3-0.4-0.6-0.8-1-1.2c-1.2,1.4-2.6,2.5-4.2,3.4
				c0.4,0.4,0.7,0.7,1.1,1.1c0.8-1.2,1.7-2.3,2.7-3.4c0.7-0.7-0.4-1.8-1.1-1.1c-0.9,0.9-1.9,1.7-3,2.4c0.3,0.4,0.6,0.8,1,1.2
				c0.9-0.8,1.7-1.6,2.4-2.5c0.6-0.8-0.4-1.9-1.1-1.1c-1,1.1-2.1,2.2-3.2,3.2c0.4,0.3,0.8,0.6,1.2,1c0.6-0.8,1.2-1.7,1.8-2.5
				c0.6-0.8-0.6-1.5-1.2-1c-1.1,1-2.3,2.1-3.4,3.1c0.4,0.4,0.7,0.7,1.1,1.1c0.8-0.8,1.6-1.6,2.4-2.3c-0.4-0.4-0.7-0.7-1.1-1.1
				c-0.9,0.9-1.9,1.8-3,2.5c0.3,0.4,0.6,0.8,1,1.2c0.6-0.8,1.3-1.5,1.9-2.3c0.6-0.8-0.4-1.9-1.1-1.1c-1.4,1.6-2.8,3.1-4.3,4.5
				c0.4,0.3,0.8,0.6,1.2,1c0.5-0.7,1-1.4,1.4-2.1c0.5-0.8-0.6-1.5-1.2-1c-0.7,0.5-1.3,1.1-1.9,1.8c-0.7,0.8,0.4,1.8,1.1,1.1
				c2-2,4-4,6-6c-0.4-0.4-0.7-0.7-1.1-1.1c-1.3,1.4-2.6,2.9-3.8,4.3c0.4,0.4,0.7,0.7,1.1,1.1c1.1-1.4,2.2-2.8,3.2-4.2
				c0.5-0.7-0.6-1.6-1.2-1c-1.3,1.4-2.7,2.8-4.2,4c0.4,0.3,0.8,0.6,1.2,1c0.9-1.3,2-2.5,3.1-3.6c-0.4-0.3-0.9-0.5-1.3-0.8
				c-0.6,1.9-1.8,3.6-3.6,4.7c0.4,0.3,0.8,0.6,1.2,0.9c0.5-1.8,1.5-3.5,2.8-4.9c-0.4-0.3-0.9-0.5-1.3-0.8c-0.3,2-1.4,3.8-3,5.1
				c0.4,0.3,0.8,0.6,1.2,1c1.1-1.9,2.3-3.7,3.6-5.4c-0.5-0.3-0.9-0.5-1.4-0.8c-1.2,1.6-2.4,3.2-3.5,4.7c0.5,0.3,0.9,0.5,1.4,0.8
				c0.8-1.9,1.6-3.7,2.4-5.6c-0.5-0.2-1-0.4-1.4-0.6c-0.5,1.4-1.2,2.7-2.1,3.8c0.4,0.3,0.9,0.5,1.3,0.8c0.4-1.5,1-3,1.9-4.2
				c-0.5-0.1-1-0.3-1.5-0.4c-0.3,2.3-1.2,4.5-2.6,6.3c0.4,0.3,0.8,0.6,1.2,1c1.1-2,2.4-3.9,3.9-5.6c-0.4-0.3-0.8-0.6-1.2-1
				c-1.1,2.2-2.7,4.1-4.7,5.6c0.4,0.3,0.8,0.6,1.2,0.9c0.5-1.5,1-3,1.8-4.4c0.5-0.9-0.8-1.7-1.4-0.8c-0.6,1-1.1,2-1.6,3.1
				c-0.3,0.7,0.8,1.3,1.3,0.8c1.1-1.1,1.9-2.4,2.6-3.8c-0.5-0.2-1-0.4-1.4-0.6c-0.6,1.9-1.5,3.7-2.7,5.2c0.4,0.3,0.8,0.6,1.2,1
				c1-2,2.1-3.9,3.2-5.8c-0.5-0.2-1-0.4-1.4-0.6c-0.5,1.8-1.2,3.4-2.2,5c0.5,0.2,1,0.4,1.4,0.6c0.7-1.8,1.6-3.6,2.6-5.2
				c0.5-0.9-0.8-1.6-1.4-0.8c-1.2,1.6-2.5,3.2-3.9,4.7c0.4,0.3,0.8,0.6,1.2,1c1-1.8,2.1-3.8,3.9-4.9c-0.4-0.4-0.7-0.7-1.1-1.1
				c-0.9,2-2.2,3.7-3.7,5.3c0.4,0.3,0.9,0.5,1.3,0.8c0.6-1.7,1.3-3.4,2.1-5c0.5-0.9-0.9-1.7-1.4-0.8c-0.8,1.5-1.6,3-2.5,4.5
				c-0.4,0.8,0.6,1.5,1.2,1c1.4-1.2,2.5-2.7,3.2-4.5c0.3-0.8-0.8-1.2-1.3-0.8c-1.5,1.3-3,2.7-4.5,4c0.4,0.3,0.8,0.6,1.2,1
				c0.9-1.8,2.2-3.4,3.8-4.6c-0.4-0.3-0.8-0.6-1.2-0.9c-0.5,1.8-1.4,3.5-2.6,4.9c0.4,0.3,0.8,0.6,1.2,1c0.8-1.4,1.6-2.7,2.3-4.1
				c0.4-0.8-0.6-1.6-1.2-1c-1.2,1.3-2.2,2.6-3.2,4c0.5,0.3,0.9,0.5,1.4,0.8c0.9-1.5,1.9-3,2.8-4.4c-0.5-0.3-0.9-0.5-1.4-0.8
				c-0.6,1.2-1.4,2.3-2.4,3.2c0.4,0.3,0.9,0.5,1.3,0.8c0.4-1.1,0.9-2.3,1.3-3.4c0.4-0.9-1.2-1.4-1.5-0.4c-0.6,1.5-1.2,3.1-1.8,4.6
				c-0.3,0.8,1,1.4,1.4,0.6c0.7-1.4,1.4-2.9,2.1-4.3c0.4-0.8-0.5-1.5-1.2-1c-1.3,1-2.4,2.2-3.4,3.5c0.5,0.2,1,0.4,1.4,0.6
				c0.3-0.9,0.8-1.8,1.4-2.5c-0.4-0.3-0.9-0.5-1.3-0.8c-0.4,1.1-1,2.2-1.6,3.3c0.5,0.3,0.9,0.5,1.4,0.8c0.7-1.4,1.5-2.8,2.4-4
				c-0.5-0.2-1-0.4-1.4-0.6c-0.3,1.5-1.2,2.8-2.5,3.5c0.4,0.4,0.7,0.7,1.1,1.1c0.7-1.4,1.6-2.6,2.7-3.8c-0.4-0.3-0.8-0.6-1.2-1
				c-0.7,1.3-1.3,2.6-1.8,4c-0.1,0.4,0.1,0.8,0.5,0.9c0.4,0.2,0.7,0,1-0.3c0.7-0.9,1.5-1.9,2.2-2.8c-0.5-0.3-0.9-0.5-1.4-0.8
				c-0.5,1-1.7,1.7-2.9,1.5c0.2,0.4,0.3,0.8,0.5,1.2c0.5-1.1,1.3-2,2.5-2.5c-0.4-0.2-0.8-0.5-1.2-0.7c-0.1,1.3-0.3,2.5-0.6,3.8
				c-0.2,1,1.3,1.4,1.5,0.4s0.5-2,0.8-3c0.2-0.6-0.6-1.3-1.2-0.9c-1,0.7-2.1,1.2-3.3,1.7c0.3,0.4,0.5,0.9,0.8,1.3
				c1-0.8,1.9-1.6,2.9-2.4c-0.4-0.2-0.9-0.4-1.3-0.6c-0.1,1.1-0.2,2.3-0.4,3.4c-0.1,0.7,0.7,1.3,1.3,0.8c1.4-1.3,2.8-2.6,4.2-4
				c0.7-0.7-0.2-1.6-1-1.2c-1.4,0.6-2.6,1.5-3.7,2.7c-0.4,0.5-0.2,1.4,0.6,1.3c3.9-0.1,7.4-2.1,11.1-3.1c1-0.2,0.6-1.7-0.4-1.5
				c-3.8,0.9-7.5,2.2-11,3.9c-0.8,0.4-0.2,1.6,0.6,1.4c4.4-0.9,8.6-2.3,12.6-4.3c0.9-0.4,0.2-1.6-0.6-1.4c-3.6,0.5-7,1.4-10.4,2.5
				c-1,0.3-0.6,1.7,0.4,1.5c3.5-0.7,7-1.6,10.4-2.7c0.8-0.3,0.7-1.6-0.2-1.6c-4.2,0.2-8.4,0.8-12.4,1.8c-1,0.2-0.6,1.7,0.4,1.5
				c2.2-0.4,4.4-0.9,6.5-1.3c1.1-0.2,2.1-0.4,3.2-0.6c1-0.2,1.8-0.3,2.6-0.9c0.6-0.4,0.1-1.3-0.6-1.3c-3.5-0.1-6.9,0.4-10.3,1.4
				c-0.8,0.3-0.7,1.5,0.2,1.6c2.5,0,5,0,7.5-0.3c1.2-0.1,2.4-0.3,3.6-0.5c0.9-0.1,2.2-0.2,2.5-1.2c0.2-0.5-0.3-1-0.8-1
				c-2.2,0-4.3,0.2-6.4,0.3c-2.1,0.2-4.3,0.3-6.4,0.5c-1,0.1-1,1.6,0,1.6c3.5,0.1,7,0.1,10.5-0.5c0.9-0.2,0.7-1.6-0.2-1.6
				c-4.1,0.4-8.3,0.9-12.4,1.3c-1,0.1-1,1.6,0,1.6c2.8-0.1,5.6-0.1,8.3-0.2c0-0.5,0-1.1,0-1.6c-2.7,0.2-5.5,0.5-8.2,0.7
				c-1,0.1-1,1.5,0,1.6c0.9,0.1,1.7,0,2.6-0.2c0.9-0.2,0.7-1.6-0.2-1.6c-1.2,0-2.4,0.2-3.6,0.7c-0.9,0.4-0.6,1.8,0.4,1.5
				c0.3-0.1,0.6-0.2,1-0.2c-0.2-0.4-0.4-0.9-0.6-1.3c-0.4,0.3-0.8,0.5-1.3,0.5c0.1,0.5,0.3,1,0.4,1.5c0.5-0.3,1-0.4,1.6-0.2
				C56.2,19.2,57,17.9,56.1,17.4L56.1,17.4z"/>
		</g>
	</g>
	<g>
		<g>
			<path class="st0" d="M40.4,53.1c0.5,0.4,1,0.7,1.6,0.9c0.1-0.5,0.1-1,0.2-1.6c-0.2,0,0.1,0-0.1,0c0.1,0-0.1-0.1,0,0
				c0,0-0.2-0.2-0.1-0.1c-0.1-0.1,0,0,0-0.1c-0.4,0.3-0.8,0.6-1.2,0.9c0.4,0.2,0.8,0.3,1.2,0.5c0.4,0.2,0.8,0.1,1.1-0.3
				c0.2-0.4,0.1-0.8-0.3-1.1c-0.3-0.3-0.7-0.5-1-0.8c-0.1,0.5-0.1,1-0.2,1.4c-0.1,0-0.2,0,0,0.1c0.1,0,0.2,0.1,0.3,0.1
				c0.2,0.1,0.4,0.1,0.5,0.2c0.7,0.2,1.2-0.6,0.9-1.2c-0.4-0.6-1-1.1-1.7-1.3c-0.3-0.1-0.7,0.1-0.9,0.4c-0.2,0.3-0.1,0.7,0.1,1
				c0.3,0.2,0.6,0.4,0.9,0.5c0.1,0,0.2,0.1,0.4,0.1c0.2,0,0.1,0,0.3,0.1c0.3,0.2,0.8,0.1,1-0.2c0.2-0.3,0.2-0.7-0.1-1
				c-0.4-0.4-0.8-0.9-1.1-1.3c-0.3,0.4-0.5,0.9-0.8,1.3c0.4,0.1,0.8,0.4,1.1,0.6c0.3,0.2,0.8,0.1,1-0.2c0.2-0.3,0.2-0.7-0.1-1
				c-0.4-0.4-0.8-0.7-1.3-0.9c-0.3-0.1-0.7,0.1-0.9,0.4c-0.2,0.3-0.1,0.7,0.1,1c0.5,0.6,1.1,0.9,1.9,0.8c0.6-0.1,0.8-1,0.3-1.3
				c-0.5-0.4-1-0.8-1.6-1.2c0,0.4,0,0.7,0,1.1c0,0,0,0,0.1,0c-0.1,0.1-0.2,0.1-0.3,0.2c-0.1,0-0.2-0.1,0,0c0.1,0.1,0.2,0.1,0.3,0.1
				c0.2,0.1,0.4,0.2,0.5,0.4c0.8,0.7,1.8-0.4,1.1-1.1c-0.5-0.5-1-1-1.6-1.4c-0.2,0.5-0.4,1-0.6,1.4c0.4,0.1,0.6,0.3,1,0.5
				c0.3,0.2,0.7,0.5,1.1,0.7c0.4,0.2,0.8,0.1,1-0.2c0.2-0.3,0.3-0.8-0.1-1c-0.4-0.3-0.7-0.6-1.1-0.9c-0.2-0.1-0.4-0.3-0.5-0.4
				c-0.1-0.1-0.3-0.2-0.4-0.3c0,0.3-0.1,0.6-0.1,1c0,0,0,0,0.1,0c-0.1,0.1-0.2,0.1-0.3,0.2c-0.3-0.1-0.4-0.1-0.3,0
				c0.1,0,0.1,0.1,0.2,0.1c0.1,0.1,0.2,0.1,0.3,0.2c0.2,0.2,0.4,0.3,0.6,0.5c0.4,0.4,1.2,0.3,1.3-0.3c0.2-0.8-0.4-1.4-1-1.8
				c-0.5-0.4-1-0.9-1.6-1.2c0,0.5,0,0.9,0,1.4c0.2-0.1-0.1,0-0.1,0c0,0,0.1,0,0,0c0.1,0,0.2,0.1,0.2,0.2c0,0,0.1,0.2,0.1,0.3
				c0.1,0.2,0.1,0.2,0.2,0.4c0.1,0.4,0.4,0.6,0.9,0.6s0.6-0.4,0.7-0.8c0.1-1.1-0.5-2.2-1.4-2.7c-0.4-0.3-1,0-1.2,0.5
				c-0.2,0.6,0.2,1.1,0.5,1.5c0.3,0.4,0.6,0.8,0.9,1.3c0.2,0.3,0.7,0.5,1.1,0.3c0.4-0.2,0.5-0.7,0.3-1.1c-0.3-0.6-0.6-1.3-1-1.9
				c-0.2-0.3-0.6-0.5-1-0.3c-0.3,0.1-0.6,0.6-0.5,0.9c0.3,0.7,0.5,1.4,0.8,2.1c0.3,0.6,1,1.6,1.8,1.3c1-0.3,0.7-1.5,0.5-2.2
				c-0.2-0.7-0.6-1.4-1-2c-0.4-0.6-1.5-0.4-1.5,0.4c0,0.6,0.1,1.2,0.3,1.8c0.2,0.5,0.4,1.3,1,1.6c0.4,0.2,0.9,0.1,1.2-0.3
				c0.2-0.3,0.2-0.6,0.1-0.9c-0.1-0.7-0.2-1.3-0.3-2c-0.2-0.9-1.6-0.7-1.6,0.2c0,0.4,0.1,0.9,0.2,1.3c0.1,0.4,0.2,0.9,0.5,1.2
				c0.5,0.5,1.2,0.2,1.5-0.3c0.2-0.4,0.3-0.9,0.4-1.3c0.1-0.4-0.1-0.8-0.5-0.9c-0.3-0.1-0.8,0-1,0.3c-0.2,0.4-0.3,0.8-0.4,1.2
				c-0.1,0.3,0.1,0.7,0.4,0.9c0.3,0.2,0.7,0.1,1-0.1c0.4-0.5,1-1.1,0.7-1.8c-0.2-0.8-1.1-1-1.8-0.6c-0.6,0.4-1,1.3-0.4,1.9
				c0.3,0.3,0.7,0.3,1.1,0.3c0.3,0,0.7,0.1,1,0.1c0-0.5,0-1.1,0-1.6c-0.4,0-0.7,0-1.1,0c0.1,0.5,0.1,1,0.2,1.6
				c0.1,0,0.2-0.1,0.3-0.1c0.4,0,0.8-0.3,0.8-0.8c0-0.4-0.4-0.8-0.8-0.8c-0.2,0-0.5,0-0.7,0.1c-0.9,0.3-0.7,1.5,0.2,1.6
				c0.4,0,0.7,0,1.1,0c0.4,0,0.8-0.3,0.8-0.8c0-0.4-0.4-0.8-0.8-0.8c-0.2,0-0.5,0-0.7-0.1c-0.1,0-0.2,0-0.3,0c0,0-0.1,0-0.1,0
				c-0.1,0-0.1,0,0.1,0.1c0.1,0.1,0.1,0.2,0.2,0.3c0.1,0.2-0.1,0.4-0.2,0.3c-0.2,0-0.6-0.3-0.4-0.5c-0.1,0.1-0.2,0.4-0.3,0.5
				c0.4,0.3,0.9,0.5,1.3,0.8c0.1-0.3,0.2-0.6,0.3-0.8c-0.5-0.2-1-0.4-1.4-0.6c0,0.2-0.1,0.4-0.1,0.6c0,0.1,0,0.2-0.1,0.3
				c0,0,0,0.1,0,0.1c-0.1,0.2,0,0.1,0.1-0.1c0.2,0,0.4-0.1,0.6-0.1c0,0,0,0-0.1,0c0.1,0.1,0.2,0.1,0.3,0.2c0.1,0.1,0,0,0-0.1
				c0-0.1-0.1-0.3-0.1-0.5c0-0.3-0.1-0.5-0.1-0.8c-0.5,0.1-1,0.1-1.6,0.2c0.1,0.3,0.2,0.7,0.2,1c0,0.1,0,0.2,0.1,0.4
				c0,0.1,0,0.2,0,0.3c0,0,0,0.1,0,0.1c0,0.1,0,0.1,0.1-0.1c0.1-0.1,0.2-0.2,0.3-0.3c0,0,0,0-0.1,0c0.2,0,0.4-0.1,0.6-0.1
				c0,0,0,0-0.1,0c0.1,0.1,0.2,0.1,0.3,0.2c0,0.1,0,0.1,0,0c0,0,0-0.1-0.1-0.1c-0.1-0.1-0.1-0.2-0.1-0.3c-0.1-0.2-0.2-0.4-0.2-0.5
				c-0.1-0.4-0.2-0.8-0.2-1.2c-0.5,0.1-1,0.3-1.5,0.4c0.2,0.4,0.5,0.8,0.6,1.2c0.1,0.2,0.2,0.4,0.2,0.7c0,0.1,0.1,0.2,0.1,0.3
				c0,0,0,0.1,0,0.1c0,0.2,0,0.1,0-0.1c0.1-0.1,0.2-0.2,0.3-0.3c0,0,0,0-0.1,0c0.1,0,0.3-0.1,0.4-0.1c0,0,0,0-0.1,0
				c0.1,0,0.3,0.1,0.4,0.1c-0.1,0-0.2-0.2-0.3-0.3c-0.1-0.2-0.2-0.4-0.3-0.6c-0.2-0.5-0.3-1-0.5-1.5c-0.5,0.2-1,0.4-1.4,0.6
				c0.3,0.6,0.6,1.3,1,1.9c0.5-0.3,0.9-0.5,1.4-0.8c-0.2-0.3-0.5-0.7-0.7-1c-0.1-0.1-0.2-0.3-0.3-0.4c-0.1-0.1-0.1-0.2-0.2-0.2
				c0,0,0-0.1-0.1-0.1c-0.1-0.2-0.1-0.1,0,0.2c-0.4,0.2-0.8,0.3-1.2,0.5c0.5,0.3,0.7,0.7,0.6,1.3c0.5-0.1,1-0.1,1.6-0.2
				c-0.2-0.5-0.4-1.1-0.9-1.5c-0.5-0.4-1.3-0.7-1.9-0.3c-0.5,0.3-0.5,1,0,1.4c0.4,0.2,0.7,0.5,1,0.8c0.2,0.1,0.3,0.3,0.5,0.4
				c0.1,0.1,0.2,0.1,0.2,0.2c0.2,0.2,0,0.1,0.1-0.1c0.4-0.1,0.9-0.2,1.3-0.3c-0.4-0.3-0.7-0.6-1.1-0.9c-0.5-0.4-1.1-0.5-1.6-0.1
				c-0.3,0.2-0.3,0.7-0.1,1c0.2,0.4,0.7,0.7,1.1,1c0.4,0.3,0.8,0.6,1.2,0.9c0.3-0.4,0.6-0.8,1-1.2c-0.9-0.4-1.5-1.2-2.5-1.3
				c-0.9-0.2-1.4,0.9-0.6,1.4c0.5,0.3,0.9,0.7,1.3,1.1c0.4-0.4,0.7-0.7,1.1-1.1c-0.7-0.6-1.8-1.4-2.7-0.7c-0.3,0.3-0.3,0.9,0,1.1
				c0.5,0.4,1,0.8,1.6,1.2c0.1-0.4,0.2-0.9,0.3-1.3c0.1,0,0,0-0.1-0.1c0,0-0.2-0.2-0.3-0.3c-0.3,0.4-0.5,0.9-0.8,1.3
				c0.2,0.1,0.4,0.3,0.6,0.5c0.3-0.4,0.6-0.8,1-1.2c-0.5-0.3-1-0.6-1.5-0.8c-0.3-0.1-0.7,0.1-0.9,0.4c-0.2,0.3-0.1,0.7,0.1,1
				c0.4,0.4,0.8,0.9,1.1,1.3c0.3-0.4,0.6-0.8,1-1.2c-0.2-0.2-0.5-0.2-0.8-0.3c-0.1,0-0.2,0-0.3-0.1c0,0-0.2,0-0.1,0
				c0.1,0-0.1-0.1,0,0c-0.3,0.4-0.5,0.9-0.8,1.3c0.3,0.1,0.6,0.3,0.7,0.6c0.3-0.4,0.6-0.8,0.9-1.2c-0.5-0.2-1.1-0.5-1.6-0.3
				c-0.3,0.1-0.5,0.3-0.6,0.7c0,0.3,0.1,0.6,0.4,0.8c0.3,0.3,0.7,0.5,1,0.8c0.3-0.5,0.5-0.9,0.8-1.4c-0.4-0.2-0.8-0.3-1.2-0.5
				c-0.6-0.3-1.3,0.2-1.2,0.9c0.2,0.8,1,1.4,1.8,1.4c0.9,0,1.1-1.3,0.2-1.6c-0.3-0.1-0.6-0.3-0.9-0.5C40.8,51.3,39.7,52.4,40.4,53.1
				L40.4,53.1z"/>
		</g>
	</g>
	<g>
		<g>
			<path class="st0" d="M40.1,53.7c0.5,0.3,0.9,0.5,1.4,0.7c0.2-0.5,0.4-1,0.6-1.4c-0.1,0-0.2-0.1-0.3-0.1c0.1,0,0.1,0.1,0.2,0.1
				c-0.3-0.1-0.5-0.3-0.8-0.4c0.1,0,0.1,0.1,0.2,0.1c-0.1,0-0.1-0.1-0.2-0.2c-0.1,0-0.1-0.1-0.2-0.1c-0.1-0.1-0.2-0.1-0.3-0.1
				c-0.2,0-0.4,0-0.5,0.1c-0.1,0.1-0.2,0.2-0.3,0.3c-0.1,0.1-0.1,0.2-0.1,0.3c0,0.1,0,0.2,0,0.3c0.1,0.2,0.2,0.4,0.4,0.6
				c0.1,0.1,0.2,0.2,0.3,0.2c0.3,0.2,0.5,0.4,0.8,0.6c0.3-0.5,0.5-0.9,0.8-1.4c-0.3-0.2-0.6-0.4-0.9-0.6c-0.1-0.1-0.2-0.1-0.3-0.1
				c-0.1,0-0.2,0-0.3,0c-0.2,0.1-0.4,0.2-0.5,0.4C40,53.2,39.9,53.4,40.1,53.7c0,0,0,0,0,0.1c0.1,0.1,0.2,0.2,0.3,0.3
				c0.3,0.2,0.6,0.4,0.9,0.6c0.2,0.1,0.4,0.1,0.6,0.1c0.2-0.1,0.4-0.2,0.5-0.4c0.1-0.2,0.1-0.4,0.1-0.6c-0.1-0.2-0.2-0.4-0.4-0.5
				c-0.2-0.1-0.4-0.2-0.5-0.4c0.1,0,0.1,0.1,0.2,0.1c-0.1-0.1-0.3-0.2-0.4-0.4c0,0.1,0.1,0.1,0.1,0.2c0,0-0.1-0.1-0.1-0.1
				c0,0.1,0.1,0.1,0.1,0.2c0,0,0,0,0,0C40.9,53.1,40.5,53.3,40.1,53.7c0.5,0.3,1,0.6,1.6,0.8c0.2,0.1,0.4,0,0.6-0.1
				c0.1-0.1,0.3-0.2,0.3-0.4c0.1-0.2,0.1-0.3,0-0.5c-0.1-0.2-0.2-0.4-0.4-0.5c-0.5-0.2-1-0.5-1.4-0.7c-0.2-0.1-0.4-0.1-0.6-0.1
				c-0.2,0.1-0.4,0.2-0.5,0.4c-0.1,0.2-0.1,0.4-0.1,0.6C39.8,53.4,39.9,53.6,40.1,53.7L40.1,53.7z"/>
		</g>
	</g>
	<g>
		<path class="st1" d="M141.9,37.2c-0.2,0-0.4-0.1-0.7-0.2c-0.2-0.1-0.3-0.2-0.5-0.3c-0.1-0.1-0.3-0.2-0.4-0.4
			c-0.2-0.2-0.3-0.5-0.3-0.8c0-0.3,0.1-0.7,0.3-1c0.1-0.3,0.3-0.5,0.5-0.8c0.2-0.2,0.4-0.4,0.6-0.6c0.3-0.2,0.6-0.4,0.9-0.4
			c0.4,0,0.7,0.1,1,0.3c0.3,0.2,0.5,0.3,0.7,0.5c0.5,0.5,0.3,1,0.3,1.2c-0.1,0.2-0.2,0.4-0.4,0.5c-0.1,0-0.2,0.1-0.3,0.3
			c-0.2,0.2-0.3,0.4-0.5,0.6c-0.1,0.1-0.1,0.2-0.2,0.2c0,0,0,0,0,0c0,0.1-0.1,0.3-0.3,0.4C142.5,37.1,142.3,37.2,141.9,37.2z"/>
		<path class="st0" d="M141.1,35.8c0.1,0.1,0.2,0.2,0.3,0.2c0.1,0.1,0.2,0.1,0.3,0.1c0.1,0,0.1,0,0.1,0s0-0.1,0.1-0.1
			c0-0.1,0-0.1,0.1-0.2c0-0.1,0.1-0.2,0.2-0.3c0.2-0.2,0.4-0.4,0.5-0.6c0.2-0.2,0.3-0.3,0.4-0.4c0.1-0.1,0.1-0.1,0.2-0.2
			c0-0.1,0-0.1-0.1-0.2c-0.1-0.1-0.3-0.3-0.5-0.4c-0.2-0.1-0.4-0.2-0.6-0.2c-0.1,0-0.2,0.1-0.4,0.2c-0.2,0.1-0.3,0.3-0.5,0.4
			c-0.2,0.2-0.3,0.4-0.4,0.6c-0.1,0.2-0.2,0.4-0.2,0.6c0,0.1,0,0.1,0.1,0.2C141,35.7,141,35.8,141.1,35.8z"/>
		<path class="st1" d="M156.7,49c-0.4,0-0.7-0.1-1.1-0.2c-0.3-0.1-0.5-0.3-0.7-0.5c-0.5,0.4-0.9,0.6-1.3,0.6c-0.4,0-0.7-0.1-1.1-0.2
			c-0.3-0.1-0.6-0.3-0.8-0.5c-0.2-0.2-0.4-0.4-0.6-0.7c-0.2-0.3-0.3-0.6-0.3-0.9c0-0.3,0-0.6,0.1-1c-0.2,0.2-0.4,0.5-0.6,0.7
			c-0.1,0.2-0.2,0.4-0.2,0.6c-0.1,0.2-0.2,0.4-0.2,0.7c0,0.2-0.1,0.3-0.1,0.5c-0.2,0.5-0.6,0.8-1.1,0.8c-0.3,0-0.5-0.1-0.8-0.2
			c-0.2-0.1-0.4-0.3-0.6-0.4c-0.1-0.1-0.2-0.2-0.3-0.3c-0.2,0.1-0.3,0.2-0.5,0.3c-0.7,0.4-1.5,0.6-2.4,0.6c-0.5,0-0.9-0.1-1.3-0.3
			c-0.4-0.2-0.7-0.4-1-0.7c-0.1-0.1-0.2-0.2-0.3-0.3c-0.2,0.2-0.4,0.4-0.6,0.6c-0.6,0.5-1,0.8-1.5,0.8c-0.4,0-0.7-0.1-1.1-0.2
			c-0.3-0.1-0.6-0.3-0.8-0.5c-0.1-0.1-0.1-0.1-0.2-0.2c-0.1,0.1-0.1,0.1-0.2,0.2c-0.6,0.5-1,0.8-1.5,0.8c-0.4,0-0.7-0.1-1.1-0.2
			c-0.3-0.1-0.6-0.3-0.8-0.5c-0.2-0.2-0.4-0.4-0.6-0.7c-0.2-0.3-0.3-0.6-0.3-0.9c0-0.4,0.1-0.9,0.3-1.5c0.2-0.5,0.4-1.1,0.7-1.7
			c0.3-0.6,0.6-1.1,0.9-1.7c0.3-0.6,0.7-1.1,1-1.6c0.4-0.5,0.7-0.9,1-1.2c0.2-0.2,0.4-0.4,0.7-0.5c0-0.1,0-0.3-0.1-0.4
			c0-0.3,0.1-0.6,0.2-0.9c0.2-0.4,0.7-0.6,1-0.7c0.3-0.1,0.7-0.2,1.2-0.2c0.4-0.1,0.9-0.1,1.5-0.2c0.4,0,0.8-0.1,1.3-0.1
			c0.2-0.2,0.4-0.5,0.6-0.6c0.3-0.2,0.7-0.5,1.1-0.5c0.4,0,0.8,0.1,1.2,0.4c0.3,0.2,0.5,0.4,0.7,0.5c0.1,0.1,0.2,0.2,0.2,0.3
			c0.2,0,0.4,0,0.6,0.1c0.5,0.1,0.9,0.2,1.2,0.3l0,0l0,0c0.2,0.2,0.4,0.4,0.5,0.6c0.1,0.2,0.2,0.4,0.2,0.6c0,0.2,0.1,0.4,0.1,0.6
			c0,0.3-0.1,0.5-0.2,0.7l0,0c0,0-0.1,0.1-0.1,0.1c0.1,0.1,0.3,0.2,0.4,0.4c0.1,0.1,0.3,0.3,0.4,0.5c0.3-0.4,0.5-0.8,0.8-1
			c0.3-0.3,0.6-0.5,0.8-0.6c0.2-0.1,0.5-0.1,0.7-0.1c0.4,0,0.8,0.1,1.2,0.3c0.3,0.1,0.5,0.3,0.7,0.4c0.2-0.2,0.5-0.3,0.7-0.4
			c0.4-0.2,0.8-0.3,1.2-0.3c0.4,0,0.8,0,1.1,0.1c0.4,0.1,0.8,0.4,1.2,0.7l0,0l0,0c0.3-0.2,0.5-0.5,0.8-0.7c0.5-0.3,1-0.5,1.5-0.5
			c0.3,0,0.6,0.1,0.9,0.2c0.3,0.1,0.5,0.3,0.7,0.4c0.2,0.2,0.5,0.4,0.6,0.6c0.3,0.3,0.4,0.6,0.4,1c0,0.3-0.1,0.7-0.2,1.1
			c-0.2,0.5-0.4,0.9-0.8,1.5l0,0c-0.2,0.3-0.5,0.5-0.9,0.6c-0.2,0.1-0.5,0.1-1,0.1c-0.1,0-0.2,0-0.3,0c0,0.1,0.1,0.3,0.1,0.4
			c0.1,0.3,0.2,0.5,0.2,0.8c0.1,0.3,0.1,0.7,0.1,1c0,0.5-0.1,0.9-0.4,1.4c-0.2,0.4-0.5,0.7-0.9,1c-0.3,0.3-0.7,0.5-1.1,0.6
			C157.6,48.9,157.2,49,156.7,49z M145,45.5C145,45.6,145,45.6,145,45.5c0.1,0.1,0.2,0,0.2,0C145.2,45.5,145.1,45.5,145,45.5z
			 M140.2,39.2C140.2,39.2,140.3,39.2,140.2,39.2C140.2,39.2,140.2,39.2,140.2,39.2C140.2,39.2,140.2,39.2,140.2,39.2z M144.7,39.2
			C144.7,39.2,144.8,39.1,144.7,39.2C144.8,39.1,144.8,39.1,144.7,39.2C144.7,39.1,144.7,39.2,144.7,39.2z"/>
		<path class="st0" d="M162.1,39.9c-0.1-0.2-0.3-0.3-0.5-0.4c-0.2-0.1-0.4-0.3-0.6-0.4c-0.2-0.1-0.4-0.1-0.5-0.1
			c-0.3,0-0.7,0.1-1,0.4c-0.4,0.2-0.7,0.5-1,0.9c-0.3,0.4-0.6,0.7-0.8,1.1c-0.2,0.4-0.4,0.8-0.4,1.1l0,0c-0.3,0.4-0.6,0.8-0.9,1.3
			c-0.3,0.5-0.6,0.9-0.9,1.3c-0.3,0.4-0.6,0.7-0.9,1c-0.3,0.3-0.5,0.4-0.7,0.5c-0.1-0.1-0.1-0.3,0-0.6c0.1-0.3,0.2-0.6,0.4-1
			c0.2-0.4,0.4-0.8,0.7-1.3c0.3-0.5,0.6-0.9,0.8-1.3c0.3-0.4,0.6-0.8,0.9-1.2c0.3-0.4,0.6-0.7,0.8-0.9c0.1-0.1,0.2-0.1,0.2-0.2
			c0-0.1,0-0.1-0.1-0.2c-0.3-0.3-0.5-0.4-0.8-0.5c-0.3-0.1-0.6-0.1-0.9-0.1c-0.2,0-0.5,0.1-0.8,0.2c-0.3,0.2-0.6,0.4-1,0.6
			c-0.3,0.3-0.7,0.6-1.1,0.9c-0.4,0.3-0.7,0.7-1.1,1.1c0.5-0.8,1-1.3,1.5-1.7c0.1-0.1,0.2-0.2,0.2-0.2c0-0.1,0-0.1-0.1-0.2
			c-0.1-0.1-0.3-0.3-0.6-0.4c-0.3-0.1-0.6-0.2-0.8-0.2c-0.1,0-0.3,0-0.4,0.1c-0.1,0-0.3,0.2-0.5,0.4c-0.2,0.2-0.4,0.5-0.7,1
			c-0.3,0.4-0.7,1-1.1,1.8l0,0c-0.3,0.4-0.6,0.9-1,1.3c-0.3,0.5-0.7,0.9-1.1,1.3c-0.4,0.4-0.8,0.7-1.2,1c-0.4,0.3-0.8,0.4-1.3,0.4
			c-0.3,0-0.5-0.1-0.6-0.3c-0.1-0.2-0.1-0.4-0.1-0.6c0-0.2,0-0.5,0.1-0.7c0.1-0.2,0.1-0.4,0.2-0.6c0.1,0.1,0.3,0.2,0.4,0.2
			c0.1,0.1,0.3,0.1,0.5,0.1c0.2,0,0.4-0.1,0.7-0.2c0.3-0.1,0.5-0.3,0.8-0.6s0.5-0.5,0.8-0.8c0.3-0.3,0.5-0.6,0.7-0.9
			c0.2-0.3,0.4-0.6,0.5-0.9c0.1-0.3,0.2-0.5,0.2-0.7c0-0.1-0.1-0.2-0.2-0.4c-0.1-0.2-0.3-0.3-0.5-0.4c-0.2-0.1-0.4-0.3-0.7-0.4
			c-0.2-0.1-0.4-0.2-0.6-0.2c-0.3,0-0.6,0.1-0.9,0.3c-0.3,0.2-0.7,0.4-1,0.7c-0.3,0.3-0.7,0.6-1,1c-0.3,0.4-0.6,0.8-0.9,1.3l0,0
			c-0.3,0.4-0.6,0.8-0.9,1.3c-0.3,0.5-0.6,0.9-0.9,1.3c-0.3,0.4-0.6,0.7-0.9,1c-0.3,0.3-0.5,0.4-0.7,0.5c0-0.1-0.1-0.2-0.1-0.2
			c0-0.2,0.1-0.5,0.2-0.8c0.2-0.4,0.4-0.8,0.6-1.2c0.2-0.5,0.5-0.9,0.9-1.5c0.3-0.5,0.7-1.1,1-1.6c0.4-0.5,0.7-1.1,1.1-1.6
			c0.4-0.5,0.7-1,1.1-1.4c0.7,0,1.4,0.1,2,0.1c0.6,0.1,1.1,0.2,1.5,0.3c0.1,0,0.2,0,0.3,0.1c0.1,0,0.2,0,0.2-0.1
			c0-0.1,0.1-0.2,0.1-0.3c0-0.1,0-0.3,0-0.4c0-0.1-0.1-0.3-0.1-0.4c-0.1-0.1-0.1-0.2-0.3-0.3c-0.2-0.1-0.4-0.2-0.9-0.2
			c-0.4-0.1-0.9-0.1-1.5-0.1c0,0,0,0,0,0c0,0,0,0,0,0c0,0,0.1-0.1,0.1-0.1c0,0,0.1-0.1,0.1-0.1c0-0.1,0-0.1-0.1-0.2
			c-0.1-0.1-0.3-0.3-0.5-0.4c-0.2-0.1-0.5-0.2-0.8-0.2c-0.1,0-0.3,0.1-0.5,0.3s-0.5,0.5-0.8,0.8c-0.5,0-1.1,0.1-1.6,0.1
			c-0.5,0-1,0.1-1.4,0.1s-0.8,0.1-1,0.2c-0.3,0.1-0.4,0.2-0.5,0.3c-0.1,0.2-0.1,0.3-0.1,0.5c0,0.1,0,0.3,0.1,0.4
			c0,0.1,0.1,0.1,0.1,0.2s0.1,0,0.2,0c0.3-0.1,0.7-0.2,1.3-0.2c0.6-0.1,1.3-0.1,2-0.1c-0.5,0.6-0.9,1.3-1.4,2.1
			c-0.5,0.7-0.9,1.5-1.3,2.2l0,0c-0.3,0.4-0.6,0.8-0.9,1.3c-0.3,0.5-0.6,0.9-0.9,1.3c-0.3,0.4-0.6,0.7-0.9,1
			c-0.3,0.3-0.5,0.4-0.7,0.5c-0.1-0.1-0.1-0.3,0-0.6c0.1-0.3,0.2-0.6,0.4-1c0.2-0.4,0.4-0.8,0.7-1.3c0.3-0.5,0.5-0.9,0.8-1.3
			c0.3-0.4,0.6-0.8,0.9-1.2c0.3-0.4,0.6-0.7,0.8-0.9c0.1-0.1,0.2-0.1,0.2-0.2s0-0.1-0.1-0.2c-0.2-0.2-0.4-0.3-0.6-0.4
			c-0.2-0.1-0.5-0.2-0.7-0.2c-0.2,0-0.4,0.1-0.7,0.4c-0.3,0.3-0.6,0.6-0.9,1.1c-0.3,0.4-0.7,0.9-1,1.5c-0.3,0.5-0.6,1.1-0.9,1.6
			c-0.3,0.5-0.5,1.1-0.6,1.5c-0.2,0.5-0.2,0.9-0.2,1.2c0,0.1,0,0.3,0.1,0.4c0.1,0.2,0.2,0.3,0.4,0.5c0.2,0.1,0.4,0.3,0.6,0.4
			c0.2,0.1,0.5,0.2,0.7,0.2c0.2,0,0.5-0.2,0.9-0.5c0.3-0.3,0.6-0.6,1-1c0,0.1,0,0.1,0,0.2c0,0.1,0.1,0.3,0.2,0.4
			c0.1,0.2,0.2,0.3,0.4,0.5c0.2,0.1,0.4,0.3,0.6,0.4c0.2,0.1,0.5,0.1,0.7,0.1c0.2,0,0.5-0.2,0.9-0.5c0.4-0.3,0.8-0.8,1.2-1.3
			c0.1-0.1,0.2-0.2,0.3-0.4c0,0,0,0.1,0,0.1c0,0.2,0.1,0.4,0.2,0.7c0.1,0.2,0.3,0.5,0.5,0.7c0.2,0.2,0.4,0.4,0.7,0.5
			c0.3,0.1,0.6,0.2,0.9,0.2c0.7,0,1.3-0.2,1.9-0.5c0.5-0.3,0.9-0.6,1.3-1c0,0.1,0,0.1,0,0.2c0,0.2,0,0.3,0.1,0.5
			c0.1,0.2,0.2,0.3,0.4,0.4c0.1,0.1,0.3,0.2,0.4,0.3c0.2,0.1,0.3,0.1,0.4,0.1c0.1,0,0.2-0.1,0.3-0.2c0-0.1,0.1-0.2,0.1-0.4
			c0.1-0.2,0.2-0.5,0.2-0.7c0.1-0.3,0.2-0.5,0.3-0.8c0.6-0.8,1.3-1.5,2-2.3s1.5-1.4,2.2-2c-0.3,0.4-0.5,0.9-0.8,1.4
			c-0.3,0.5-0.5,0.9-0.7,1.4c-0.2,0.4-0.4,0.9-0.5,1.3c-0.1,0.4-0.2,0.7-0.2,1c0,0.1,0,0.3,0.1,0.4c0.1,0.2,0.2,0.3,0.4,0.5
			c0.2,0.1,0.4,0.3,0.6,0.4s0.5,0.1,0.7,0.1c0.2,0,0.5-0.2,0.9-0.5c0.2-0.2,0.4-0.3,0.5-0.5c0,0,0,0,0,0.1c0.1,0.2,0.2,0.4,0.4,0.6
			c0.2,0.2,0.3,0.3,0.6,0.4s0.4,0.2,0.7,0.2c0.3,0,0.6-0.1,1-0.2c0.3-0.1,0.6-0.3,0.9-0.5c0.3-0.2,0.5-0.5,0.7-0.7
			c0.2-0.3,0.3-0.6,0.3-0.9c0-0.3,0-0.5-0.1-0.8c-0.1-0.3-0.1-0.5-0.2-0.7c-0.1-0.2-0.1-0.5-0.2-0.7c-0.1-0.2-0.1-0.4-0.1-0.6
			c0-0.2,0.1-0.5,0.2-0.8c0.1-0.3,0.3-0.5,0.5-0.8c0.2-0.2,0.4-0.4,0.7-0.6c0.3-0.2,0.5-0.3,0.7-0.4c0,0.1,0,0.2,0,0.4
			c-0.1,0.1-0.1,0.3-0.2,0.5c-0.1,0.2-0.2,0.3-0.4,0.5c-0.2,0.2-0.3,0.4-0.5,0.5c-0.1,0.1-0.1,0.1-0.1,0.2c0,0.1,0.1,0.1,0.1,0.2
			s0.1,0.1,0.2,0.1c0.1,0,0.1,0,0.2,0c0.4,0,0.6,0,0.7-0.1c0.1,0,0.3-0.1,0.4-0.3c0.3-0.5,0.6-0.9,0.7-1.2c0.1-0.4,0.2-0.6,0.2-0.9
			C162.3,40.2,162.2,40,162.1,39.9z M145.4,42.5c0.2-0.3,0.4-0.5,0.6-0.8c0.2-0.2,0.5-0.5,0.7-0.7c0.3-0.2,0.5-0.3,0.8-0.4
			c0,0,0,0.1,0,0.2c0,0.1-0.1,0.4-0.2,0.6c-0.2,0.3-0.4,0.6-0.6,0.9c-0.2,0.3-0.5,0.5-0.7,0.8c-0.3,0.2-0.5,0.3-0.7,0.3
			c-0.1,0-0.1,0-0.2,0c-0.1,0-0.1-0.1-0.2-0.1C145.1,43,145.2,42.7,145.4,42.5z M157.5,46c-0.1,0.1-0.2,0.2-0.3,0.3
			c-0.1,0.1-0.2,0.1-0.4,0.2c-0.1,0-0.3,0.1-0.4,0.1c-0.2,0-0.4,0-0.6-0.1c-0.1,0-0.2-0.1-0.3-0.1c0.1-0.1,0.1-0.1,0.2-0.2
			c0.4-0.5,0.9-1.1,1.3-1.8c0.1-0.1,0.2-0.2,0.3-0.4c0,0.1,0,0.2,0.1,0.3c0.1,0.2,0.1,0.5,0.1,0.7c0,0.2,0.1,0.4,0.1,0.6
			C157.6,45.7,157.6,45.9,157.5,46z"/>
	</g>
</g>
</svg>
