<?xml version="1.0" encoding="utf-8"?>
<!-- Generator: Adobe Illustrator 26.5.0, SVG Export Plug-In . SVG Version: 6.00 Build 0)  -->
<svg version="1.1" id="Camada_1" xmlns="http://www.w3.org/2000/svg" xmlns:xlink="http://www.w3.org/1999/xlink" x="0px" y="0px"
	 viewBox="0 0 820 312" style="enable-background:new 0 0 820 312;" xml:space="preserve">
<style type="text/css">
	.st0{fill:#FFFFFF;}
	.st1{fill:#FF7F00;}
</style>
<g>
	<path class="st0" d="M333.96,209.59c-2.2,0-4.23-0.95-5.57-2.62c-1.18-1.48-1.73-3.07-1.66-4.73c0.07-1.67,0.67-3.33,1.9-5.24
		c0.66-1.04,1.44-2.17,2.3-3.35c0.88-1.21,1.86-2.43,2.91-3.63c1.08-1.24,2.03-2.23,2.9-3.02c1.66-1.54,4.24-2.69,13.23-4.59
		c1.63-0.35,3.38-0.69,5.24-1.05l-1.29-0.66l19.66-2.41l0.07,0c0.22-0.02,0.45-0.06,0.73-0.11l0.2-0.04l0.2-0.02
		c2.88-0.34,5.95-0.76,9.12-1.24l0.31-0.04c3.5-0.45,6.81-0.87,10.13-1.46l0.13-0.02l0.13-0.02c8.28-1.09,16.53-2.13,24.52-3.1
		c8.85-1.07,17.63-2.05,26.08-2.9c5.96-0.6,11.58-1.12,16.7-1.55c5.18-0.43,9.94-0.78,14.16-1.02c4.24-0.25,7.89-0.38,10.85-0.4
		l0.64,0c3.01,0,5.12,0.15,6.62,0.47c3.8,0.78,6.62,3.13,7.95,6.63c0.88,2.33,1.27,4.73,1.17,7.15c-0.03,0.61-0.11,1.32-0.26,2.24
		c-0.2,1.16-0.54,2.27-1,3.32c-0.58,1.3-1.4,2.49-2.46,3.53c-1.5,1.47-3.44,2.35-5.61,2.57c-0.29,0.03-0.61,0.05-0.93,0.05
		c-0.56,0-1.16-0.04-1.83-0.14c-0.22-0.03-0.79-0.09-2.03-0.16c-0.72-0.03-1.53-0.04-2.42-0.04c-2.06,0-4.55,0.07-7.42,0.21
		c-4.24,0.21-9.22,0.53-14.81,0.96c-5.76,0.44-11.89,0.95-18.25,1.5c-6.46,0.56-13.3,1.21-20.33,1.92
		c-9.52,0.96-19.09,2.02-28.43,3.14c-9.4,1.13-18.28,2.25-26.38,3.33c-8.02,1.07-15.08,2.12-20.99,3.12
		c-6.9,1.16-10.21,1.97-11.78,2.46c-1.46,0.53-2.56,0.82-3.57,0.92C334.5,209.58,334.23,209.59,333.96,209.59z"/>
	<path class="st0" d="M445.85,111.06c-0.38-0.76-0.83-1.56-1.32-2.37c-0.53-0.87-1.12-1.74-1.74-2.56
		c-0.69-0.91-1.33-1.65-1.95-2.24c-1.61-1.58-3.75-2.18-7.16-2.46l0.03-0.03c-0.01,0-0.02,0-0.02,0c-5.72,0-11.41-0.05-17.13,0
		l-0.34,0.04c-0.03,0-0.06,0-0.12,0c0,0-0.26,0-0.26,0l-0.25,0.02c-1.68,0.13-3.48,0.24-5.33,0.31l-0.08,0l-0.18,0.01
		c-2.05,0.14-3.99,0.27-5.88,0.29l-0.17,0l-0.17,0.01c-4.96,0.31-9.91,0.66-14.71,1.03c-5.33,0.41-10.61,0.87-15.7,1.39
		c-3.59,0.36-6.99,0.74-10.08,1.12c-3.14,0.38-6.04,0.78-8.6,1.17c-2.61,0.4-4.87,0.8-6.72,1.2c-2.13,0.46-3.6,0.89-4.74,1.4
		c-1.91,0.78-4.04,2.15-6.51,4.18c-1.75,1.44-3.62,3.15-5.6,5.1c-0.41-0.77-1-1.57-1.85-2.34c-0.76-0.69-1.64-1.32-2.61-1.89
		c-0.99-0.57-2.06-1.04-3.19-1.39c-1.1-0.34-2.18-0.52-3.2-0.52c-0.44,0-0.87,0.03-1.29,0.09c-2.64,0.39-5.37,1.89-8.83,4.84
		c-2.63,2.25-5.63,5.2-8.9,8.76c-3.19,3.47-6.63,7.45-10.22,11.83c-3.58,4.36-7.17,8.94-10.69,13.62c-3.5,4.66-6.91,9.37-10.13,14
		c-3.23,4.65-6.14,9.02-8.63,13c-2.55,4.08-4.62,7.71-6.14,10.8c-1.93,3.92-2.79,6.71-2.79,9.05c0,2.15,0.67,4.24,1.93,6.04
		c0.98,1.4,2.2,2.59,3.63,3.53c1.24,0.82,2.56,1.47,3.94,1.92c1.24,0.41,2.46,0.61,3.64,0.61c0.49,0,0.98-0.04,1.46-0.11
		c2.84-0.42,5.16-2.28,6.21-4.97c0.35-0.91,0.63-1.84,0.83-2.78c0.26-0.92,0.86-2.55,2.19-5.32c1.24-2.57,2.78-5.51,4.6-8.72
		c0.37-0.65,0.74-1.31,1.13-1.98c-0.07,0.67-0.11,1.29-0.11,1.86c0,2.12,0.64,4.18,1.84,5.93c0.93,1.36,2.09,2.53,3.47,3.49
		c1.29,0.9,2.7,1.58,4.18,2.02c1.16,0.34,2.31,0.52,3.42,0.52c0.51,0,1.02-0.04,1.51-0.11c2.8-0.41,5.11-2.22,6.18-4.84
		c0.36-0.89,0.65-1.79,0.85-2.68c0.23-0.8,0.55-1.71,0.95-2.7c-0.01,0.27-0.01,0.53-0.01,0.78c0,2.27,0.43,4.28,1.29,5.97
		c0.95,1.88,2.38,3.41,4.13,4.41c1.46,0.84,3.09,1.36,4.86,1.55c0.57,0.06,1.16,0.09,1.74,0.09c0.88,0,1.78-0.07,2.68-0.2
		c1.42-0.21,2.48-0.43,3.34-0.7c1.71-0.53,3.02-1.37,4.01-2.58c1.32-1.63,1.85-3.71,1.48-5.87c-0.03-0.18-0.08-0.5-0.14-1.04
		l-0.03-0.23l-0.04-0.23c-0.1-0.55-0.25-2.22,0.57-5.82c0.74-3.23,1.84-6.9,3.28-10.9c1.48-4.12,3.24-8.5,5.21-13.02
		c2-4.59,4.06-9.12,6.13-13.48c2.08-4.36,4.1-8.46,6.03-12.18c1.45-2.8,2.77-5.29,3.94-7.44c0.39-0.07,0.8-0.14,1.23-0.21
		c2.51-0.41,5.48-0.84,8.81-1.28c3.45-0.45,7.13-0.9,10.92-1.35c3.86-0.46,7.95-0.9,12.14-1.33c5.69-0.57,11.39-1.09,16.96-1.52
		c5.6-0.44,10.89-0.81,15.73-1.1c4.75-0.29,8.92-0.47,12.4-0.53c0.72-0.01,1.39-0.02,2.01-0.02c2.59,0,3.8,0.12,4.29,0.19
		c0.84,0.19,1.59,0.28,2.28,0.28c0.26,0,0.53-0.01,0.78-0.04c2.13-0.22,4.02-1.38,5.18-3.2c0.76-1.19,1.16-2.38,1.21-3.64
		C447.03,114.15,446.66,112.64,445.85,111.06z"/>
	<path class="st0" d="M335.89,190.35c-1.23,0-2.45-0.16-3.62-0.48c-1.61-0.44-3.08-1.08-4.38-1.9c-1.46-0.93-2.67-2.04-3.58-3.33
		c-1.21-1.7-1.82-3.49-1.82-5.33c0-1.52,0.26-3.21,0.78-5.17c0.45-1.66,1.07-3.46,1.84-5.38c0.75-1.85,1.61-3.77,2.57-5.72
		c0.93-1.89,1.92-3.81,2.93-5.7l0.04-0.08c1.22-2.2,2.52-4.35,3.85-6.39c1.36-2.09,2.71-3.98,4-5.6c1.38-1.74,2.65-3.15,3.9-4.32
		c1.95-1.82,3.86-2.85,5.83-3.14c0.56-0.08,1.13-0.12,1.69-0.12c1.53,0,3.08,0.3,4.59,0.9c1.4,0.55,2.66,1.21,3.75,1.95
		c0.45-0.51,0.89-0.98,1.32-1.43c1.44-1.48,3.7-3.5,6.61-3.92c0.58-0.09,1.18-0.13,1.76-0.13c1.55,0,3.1,0.3,4.61,0.89
		c1.04,0.41,1.99,0.87,2.86,1.38c0.22-0.34,0.45-0.68,0.67-1.02c0.65-0.98,1.31-1.97,1.98-2.96c0.13-1.26,0.53-2.54,1.23-3.89
		c0.96-1.9,2.64-3.04,4.22-3.82c0.68-0.91,1.33-1.75,1.94-2.5c1.51-1.88,2.86-3.36,4.12-4.54c1.37-1.29,3.25-2.8,5.63-3.15
		c0.64-0.09,1.27-0.14,1.9-0.14c1.72,0,3.38,0.35,4.94,1.04c1.07,0.47,1.99,0.96,2.79,1.47c0.12-0.12,0.23-0.24,0.35-0.35
		c1.4-1.4,3.33-3.04,5.87-3.42c0.63-0.09,1.26-0.14,1.88-0.14c1.72,0,3.39,0.35,4.95,1.05c1.58,0.71,2.84,1.44,3.84,2.25
		c0.25,0.2,0.47,0.4,0.68,0.61c0.59-0.02,1.16-0.04,1.7-0.05c0.14,0,0.28,0,0.42,0c2.57,0,4.38,0.26,5.86,0.84l0.22,0.09l0.21,0.1
		c1.53,0.74,2.81,1.93,3.71,3.42c0.43,0.72,0.79,1.49,1.05,2.3c1.22-0.55,2.44-0.92,3.65-1.09c0.47-0.07,0.97-0.1,1.46-0.1
		c1.16,0,2.39,0.19,3.68,0.57c1.38,0.41,2.72,0.96,3.98,1.64c1.38,0.74,2.59,1.6,3.59,2.57c2.28,2.2,2.75,4.43,2.75,5.91
		c0,1.64-0.38,3.5-1.19,5.87c-0.77,2.25-2.09,4.68-4.04,7.43l-0.08,0.11c-1.26,1.7-2.77,2.91-4.48,3.61
		c-1.18,0.48-2.7,0.84-4.91,1.17c-0.01,0-0.02,0-0.03,0c0.34,1,0.66,2.03,0.96,3.09c0.45,1.62,0.67,3.28,0.67,4.95
		c0,2.51-0.67,4.94-2,7.25c-1.12,1.94-2.57,3.71-4.32,5.25c-1.65,1.46-3.5,2.7-5.5,3.69c-2.1,1.05-4.24,1.74-6.35,2.05
		c-0.69,0.1-1.38,0.15-2.05,0.15c-1.32,0-2.62-0.2-3.86-0.58c-0.98-0.3-1.9-0.7-2.75-1.19c-2.06,1.75-3.91,2.69-5.84,2.97
		c-0.69,0.1-1.39,0.15-2.07,0.15c-1.3,0-2.59-0.19-3.82-0.55c-1.61-0.48-3.08-1.16-4.37-2.02c-0.01-0.01-0.02-0.01-0.03-0.02
		c-0.48,0.54-0.96,1.04-1.42,1.52c-2.76,2.86-5.1,4.3-7.58,4.66c-0.71,0.1-1.43,0.16-2.13,0.16c-1.22,0-2.43-0.16-3.6-0.47
		c-1.48-0.4-2.84-0.96-4.03-1.69c-2.28,2.06-4.29,3.14-6.39,3.45c-0.69,0.1-1.39,0.15-2.07,0.15c-1.3,0-2.59-0.19-3.82-0.55
		c-1.41-0.42-2.71-0.99-3.87-1.7c-0.01,0.01-0.01,0.01-0.02,0.02c-2.8,2.84-5.15,4.27-7.61,4.63c-0.71,0.1-1.43,0.16-2.14,0.16
		c-1.23,0-2.45-0.16-3.62-0.48c-1.47-0.4-2.84-0.98-4.07-1.72c-0.34,0.32-0.67,0.62-1,0.91c-2.51,2.2-4.87,3.43-7.21,3.77
		C337.31,190.29,336.59,190.35,335.89,190.35z"/>
	<path class="st0" d="M445.43,174.31c-1.28,0-2.56-0.18-3.78-0.54c-1.68-0.49-3.2-1.22-4.51-2.15c-1.31-0.94-2.4-2.04-3.27-3.27
		c-1.2-1.71-1.82-3.52-1.82-5.38c0-1.42,0.26-3.04,0.78-4.94c0.42-1.53,1.01-3.28,1.75-5.2c0.73-1.9,1.62-3.95,2.64-6.1
		c0.98-2.07,2.06-4.26,3.21-6.53l0.03-0.07c1.64-3.13,3.38-6.31,5.21-9.5c-0.77,0.34-1.77,0.66-2.96,0.66c-0.4,0-0.8-0.04-1.19-0.11
		c-0.9-0.17-4.02-1.04-5.08-5c-0.28-0.99-0.44-2.03-0.49-3.09c-0.07-1.65,0.32-3.32,1.19-5.12c1.14-2.37,3.36-3.61,5.18-4.42
		c1.53-0.68,3.34-1.32,5.53-1.96c2-0.58,4.28-1.16,6.78-1.72c1.73-0.39,3.51-0.77,5.33-1.13c0.96-1.19,1.83-2.2,2.65-3.06
		c1.4-1.47,3.34-3.21,5.94-3.59c0.6-0.09,1.21-0.13,1.81-0.13c1.79,0,3.52,0.4,5.14,1.18c1.56,0.76,2.8,1.54,3.8,2.4
		c0.23,0.2,0.44,0.4,0.63,0.6c0.54-0.02,1.05-0.03,1.55-0.03h0.07c2.77,0,4.7,0.3,6.25,0.96l0.22,0.09l0.21,0.11
		c1.5,0.79,2.75,2.01,3.61,3.54c0.6,1.07,1.03,2.22,1.29,3.43c0.24,1.13,0.34,2.26,0.29,3.36c-0.07,1.42-0.39,2.72-0.95,3.86
		c0.77,0.49,1.48,1.03,2.12,1.61c0.77,0.69,1.37,1.4,1.82,2.1c0.01-0.02,0.02-0.04,0.04-0.05c1.21-1.83,2.17-3.27,2.87-4.34
		c0.02-2.07,0.62-4.21,1.85-6.54c0.94-1.78,2.09-3.53,3.42-5.19c1.34-1.68,2.77-3.15,4.23-4.4c2.08-1.76,4.05-2.75,6.02-3.04
		c0.56-0.08,1.13-0.12,1.69-0.12c1.53,0,3.08,0.3,4.59,0.9c1.56,0.62,2.95,1.36,4.13,2.21l0.11,0.08l0.1,0.08
		c3.24,2.58,3.38,6.15,2.08,8.55c-0.06,0.11-0.13,0.23-0.2,0.34c1.28,0.56,2.43,1.2,3.42,1.92l0.27,0.2l0.25,0.23
		c1.72-1.6,3.47-2.97,5.18-4.07c2.31-1.48,4.51-2.36,6.7-2.68c0.55-0.08,1.11-0.12,1.68-0.12c1.2,0,2.47,0.18,3.76,0.54
		c1.46,0.4,2.87,0.94,4.17,1.59c1.42,0.71,2.66,1.52,3.7,2.43c1.77,1.54,2.77,3.28,3,5.17c0.35,0.05,0.71,0.13,1.08,0.23
		c0.89,0.24,1.72,0.56,2.5,0.97c1.53,0.81,2.72,2.02,3.44,3.5c1.08,2.21,0.93,4.79-0.42,6.9c-1.79,2.81-3.78,5.88-5.89,9.09
		c-2.24,3.41-4.71,6.62-7.34,9.56c-2.74,3.07-5.74,5.74-8.91,7.96c-3.56,2.49-7.48,4.06-11.64,4.67c-0.83,0.12-1.66,0.18-2.47,0.18
		h0c-1.64,0-3.22-0.25-4.72-0.75c-2.03-0.68-3.84-1.67-5.37-2.95c-0.68,0.76-1.35,1.48-2,2.14c-2.8,2.84-5.15,4.27-7.61,4.63
		c-0.71,0.1-1.43,0.16-2.14,0.16c-1.23,0-2.45-0.16-3.62-0.48c-1.62-0.44-3.11-1.1-4.45-1.95c-0.48-0.31-0.94-0.64-1.36-0.98
		c-0.22,1.1-0.66,2.12-1.32,3.01c-0.79,1.08-2.35,2.48-5.15,2.89c-0.54,0.08-1.11,0.12-1.69,0.12c-0.69,0-1.42-0.06-2.17-0.17
		c-1.39-0.22-2.74-0.65-4.01-1.29c-1.19-0.6-2.24-1.39-3.14-2.35c-0.94,0.89-1.94,1.74-2.98,2.54c-1.4,1.07-2.88,2.02-4.42,2.82
		c-1.83,0.96-3.74,1.58-5.66,1.87c-0.6,0.09-1.22,0.13-1.83,0.13c-1.25,0-2.52-0.18-3.79-0.55c-1.75-0.5-3.36-1.28-4.78-2.33
		c-0.36-0.27-0.71-0.55-1.05-0.84c-0.52,0.61-1.02,1.18-1.52,1.72c-2.75,3-5.1,4.51-7.63,4.88
		C446.79,174.26,446.1,174.31,445.43,174.31z"/>
	<g>
		<g>
			<path class="st1" d="M492.92,172.73c-1.13-0.25-3.13-0.36-5.99-0.34c-2.86,0.02-6.37,0.15-10.55,0.39
				c-4.17,0.24-8.84,0.58-14,1.01c-5.16,0.43-10.69,0.94-16.59,1.54c-8.36,0.84-17.01,1.8-25.96,2.89
				c-8.34,1.01-16.48,2.04-24.46,3.09c-3.52,0.62-7.05,1.07-10.59,1.53c-3.23,0.49-6.39,0.92-9.31,1.27
				c-0.42,0.08-0.85,0.15-1.32,0.19c-0.01,0-0.02,0-0.03,0c0.01,0,0.02,0.01,0.02,0.01c-9.2,1.38-16.85,2.71-22.94,4
				c-6.1,1.29-9.57,2.33-10.42,3.14c-0.68,0.61-1.49,1.45-2.43,2.54c-0.94,1.08-1.8,2.16-2.58,3.22c-0.78,1.07-1.48,2.08-2.09,3.04
				c-0.61,0.96-0.93,1.71-0.95,2.25c-0.01,0.18,0.1,0.41,0.34,0.71c0.23,0.29,0.59,0.41,1.09,0.36c0.49-0.05,1.24-0.26,2.23-0.63
				c2.48-0.79,6.72-1.69,12.72-2.7c6-1.01,13.07-2.06,21.19-3.15c8.13-1.09,16.95-2.2,26.47-3.34c9.51-1.14,19.03-2.19,28.54-3.15
				c7.05-0.71,13.85-1.35,20.41-1.92c6.55-0.57,12.66-1.08,18.31-1.51c5.65-0.44,10.64-0.76,14.98-0.97
				c4.33-0.21,7.81-0.27,10.42-0.18c1.14,0.06,1.99,0.14,2.56,0.21c0.57,0.08,1.01,0.1,1.34,0.07c0.82-0.08,1.48-0.38,2-0.87
				c0.51-0.5,0.9-1.06,1.17-1.67c0.27-0.61,0.46-1.24,0.57-1.88c0.11-0.64,0.17-1.14,0.19-1.5c0.07-1.62-0.2-3.21-0.78-4.77
				C495.88,174.05,494.7,173.09,492.92,172.73z"/>
		</g>
		<g>
			<path class="st1" d="M337.57,146.34c2.1-4.42,4.14-8.55,6.12-12.37c1.98-3.82,3.7-7.04,5.17-9.67c0.08-0.15,0.16-0.28,0.24-0.42
				c1.2-0.26,2.59-0.52,4.17-0.77c2.61-0.43,5.62-0.86,9.01-1.3c3.4-0.44,7.06-0.9,11-1.36c3.94-0.46,8.02-0.91,12.24-1.34
				c5.7-0.58,11.4-1.09,17.1-1.53c5.7-0.44,10.97-0.81,15.83-1.11c4.86-0.29,9.08-0.47,12.65-0.54c3.58-0.07,6.09,0.02,7.55,0.27
				c0.58,0.14,1.02,0.19,1.31,0.16c0.29-0.03,0.52-0.17,0.68-0.41c0.16-0.25,0.24-0.43,0.24-0.57c0.02-0.4-0.13-0.91-0.45-1.53
				c-0.32-0.63-0.68-1.28-1.09-1.96c-0.41-0.68-0.87-1.36-1.38-2.03c-0.51-0.67-0.95-1.18-1.33-1.54c-0.47-0.48-2.51-0.78-6.13-0.91
				c-3.62-0.13-8.17-0.08-13.66,0.15c0.01,0,0.01-0.01,0.02-0.01c-0.01,0-0.01,0-0.02,0c-0.28,0.03-0.54,0.04-0.79,0.03
				c-1.74,0.14-3.64,0.25-5.56,0.32c-2.12,0.14-4.23,0.29-6.32,0.31c-4.77,0.3-9.64,0.64-14.63,1.02
				c-5.35,0.41-10.53,0.87-15.55,1.37c-3.54,0.36-6.86,0.73-9.96,1.11c-3.1,0.38-5.91,0.76-8.42,1.15
				c-2.51,0.38-4.63,0.76-6.36,1.14c-1.72,0.37-2.93,0.72-3.63,1.05c-1.33,0.52-3.01,1.61-5.04,3.28c-2.65,2.19-5.6,5.02-8.85,8.5
				c-3.25,3.48-6.71,7.4-10.38,11.76c-3.67,4.36-7.22,8.83-10.67,13.39c1.98-4.88,4.13-9.72,6.46-14.53
				c2.33-4.81,4.89-9.51,7.7-14.1c0.19-0.32,0.41-0.57,0.67-0.76c0.25-0.18,0.38-0.37,0.38-0.54c0-0.35-0.22-0.73-0.67-1.14
				c-0.45-0.4-0.97-0.78-1.58-1.13c-0.61-0.35-1.26-0.64-1.96-0.86c-0.7-0.22-1.31-0.29-1.82-0.22c-1.4,0.21-3.33,1.36-5.79,3.46
				c-2.46,2.1-5.25,4.85-8.37,8.25c-3.13,3.4-6.46,7.26-10,11.57c-3.54,4.32-7.05,8.79-10.52,13.42c-3.48,4.63-6.81,9.24-10,13.82
				c-3.19,4.59-6.01,8.84-8.47,12.76c-2.46,3.92-4.4,7.34-5.84,10.25c-1.43,2.91-2.15,5.02-2.15,6.31c0,0.88,0.27,1.71,0.81,2.48
				c0.54,0.77,1.21,1.42,2.01,1.95c0.8,0.53,1.63,0.93,2.49,1.22c0.86,0.28,1.64,0.37,2.34,0.27c0.7-0.1,1.18-0.48,1.43-1.14
				c0.25-0.65,0.45-1.32,0.57-1.98c0.45-1.65,1.32-3.84,2.63-6.56c1.31-2.72,2.9-5.75,4.78-9.08c1.88-3.33,4-6.9,6.36-10.68
				c2.36-3.79,4.86-7.63,7.51-11.52c2.65-3.89,5.36-7.73,8.13-11.52c2.77-3.79,5.53-7.36,8.28-10.7c-2.17,4.44-4.32,9.07-6.46,13.92
				c-2.14,4.84-4.05,9.46-5.74,13.85c-1.69,4.39-3.06,8.33-4.11,11.81c-1.05,3.48-1.58,6.07-1.58,7.77c0,0.88,0.25,1.7,0.77,2.44
				c0.51,0.75,1.15,1.39,1.91,1.92c0.77,0.53,1.58,0.93,2.44,1.18c0.86,0.25,1.64,0.33,2.34,0.23c0.7-0.1,1.18-0.47,1.43-1.09
				c0.25-0.63,0.45-1.24,0.57-1.85c0.57-2.08,1.58-4.58,3.01-7.5c1.43-2.92,3.14-6.03,5.12-9.35c1.98-3.32,4.11-6.72,6.41-10.21
				c2.3-3.48,4.61-6.84,6.94-10.06c2.33-3.22,4.58-6.25,6.74-9.07c2.17-2.82,4.08-5.17,5.74-7.07c-2.49,4.48-4.99,9.25-7.51,14.29
				c-2.52,5.05-4.78,9.98-6.79,14.8c-2.01,4.82-3.64,9.31-4.88,13.46c-1.24,4.15-1.87,7.58-1.87,10.28c0,1.29,0.21,2.35,0.62,3.17
				c0.41,0.82,0.99,1.44,1.72,1.86c0.73,0.42,1.56,0.68,2.49,0.78c0.92,0.1,1.9,0.07,2.92-0.08c1.08-0.16,1.9-0.33,2.44-0.49
				c0.54-0.17,0.91-0.37,1.1-0.6c0.19-0.24,0.25-0.54,0.19-0.91c-0.06-0.37-0.13-0.85-0.19-1.43c-0.38-2.06-0.18-4.84,0.62-8.34
				c0.8-3.5,1.96-7.37,3.49-11.63c1.53-4.25,3.32-8.72,5.36-13.4C333.39,155.32,335.47,150.77,337.57,146.34z"/>
		</g>
		<g>
			<path class="st1" d="M337.15,184.24c1.15-0.17,2.53-0.95,4.12-2.35c1.59-1.4,3.32-3.24,5.19-5.52v0.31c0,0.57,0.23,1.17,0.7,1.79
				c0.47,0.63,1.11,1.21,1.94,1.73c0.82,0.53,1.76,0.93,2.8,1.22c1.04,0.29,2.14,0.34,3.3,0.18c1.04-0.15,2.44-1.12,4.2-2.9
				c1.43-1.45,2.95-3.19,4.56-5.21c-0.02,0.22-0.03,0.43-0.03,0.63c0,0.52,0.23,1.09,0.7,1.72c0.47,0.63,1.1,1.21,1.9,1.74
				c0.8,0.53,1.72,0.95,2.76,1.26c1.04,0.31,2.14,0.38,3.3,0.21c1.04-0.15,2.44-1.12,4.2-2.9c1.05-1.06,2.15-2.28,3.3-3.65
				c0,0.06-0.01,0.12-0.01,0.17c0,0.57,0.24,1.18,0.73,1.83c0.49,0.65,1.12,1.23,1.88,1.74c0.76,0.51,1.67,0.9,2.73,1.19
				c1.06,0.28,2.16,0.34,3.31,0.17c1.03-0.15,2.41-1.11,4.12-2.89c1.71-1.77,3.59-3.98,5.63-6.63c0.38-0.5,0.77-1.02,1.16-1.53
				c-0.19,0.9-0.28,1.7-0.28,2.39c0,0.52,0.23,1.09,0.7,1.72c0.47,0.63,1.1,1.21,1.9,1.74c0.8,0.53,1.72,0.95,2.76,1.26
				c1.04,0.31,2.14,0.38,3.3,0.21c1.04-0.15,2.44-1.12,4.2-2.9c0.82-0.83,1.68-1.76,2.56-2.78c0.04,0.1,0.07,0.2,0.11,0.3
				c0.41,0.95,0.99,1.74,1.73,2.38c0.74,0.64,1.62,1.12,2.64,1.43c1.02,0.32,2.1,0.39,3.26,0.22c1.48-0.22,2.99-0.71,4.53-1.48
				c1.54-0.77,2.94-1.71,4.2-2.82c1.26-1.11,2.29-2.36,3.09-3.75c0.8-1.38,1.19-2.8,1.19-4.24c0-1.14-0.15-2.25-0.45-3.34
				c-0.3-1.09-0.63-2.14-0.99-3.15c-0.36-1.01-0.69-1.99-0.99-2.95c-0.3-0.96-0.45-1.88-0.45-2.76c0-1.08,0.29-2.28,0.87-3.57
				c0.58-1.3,1.35-2.53,2.31-3.71c0.96-1.17,2.03-2.26,3.21-3.26c1.18-1,2.35-1.74,3.5-2.22c0.11,0.45,0.04,1.01-0.21,1.7
				c-0.25,0.68-0.63,1.42-1.15,2.22c-0.52,0.8-1.15,1.65-1.9,2.56c-0.74,0.91-1.52,1.79-2.35,2.63c-0.28,0.3-0.36,0.56-0.25,0.77
				c0.11,0.22,0.3,0.42,0.58,0.61c0.27,0.19,0.59,0.33,0.95,0.4c0.36,0.08,0.65,0.1,0.87,0.07c1.65-0.24,2.81-0.5,3.5-0.78
				c0.69-0.28,1.33-0.83,1.94-1.64c1.59-2.25,2.68-4.21,3.26-5.9c0.58-1.68,0.87-2.99,0.87-3.92c0-0.46-0.3-0.99-0.91-1.57
				c-0.61-0.58-1.36-1.12-2.27-1.6c-0.91-0.49-1.85-0.88-2.84-1.17c-0.99-0.29-1.84-0.39-2.55-0.28c-1.48,0.22-3.08,0.99-4.78,2.33
				c-1.7,1.33-3.32,2.91-4.86,4.74c-1.54,1.83-2.83,3.71-3.87,5.64c-1.04,1.93-1.65,3.64-1.81,5.11c0,0,0,0,0,0
				c-1.37,2.01-2.82,4.13-4.33,6.36c-1.51,2.24-3,4.33-4.45,6.27c-1.46,1.94-2.83,3.63-4.12,5.06c-1.29,1.43-2.38,2.31-3.26,2.65
				c-0.44-0.3-0.48-1.1-0.12-2.42c0.36-1.32,0.97-2.9,1.85-4.76c0.88-1.86,1.94-3.9,3.17-6.12c1.24-2.22,2.55-4.4,3.96-6.54
				c1.4-2.14,2.82-4.13,4.24-5.97c1.43-1.84,2.75-3.31,3.96-4.41c0.44-0.43,0.73-0.77,0.87-1.02c0.14-0.25-0.04-0.58-0.54-0.97
				c-0.77-0.56-1.7-1.05-2.8-1.49c-1.1-0.43-2.17-0.57-3.21-0.42c-0.88,0.13-1.99,0.9-3.34,2.31c-1.35,1.41-2.79,3.2-4.33,5.36
				c-1.42,2-2.85,4.22-4.27,6.65c-0.1,0-0.19,0-0.28,0.01c-0.27,0.04-0.56,0.28-0.86,0.71c-0.3,0.43-0.86,1.28-1.67,2.53
				c-1.36,2.01-2.79,4.13-4.29,6.36c-1.5,2.23-2.97,4.32-4.41,6.26c-1.44,1.94-2.8,3.63-4.08,5.05c-1.28,1.43-2.35,2.31-3.22,2.64
				c-0.22-0.28-0.33-0.62-0.33-1.04c0-0.83,0.35-2.08,1.06-3.76c0.71-1.68,1.63-3.61,2.78-5.79c1.14-2.18,2.48-4.56,4-7.13
				c1.52-2.57,3.11-5.17,4.78-7.79c1.66-2.62,3.35-5.18,5.06-7.67c1.71-2.5,3.36-4.79,4.94-6.88c3.27-0.37,6.33-0.62,9.18-0.73
				c2.86-0.11,5.16-0.06,6.9,0.15c0.43,0.04,0.84,0.08,1.22,0.13c0.38,0.05,0.71-0.15,0.98-0.61c0.22-0.39,0.34-0.88,0.37-1.45
				c0.03-0.57-0.03-1.16-0.16-1.76c-0.14-0.6-0.35-1.15-0.65-1.65c-0.3-0.5-0.69-0.87-1.18-1.1c-0.76-0.3-2.1-0.44-4-0.42
				c-1.91,0.02-4.16,0.17-6.78,0.45c0.05-0.06,0.09-0.12,0.12-0.17c0.03-0.05,0.09-0.12,0.2-0.18c0.22-0.24,0.41-0.45,0.57-0.63
				c0.16-0.18,0.25-0.35,0.25-0.5c0-0.26-0.19-0.54-0.57-0.85c-0.6-0.48-1.44-0.96-2.53-1.45c-1.09-0.49-2.26-0.64-3.51-0.45
				c-0.6,0.09-1.43,0.66-2.49,1.72c-1.06,1.06-2.3,2.47-3.71,4.22c-1.88,0.35-3.72,0.72-5.52,1.1c0.62-0.68,1.19-1.27,1.73-1.77
				c0.22-0.24,0.41-0.45,0.58-0.63c0.16-0.18,0.25-0.35,0.25-0.5c0-0.26-0.19-0.54-0.58-0.84c-0.61-0.48-1.46-0.96-2.55-1.45
				c-1.1-0.48-2.28-0.63-3.54-0.45c-0.55,0.08-1.35,0.61-2.39,1.59c-1.04,0.98-2.23,2.29-3.54,3.93c-0.86,1.07-1.78,2.28-2.74,3.58
				c-0.17,0.07-0.34,0.14-0.5,0.21c-1.28,0.55-2.03,1.05-2.24,1.49c-0.43,0.84-0.64,1.55-0.61,2.14c0.01,0.27,0.04,0.54,0.08,0.81
				c-0.99,1.44-1.99,2.93-3.01,4.48c-1.62,2.46-3.23,4.99-4.82,7.6c-1.59,2.61-3.08,5.18-4.45,7.7c0,0,0,0,0,0.01
				c-1.32,2-2.73,4.11-4.24,6.35c-1.51,2.24-3,4.33-4.45,6.27c-1.46,1.94-2.83,3.63-4.12,5.06c-1.29,1.43-2.38,2.31-3.26,2.65
				c-0.44-0.3-0.48-1.1-0.12-2.42c0.36-1.32,0.96-2.9,1.81-4.76c0.85-1.85,1.91-3.89,3.17-6.12c1.26-2.22,2.6-4.41,4-6.55
				c1.4-2.14,2.82-4.13,4.24-5.97c1.43-1.84,2.75-3.31,3.96-4.41c0.44-0.42,0.71-0.76,0.82-1.01c0.11-0.25-0.06-0.57-0.49-0.97
				c-0.77-0.56-1.7-1.05-2.8-1.49c-1.1-0.43-2.2-0.57-3.3-0.41c-0.82,0.12-1.88,0.84-3.17,2.17c-1.29,1.33-2.67,3-4.12,5.02
				c-1.46,2.02-2.94,4.29-4.45,6.81c-1.51,2.52-2.87,5.03-4.08,7.53c-0.66,0.98-1.52,2.23-2.6,3.75c-1.07,1.53-2.23,3.06-3.46,4.61
				c-1.24,1.55-2.5,2.96-3.79,4.23c-1.29,1.27-2.51,2.15-3.67,2.63c-0.44-0.3-0.48-1.1-0.12-2.42c0.36-1.32,0.97-2.9,1.85-4.76
				c0.88-1.86,1.94-3.9,3.17-6.12c1.24-2.22,2.55-4.4,3.96-6.54c1.4-2.14,2.82-4.13,4.24-5.97c1.43-1.84,2.75-3.31,3.96-4.41
				c0.44-0.42,0.71-0.76,0.82-1.01c0.11-0.25-0.06-0.57-0.49-0.97c-0.77-0.56-1.7-1.05-2.8-1.49c-1.1-0.43-2.17-0.57-3.21-0.42
				c-0.71,0.1-1.58,0.63-2.6,1.58c-1.02,0.95-2.12,2.17-3.3,3.66c-1.18,1.49-2.4,3.21-3.67,5.15c-1.26,1.94-2.47,3.95-3.63,6.03
				c-0.99,1.85-1.94,3.69-2.84,5.53c-0.91,1.84-1.7,3.61-2.39,5.31c-0.69,1.7-1.22,3.27-1.61,4.69c-0.38,1.43-0.58,2.63-0.58,3.61
				c0,0.57,0.23,1.18,0.7,1.83c0.47,0.66,1.1,1.23,1.9,1.74c0.8,0.5,1.72,0.9,2.76,1.18C334.9,184.35,336,184.4,337.15,184.24z
				 M417.96,164.31c2.06-2.65,4.16-5.57,6.3-8.75c0.39-0.58,0.77-1.14,1.15-1.71c0.1,0.45,0.19,0.89,0.29,1.31
				c0.25,1.05,0.48,2.02,0.7,2.92c0.22,0.9,0.33,1.73,0.33,2.51c0,0.77-0.18,1.46-0.54,2.05c-0.36,0.59-0.81,1.11-1.36,1.55
				c-0.55,0.44-1.13,0.78-1.73,1.03c-0.6,0.24-1.18,0.41-1.73,0.49c-1.15,0.17-2.11,0.17-2.88,0c-0.51-0.11-0.94-0.25-1.31-0.4
				C417.43,164.97,417.69,164.64,417.96,164.31z M374.44,166.61c1.07-2.33,2.46-4.99,4.16-8.01c1.7-3.01,3.61-6.2,5.73-9.55
				c2.11-3.36,4.26-6.59,6.43-9.69c1.38-1.98,2.72-3.84,4.01-5.57c1.88-0.39,3.9-0.76,6.05-1.1c-2.18,3.11-4.38,6.46-6.61,10.07
				c-2.23,3.61-4.33,7.18-6.29,10.72c-0.75,1.4-1.47,2.76-2.15,4.09c-0.26,0.38-0.52,0.77-0.78,1.16c-1.51,2.24-3,4.33-4.45,6.27
				c-1.46,1.94-2.83,3.63-4.12,5.06c-1.29,1.43-2.38,2.31-3.26,2.65c-0.22-0.28-0.33-0.62-0.33-1.04
				C372.84,170.62,373.37,168.94,374.44,166.61z"/>
		</g>
		<g>
			<path class="st1" d="M561.14,126.18c-0.16-0.34-0.44-0.61-0.82-0.81c-0.39-0.2-0.8-0.36-1.24-0.48c-0.44-0.12-0.8-0.15-1.07-0.11
				c-0.28,0.04-0.56,0.28-0.87,0.71c-0.3,0.43-0.87,1.28-1.69,2.53c-1.43,2.07-2.93,4.28-4.49,6.62c-1.57,2.35-3.23,4.53-4.99,6.54
				c-1.76,2.01-3.6,3.74-5.52,5.19c-1.92,1.44-3.93,2.32-6.02,2.62c-1.32,0.19-2.2-0.05-2.64-0.74c-0.44-0.68-0.66-1.54-0.66-2.58
				c0-1.03,0.16-2.12,0.49-3.25c0.33-1.13,0.63-2.05,0.91-2.77c0.66,0.32,1.33,0.55,2.02,0.71c0.69,0.16,1.44,0.18,2.27,0.06
				c0.88-0.13,1.91-0.6,3.09-1.42c1.18-0.82,2.39-1.83,3.63-3.05c1.24-1.21,2.46-2.57,3.67-4.06c1.21-1.49,2.28-2.99,3.21-4.5
				c0.93-1.5,1.69-2.93,2.27-4.28c0.58-1.35,0.86-2.49,0.86-3.42c0-0.41-0.33-0.91-0.99-1.48c-0.66-0.57-1.47-1.1-2.43-1.58
				c-0.96-0.48-1.99-0.87-3.09-1.17c-1.1-0.3-2.09-0.39-2.97-0.26c-1.32,0.19-2.76,0.79-4.33,1.8c-1.57,1-3.16,2.28-4.78,3.84
				c-1.62,1.55-3.2,3.32-4.74,5.3c-1.54,1.98-2.97,4.05-4.29,6.2c-1.32,2-2.73,4.12-4.24,6.35c-1.51,2.24-3,4.33-4.45,6.27
				c-1.46,1.94-2.83,3.63-4.12,5.06c-1.29,1.43-2.38,2.31-3.26,2.65c-0.44-0.3-0.48-1.1-0.12-2.42c0.36-1.32,0.96-2.9,1.81-4.76
				c0.85-1.85,1.91-3.89,3.17-6.12c1.26-2.22,2.6-4.41,4-6.55c1.4-2.14,2.82-4.13,4.24-5.97c1.43-1.84,2.75-3.31,3.96-4.41
				c0.44-0.42,0.71-0.76,0.82-1.01c0.11-0.25-0.06-0.57-0.49-0.97c-0.77-0.56-1.7-1.05-2.8-1.49c-1.1-0.43-2.2-0.57-3.3-0.41
				c-0.82,0.12-1.55,0.37-2.18,0.75c-0.63,0.38-1.2,0.6-1.69,0.67c-0.94,0.14-1.4-0.08-1.4-0.65c0-0.67,0.44-1.63,1.32-2.87
				c0.88-1.24,2.28-2.9,4.2-4.99c0.44-0.42,0.73-0.76,0.87-1.02c0.14-0.25-0.04-0.57-0.54-0.97c-0.77-0.56-1.7-1.05-2.8-1.49
				c-1.1-0.43-2.17-0.57-3.21-0.42c-0.82,0.12-1.83,0.68-3.01,1.68c-1.18,1-2.32,2.19-3.42,3.56c-1.1,1.38-2.03,2.79-2.8,4.24
				c-0.77,1.46-1.15,2.73-1.15,3.81c0,0.46,0.11,0.86,0.33,1.19c-0.11,0.17-0.22,0.33-0.33,0.47c-0.11,0.15-0.22,0.33-0.33,0.55
				c-0.71,1.09-1.9,2.87-3.54,5.36c-1.65,2.49-3.43,5.24-5.36,8.26c-0.05,0.08-0.1,0.15-0.15,0.23c-0.67,1.03-1.4,2.14-2.2,3.36
				c-0.85,1.31-1.75,2.59-2.68,3.84c-0.93,1.25-1.95,2.42-3.05,3.51c-1.1,1.09-2.25,1.93-3.46,2.52c2.14-3.31,3.87-6.74,5.19-10.29
				c1.32-3.55,1.98-6.95,1.98-10.2c0-0.72-0.38-1.43-1.15-2.12c-0.77-0.69-1.69-1.29-2.76-1.8c-1.07-0.51-2.16-0.91-3.26-1.19
				c-1.1-0.28-2.01-0.36-2.72-0.26c-1.59,0.23-3.23,0.85-4.9,1.84c-1.68,0.99-3.32,2.26-4.94,3.78c-1.62,1.53-3.19,3.29-4.7,5.3
				c-0.46,0.61-0.9,1.23-1.33,1.85c-0.25-0.05-0.47-0.06-0.64-0.04c-0.27,0.04-0.55,0.28-0.84,0.73c-0.3,0.45-0.84,1.33-1.65,2.64
				c-1.34,2.09-2.75,4.3-4.22,6.62c-1.48,2.33-2.92,4.5-4.34,6.52c-1.42,2.02-2.76,3.77-4.02,5.26c-1.26,1.48-2.32,2.4-3.18,2.74
				c-0.21-0.29-0.32-0.66-0.32-1.09c0-0.87,0.35-2.17,1.05-3.93c0.7-1.75,1.61-3.77,2.74-6.04c1.13-2.27,2.44-4.75,3.94-7.44
				c1.5-2.68,3.07-5.39,4.71-8.12c1.64-2.73,3.3-5.39,4.99-8c1.69-2.6,3.31-4.99,4.87-7.17c3.22-0.36,6.23-0.59,9.05-0.68
				c2.82-0.09,5.08-0.01,6.8,0.22c0.43,0.05,0.83,0.1,1.21,0.15c0.37,0.05,0.7-0.16,0.97-0.63c0.21-0.41,0.33-0.91,0.36-1.51
				c0.03-0.6-0.03-1.21-0.16-1.84c-0.13-0.63-0.35-1.21-0.64-1.73c-0.3-0.53-0.68-0.91-1.17-1.17c-0.75-0.32-2.07-0.48-3.94-0.48
				c-1.88,0-4.1,0.14-6.68,0.41c0.05-0.06,0.09-0.12,0.12-0.18c0.03-0.06,0.09-0.12,0.2-0.19c0.21-0.25,0.4-0.46,0.56-0.65
				c0.16-0.19,0.24-0.36,0.24-0.52c0-0.27-0.19-0.57-0.56-0.89c-0.59-0.51-1.42-1.02-2.49-1.54c-1.07-0.52-2.23-0.69-3.46-0.51
				c-0.59,0.09-1.41,0.68-2.45,1.78c-1.05,1.1-2.27,2.56-3.66,4.39c-2.52,0.48-4.98,0.99-7.36,1.52c-2.39,0.54-4.53,1.08-6.44,1.63
				c-1.9,0.55-3.49,1.11-4.75,1.67c-1.26,0.56-2,1.08-2.21,1.54c-0.43,0.87-0.63,1.62-0.6,2.24c0.03,0.62,0.12,1.21,0.28,1.79
				c0.11,0.42,0.24,0.64,0.4,0.67c0.16,0.03,0.46-0.07,0.89-0.29c1.18-0.61,3.12-1.24,5.83-1.91c2.71-0.67,5.75-1.28,9.13-1.82
				c-2.15,3.24-4.32,6.73-6.52,10.49c-2.2,3.76-4.26,7.48-6.19,11.18c-1.13,2.22-2.17,4.35-3.14,6.38
				c-0.97,2.04-1.78,3.93-2.45,5.68c-0.67,1.75-1.19,3.3-1.57,4.65c-0.37,1.35-0.56,2.46-0.56,3.33c0,0.6,0.24,1.24,0.72,1.92
				c0.48,0.69,1.1,1.3,1.85,1.84c0.75,0.54,1.65,0.96,2.7,1.27c1.05,0.31,2.13,0.38,3.26,0.21c1.02-0.15,2.37-1.15,4.06-2.99
				c1.69-1.84,3.54-4.14,5.55-6.9c0.74-1.01,1.48-2.07,2.22-3.15c-0.15,1.13-0.22,2.25-0.22,3.36c0,0.98,0.29,1.91,0.87,2.78
				c0.58,0.87,1.29,1.62,2.14,2.24c0.85,0.62,1.81,1.09,2.88,1.4c1.07,0.31,2.1,0.39,3.09,0.24c1.26-0.18,2.51-0.6,3.75-1.25
				c1.24-0.65,2.42-1.4,3.54-2.26c1.13-0.86,2.18-1.79,3.17-2.79c0.99-1,1.87-1.96,2.64-2.9c0.27,0.01,0.54,0.01,0.78,0
				c0.25-0.01,0.51-0.04,0.78-0.08c1.11-0.16,2.2-0.49,3.26-0.97c-0.47,0.99-0.7,1.69-0.7,2.07c0,0.93,0.25,1.72,0.74,2.37
				c0.49,0.65,1.1,1.16,1.81,1.52c0.71,0.36,1.46,0.6,2.23,0.72c0.77,0.12,1.46,0.14,2.06,0.05c0.6-0.09,1-0.26,1.19-0.52
				c0.19-0.26,0.29-0.58,0.29-0.97c0-0.39-0.05-0.82-0.16-1.29c-0.11-0.47-0.16-0.97-0.16-1.49c0-2.01,0.59-4.44,1.77-7.27
				c1.18-2.83,2.64-5.76,4.37-8.77c1.73-3.02,3.56-5.98,5.48-8.9c1.92-2.92,3.6-5.48,5.03-7.71c0.66,0.32,1.36,0.61,2.1,0.89
				c0.74,0.28,1.5,0.52,2.27,0.71c-1.54,2.19-3.08,4.61-4.62,7.26c-1.54,2.65-2.91,5.26-4.12,7.81c-1.21,2.55-2.2,4.96-2.97,7.21
				c-0.77,2.26-1.15,4.08-1.15,5.48c0,0.52,0.23,1.1,0.7,1.76c0.47,0.66,1.11,1.24,1.94,1.77c0.82,0.53,1.76,0.93,2.8,1.22
				c1.04,0.29,2.14,0.34,3.3,0.18c1.04-0.15,2.44-1.12,4.2-2.9c1.76-1.78,3.65-3.99,5.69-6.64c0.44-0.57,0.88-1.16,1.33-1.76
				c0,0.12-0.01,0.25-0.01,0.37c0,0.88,0.28,1.81,0.82,2.78c0.55,0.98,1.31,1.87,2.27,2.69c0.96,0.82,2.12,1.45,3.46,1.89
				c1.35,0.45,2.82,0.56,4.41,0.32c3.24-0.47,6.26-1.69,9.07-3.65c2.8-1.96,5.43-4.31,7.87-7.04c2.44-2.73,4.71-5.69,6.8-8.86
				c2.09-3.17,4.04-6.18,5.85-9.03C561.28,126.85,561.31,126.51,561.14,126.18z M537.37,130.71c0.91-1.35,1.88-2.64,2.93-3.88
				c1.04-1.24,2.17-2.38,3.38-3.44c1.21-1.05,2.44-1.86,3.71-2.4c0.05,0.15,0.08,0.38,0.08,0.69c0,0.62-0.37,1.62-1.11,2.99
				c-0.74,1.37-1.66,2.79-2.76,4.24c-1.1,1.45-2.25,2.76-3.46,3.91c-1.21,1.16-2.25,1.8-3.13,1.93c-0.33,0.05-0.67,0.06-1.03,0.04
				c-0.36-0.03-0.67-0.15-0.95-0.36C535.68,133.29,536.46,132.05,537.37,130.71z M470.82,157.45c-1.37,1.08-2.83,2.02-4.37,2.81
				c0.16-1.78,0.59-3.7,1.28-5.76c0.69-2.06,1.58-4.15,2.68-6.28c0.27,0.99,0.8,1.99,1.57,2.98c0.77,1,1.7,1.88,2.8,2.65
				C473.51,155.18,472.19,156.38,470.82,157.45z M481.45,144.74c-0.94,1.69-1.98,3.34-3.13,4.95c-1.59-1.26-2.39-2.95-2.39-5.07
				c0-1.14,0.32-2.36,0.95-3.66c0.63-1.31,1.43-2.57,2.39-3.8c0.96-1.23,1.99-2.37,3.09-3.43c1.1-1.06,2.11-1.9,3.05-2.5
				c0.11,1.17,0.03,2.49-0.25,3.95c-0.28,1.46-0.73,3-1.36,4.61C483.17,141.41,482.38,143.06,481.45,144.74z"/>
		</g>
	</g>
	<g>
		<g>
			<path class="st0" d="M433.65,123.07c0.4,0.52,0.73,1.07,1,1.66c0.86-0.5,1.73-1.01,2.59-1.51c-0.02-0.04-0.04-0.08-0.06-0.12
				c0.05,0.12,0.1,0.24,0.15,0.36c-0.05-0.11-0.08-0.23-0.09-0.35c0.02,0.13,0.04,0.27,0.05,0.4c-0.02-0.13-0.01-0.26,0-0.39
				c-0.02,0.13-0.04,0.27-0.05,0.4c0.02-0.12,0.05-0.24,0.1-0.35c-0.05,0.12-0.1,0.24-0.15,0.36c0.03-0.08,0.08-0.16,0.12-0.23
				c-0.91-0.39-1.83-0.77-2.74-1.16c-0.16,0.42-0.33,0.84-0.49,1.26c0.05-0.12,0.1-0.24,0.15-0.36c0,0.01-0.01,0.01-0.01,0.02
				c0.08-0.1,0.16-0.2,0.23-0.3c0,0-0.01,0.01-0.01,0.01c0.1-0.08,0.2-0.16,0.3-0.23c-0.01,0-0.01,0.01-0.02,0.01
				c0.12-0.05,0.24-0.1,0.36-0.15c-0.01,0-0.01,0-0.02,0.01c0.13-0.02,0.27-0.04,0.4-0.05c-0.01,0-0.01,0-0.02,0
				c0.13,0.02,0.27,0.04,0.4,0.05c-0.01,0-0.01,0-0.02,0c-0.2-0.06-0.4-0.07-0.6-0.03c-0.2,0.01-0.39,0.07-0.56,0.18
				c-0.17,0.09-0.32,0.22-0.42,0.39c-0.13,0.14-0.22,0.31-0.27,0.51c-0.02,0.13-0.04,0.27-0.05,0.4c0,0.27,0.07,0.52,0.2,0.76
				c0.2,0.32,0.51,0.61,0.9,0.69c0.31,0.07,0.38,0.06,0.64,0.03c0.24-0.03,0.35-0.05,0.59-0.19c0.23-0.13,0.42-0.33,0.55-0.55
				c0.08-0.13,0.12-0.27,0.17-0.41c0.05-0.14,0.11-0.28,0.16-0.41c0.11-0.27,0.21-0.54,0.32-0.81c0.06-0.2,0.07-0.4,0.03-0.6
				c-0.01-0.2-0.07-0.39-0.18-0.56c-0.08-0.1-0.16-0.2-0.23-0.3c-0.14-0.15-0.3-0.25-0.48-0.31c-0.12-0.07-0.24-0.1-0.38-0.1
				c-0.2-0.04-0.4-0.04-0.6,0.03c-0.12,0.05-0.24,0.1-0.36,0.15c-0.23,0.13-0.4,0.31-0.54,0.54c-0.14,0.21-0.24,0.46-0.32,0.71
				c-0.08,0.24-0.1,0.5-0.12,0.76c-0.01,0.25,0.03,0.52,0.08,0.76c0.05,0.25,0.16,0.5,0.28,0.72c0.09,0.17,0.22,0.32,0.39,0.42
				c0.14,0.13,0.31,0.22,0.51,0.27c0.2,0.06,0.4,0.07,0.6,0.03c0.2-0.01,0.39-0.07,0.56-0.18c0.32-0.21,0.6-0.51,0.69-0.9
				c0.02-0.13,0.04-0.27,0.05-0.4c0-0.27-0.07-0.52-0.2-0.76c-0.27-0.59-0.61-1.15-1-1.66c-0.09-0.17-0.22-0.32-0.39-0.42
				c-0.14-0.13-0.31-0.22-0.51-0.27c-0.2-0.06-0.4-0.07-0.6-0.03c-0.2,0.01-0.39,0.07-0.56,0.18c-0.32,0.21-0.6,0.51-0.69,0.9
				c-0.02,0.13-0.04,0.27-0.05,0.4C433.44,122.58,433.51,122.83,433.65,123.07L433.65,123.07z"/>
		</g>
	</g>
	<g>
		<g>
			<path class="st0" d="M456.16,169.53c0.29,0,0.59-0.04,0.87-0.09c0.16-0.03,0.32-0.07,0.47-0.13c0.2-0.05,0.37-0.14,0.51-0.27
				c0.16-0.11,0.29-0.25,0.39-0.42c0.11-0.17,0.17-0.36,0.18-0.56c0.04-0.2,0.04-0.4-0.03-0.6c-0.05-0.12-0.1-0.24-0.15-0.36
				c-0.13-0.23-0.31-0.4-0.54-0.54c-0.12-0.05-0.24-0.1-0.36-0.15c-0.27-0.07-0.53-0.07-0.8,0c-0.18,0.07-0.37,0.12-0.56,0.14
				c0.13-0.02,0.27-0.04,0.4-0.05c-0.13,0.02-0.26,0.02-0.39,0.02c-0.21-0.01-0.4,0.04-0.58,0.13c-0.19,0.06-0.35,0.16-0.48,0.31
				c-0.15,0.14-0.25,0.3-0.31,0.48c-0.09,0.18-0.14,0.37-0.13,0.58c0.02,0.13,0.04,0.27,0.05,0.4c0.07,0.25,0.2,0.47,0.39,0.66
				c0.1,0.08,0.2,0.16,0.3,0.23C455.64,169.46,455.89,169.53,456.16,169.53L456.16,169.53z"/>
		</g>
	</g>
	<g>
		<g>
			<path class="st0" d="M479.75,167.21c0.42-0.41,0.85-0.8,1.3-1.17c0.1-0.08,0.21-0.17,0.31-0.25c0.08-0.06,0.08-0.07,0.01-0.01
				c0.04-0.03,0.08-0.06,0.13-0.1c0.26-0.19,0.52-0.37,0.78-0.55c0.65-0.44,1-1.34,0.54-2.05c-0.44-0.68-1.33-0.97-2.05-0.54
				c-0.93,0.55-1.86,1.11-2.79,1.67c-0.53,0.32-1.14,0.62-1.45,1.18c-0.44,0.79-0.26,1.77,0.45,2.33c0.68,0.52,1.56,0.38,2.28,0.04
				c0.18-0.08,0.34-0.18,0.49-0.3c0.16-0.11,0.31-0.23,0.46-0.35c0.03-0.02,0.31-0.24,0.16-0.13c-0.14,0.11,0.17-0.12,0.17-0.12
				c0.08-0.05,0.15-0.09,0.23-0.14c0.31-0.17-0.09-0.01,0.1-0.04c0.11-0.02,0.23-0.07,0.34-0.09c0.04-0.01,0.41-0.07,0.22-0.04
				c-0.18,0.02,0.24-0.02,0.23-0.02c0.24-0.02,0.48-0.02,0.72-0.03c-0.13-0.98-0.27-1.96-0.4-2.95c-1.57,0.57-3.18,0.97-4.83,1.2
				c0.39,0.91,0.77,1.83,1.16,2.74c0.46-0.21,1.07-0.5,1.43-0.65c0.37-0.15,1-0.39,1.48-0.54c0.25-0.08,0.51-0.15,0.77-0.2
				c0.13-0.03,0.26-0.06,0.39-0.08c0.07-0.01,0.35-0.06,0.15-0.03c0.29-0.04,0.57-0.05,0.86-0.05c0.13,0,0.26,0.01,0.39,0.01
				c0.05,0,0.11,0.01,0.16,0.01c-0.22-0.02-0.41-0.11-0.57-0.28c-0.13-0.22-0.26-0.44-0.39-0.66c-0.01-0.08-0.02-0.15-0.04-0.23
				c0.07-0.25,0.14-0.5,0.2-0.76c0.11-0.11,0.22-0.22,0.33-0.33c-0.04,0.03-0.09,0.05-0.13,0.08c-0.11,0.05-0.22,0.12-0.33,0.18
				c-0.09,0.04-0.18,0.09-0.27,0.13c-0.23,0.1,0.18-0.07-0.05,0.02c-0.42,0.15-0.85,0.28-1.29,0.38c-0.2,0.04-0.39,0.08-0.59,0.12
				c-0.12,0.02-0.25,0.04-0.37,0.06c-0.09,0.01-0.22,0.03-0.05,0.01c-0.45,0.06-0.9,0.1-1.35,0.15c-0.78,0.08-1.54,0.63-1.5,1.5
				c0.04,0.85,0.66,1.45,1.5,1.5c1.28,0.08,2.56-0.18,3.81-0.43c0.28-0.06,0.55-0.11,0.83-0.16c0.15-0.03,0.3-0.05,0.45-0.08
				c0.49-0.08-0.28,0.02,0.2-0.03c0.3-0.03,0.6-0.05,0.9-0.05c0.13,0,0.25,0,0.38,0.01c0.06,0,0.55,0.07,0.28,0.02
				c-0.3-0.73-0.6-1.47-0.9-2.2c0.67-0.38,0.84-0.52,0.5-0.41c-0.1,0.03-0.21,0.05-0.31,0.08c-0.21,0.05-0.42,0.09-0.63,0.13
				c-0.11,0.02-0.21,0.04-0.32,0.05c0.13-0.02,0.11-0.01-0.08,0.01c-0.21,0.02-0.43,0.04-0.64,0.05c-0.43,0.02-0.86,0.02-1.29,0
				c-0.21-0.01-0.43-0.03-0.64-0.05c-0.19-0.02-0.21-0.03-0.08-0.01c-0.11-0.02-0.21-0.03-0.32-0.05c-0.13,0.98-0.27,1.96-0.4,2.95
				c1.6,0.2,3.19,0.39,4.79,0.59c0.78,0.1,1.53-0.76,1.5-1.5c-0.04-0.89-0.66-1.4-1.5-1.5c-1.6-0.2-3.19-0.39-4.79-0.59
				c-0.74-0.09-1.38,0.64-1.47,1.3c-0.09,0.68,0.34,1.52,1.07,1.65c1.19,0.21,2.4,0.3,3.6,0.19c0.61-0.06,1.23-0.15,1.83-0.28
				c0.68-0.15,1.45-0.4,1.76-1.09c0.2-0.45,0.27-0.86,0.08-1.33c-0.16-0.39-0.53-0.8-0.97-0.87c-1.43-0.23-2.78-0.08-4.19,0.2
				c-0.61,0.12-1.21,0.25-1.82,0.35c-0.08,0.01-0.15,0.02-0.23,0.03c0.12-0.02,0.13-0.02,0.02-0.01c-0.15,0.02-0.3,0.03-0.46,0.04
				c-0.33,0.02-0.66,0.02-0.99,0c0,1,0,2,0,3c1.35-0.14,2.73-0.26,4.03-0.68c0.66-0.21,1.34-0.47,1.92-0.85
				c0.96-0.62,1.34-1.93,0.43-2.8c-0.61-0.58-1.56-0.59-2.36-0.55c-0.73,0.03-1.47,0.15-2.19,0.34c-1.42,0.37-2.77,1-4.09,1.62
				c-0.67,0.32-0.88,1.24-0.61,1.87c0.31,0.74,1.02,0.98,1.77,0.87c1.65-0.23,3.26-0.64,4.83-1.2c0.71-0.26,1.18-0.87,1.07-1.65
				c-0.1-0.72-0.72-1.32-1.47-1.3c-1.01,0.03-2,0.11-2.93,0.54c-0.43,0.19-0.79,0.49-1.15,0.78c-0.1,0.08-0.13,0.1-0.01,0.01
				c-0.07,0.05-0.14,0.1-0.21,0.15c-0.01,0-0.34,0.18-0.16,0.1c0.08-0.03,0.08-0.03,0-0.01c-0.2,0.05-0.08,0.06,0.36,0.01
				c0.22,0.13,0.44,0.26,0.66,0.39c-0.02-0.03-0.05-0.05-0.07-0.08c0.13,0.22,0.26,0.44,0.39,0.66c0.27,0.83-0.9,1.42-0.21,1.01
				c0.15-0.09,0.29-0.18,0.44-0.27c0.32-0.19,0.63-0.38,0.95-0.57c0.61-0.37,1.22-0.73,1.84-1.1c-0.5-0.86-1.01-1.73-1.51-2.59
				c-1.12,0.76-2.17,1.61-3.14,2.55c-0.56,0.55-0.59,1.58,0,2.12C478.23,167.77,479.15,167.8,479.75,167.21L479.75,167.21z"/>
		</g>
	</g>
	<g>
		<g>
			<path class="st0" d="M358.11,133.54c1.39,0,2.78,0,4.17,0c0.78,0,1.54-0.69,1.5-1.5c-0.04-0.81-0.66-1.5-1.5-1.5
				c-1.39,0-2.78,0-4.17,0c-0.78,0-1.54,0.69-1.5,1.5C356.65,132.85,357.27,133.54,358.11,133.54L358.11,133.54z"/>
		</g>
	</g>
	<g>
		<g>
			<path class="st0" d="M355.03,130.75c-2-0.89-4.17-0.85-6.03,0.37c-1.18,0.78-0.81,2.85,0.76,2.8c1.74-0.06,3.21-0.66,4.53-1.78
				c0.97-0.83,0.2-2.65-1.06-2.56c-0.89,0.06-1.76,0.2-2.62,0.44c0.27,0.96,0.53,1.93,0.8,2.89c1.93-0.79,3.9-1.22,5.99-1.24
				c-0.13-0.98-0.27-1.96-0.4-2.95c-1.37,0.29-2.73,0.35-4.13,0.25c0,1,0,2,0,3c5.19-0.44,10.37-0.88,15.56-1.33
				c1.89-0.16,1.96-3.05,0-3c-5.29,0.13-10.57,0.26-15.86,0.39c0,1,0,2,0,3c7.87-0.81,15.73-1.62,23.6-2.43
				c-0.13-0.98-0.27-1.96-0.4-2.95c-6.3,1.1-12.72,0.98-19.09,0.87c0,1,0,2,0,3c4.05-0.3,8.09-0.6,12.14-0.89
				c4.08-0.3,8.16-0.7,12.25-0.65c-0.48-0.63-0.96-1.27-1.45-1.9c0.14-0.43,0.18-0.24-0.28-0.14c-0.55,0.12-1.11,0.19-1.67,0.28
				c-0.97,0.15-1.93,0.3-2.9,0.43c-2.01,0.27-4.02,0.48-6.04,0.64c-4.01,0.32-8.03,0.44-12.05,0.36c0.13,0.98,0.27,1.96,0.4,2.95
				c6.06-1.94,12.34-2.82,18.7-2.61c-0.35-0.85-0.71-1.71-1.06-2.56c-0.6,0.46-1.46,0.57-2.18,0.72c-0.97,0.2-1.95,0.38-2.93,0.57
				c-1.87,0.37-3.74,0.73-5.61,1.1c-3.82,0.75-7.64,1.5-11.46,2.24c0.27,0.96,0.53,1.93,0.8,2.89c7.52-1.74,15.15-2.84,22.86-3.28
				c-0.13-0.98-0.27-1.96-0.4-2.95c-6.51,2.09-13.14,3.74-19.82,5.16c0.27,0.96,0.53,1.93,0.8,2.89c6.44-2.24,13.08-3.85,19.83-4.81
				c-0.39-0.91-0.77-1.83-1.16-2.74c-7.32,3.7-15.11,6.35-23.16,7.93c0.39,0.91,0.77,1.83,1.16,2.74c6.43-3.12,13.2-5.47,20.17-7.06
				c-0.27-0.96-0.53-1.93-0.8-2.89c-6.84,1.66-13.22,5.54-20.39,5.71c0.35,0.85,0.71,1.71,1.06,2.56c1.79-2.01,3.91-3.54,6.36-4.63
				c-0.61-0.79-1.21-1.57-1.82-2.36c-2.69,2.51-5.38,5.03-8.07,7.54c0.84,0.49,1.67,0.97,2.51,1.46c0.35-2.41,0.63-4.83,0.83-7.26
				c0.12-1.41-1.66-1.82-2.56-1.06c-1.83,1.54-3.65,3.09-5.48,4.63c-1.11,0.94,0.07,3.05,1.46,2.51c2.42-0.94,4.74-2.08,6.95-3.47
				c-0.73-0.56-1.47-1.13-2.2-1.69c-0.48,1.89-0.96,3.78-1.44,5.68c0.96,0.27,1.93,0.53,2.89,0.8c0.53-2.62,0.93-5.26,1.19-7.93
				c0.12-1.24-1.34-1.72-2.26-1.3c-2.56,1.19-4.63,3.29-5.78,5.88c-0.35,0.79-0.16,2.03,0.9,2.2c3.54,0.59,7.17-1.04,8.8-4.31
				c0.88-1.77-1.43-3.02-2.59-1.51c-1.38,1.8-2.76,3.59-4.14,5.39c0.91,0.39,1.83,0.77,2.74,1.16c0.92-2.33,1.98-4.6,3.16-6.81
				c0.78-1.46-1.14-3.09-2.36-1.82c-2.23,2.32-4.14,4.92-5.66,7.76c-0.71,1.33,0.72,2.78,2.05,2.05c3.2-1.74,5.5-4.86,6.14-8.45
				c0.3-1.69-1.74-2.58-2.74-1.16c-1.73,2.46-3.27,5.02-4.64,7.69c-0.87,1.71,1.64,3.21,2.59,1.51c1.27-2.26,2.36-4.61,3.3-7.02
				c0.53-1.36-1.59-2.61-2.51-1.46c-1.49,1.87-2.63,3.89-3.43,6.14c-0.62,1.72,1.81,2.42,2.74,1.16c1.7-2.3,3.71-4.34,5.93-6.13
				c-0.79-0.61-1.57-1.21-2.36-1.82c-1.36,2.71-2.72,5.43-4.08,8.14c0.91,0.39,1.83,0.77,2.74,1.16c1.17-2.92,2.33-5.84,3.5-8.77
				c-0.96-0.27-1.93-0.53-2.89-0.8c-0.85,2.18-1.7,4.35-2.55,6.53c-0.58,1.49,1.5,2.38,2.51,1.46c2.1-1.91,3.8-4.2,5.03-6.75
				c0.83-1.73-1.54-3.16-2.59-1.51c-1.78,2.81-3.56,5.62-5.34,8.43c-1.05,1.65,1.5,3.08,2.59,1.51c1.73-2.48,3.63-4.82,5.68-7.05
				c-0.79-0.61-1.57-1.21-2.36-1.82c-1.49,2.58-2.97,5.16-4.46,7.74c-0.82,1.43,1.23,3.16,2.36,1.82c2.64-3.13,4.58-6.7,5.72-10.64
				c0.34-1.18-1.11-2.48-2.2-1.69c-3.56,2.56-6.44,5.88-8.36,9.84c-0.74,1.53,1.05,2.98,2.36,1.82c2.88-2.56,5.75-5.11,8.63-7.67
				c-0.84-0.49-1.67-0.97-2.51-1.46c-1.15,2.8-3,5.2-5.3,7.15c0.79,0.61,1.57,1.21,2.36,1.82c1.56-2.88,3.13-5.77,4.69-8.65
				c-0.86-0.5-1.73-1.01-2.59-1.51c-1.67,3.31-3.13,6.72-4.38,10.21c-0.52,1.46,1.5,2.46,2.51,1.46c3.13-3.08,5.7-6.67,7.58-10.64
				c0.6-1.27-0.68-2.91-2.05-2.05c-3.92,2.45-6.28,6.43-8.45,10.38c-0.81,1.46,1.15,3.08,2.36,1.82c2.85-2.97,5.47-6.14,7.88-9.48
				c-0.86-0.5-1.73-1.01-2.59-1.51c-1.98,3.44-3.7,7.01-5.22,10.69c-0.67,1.63,1.87,2.52,2.74,1.16c2.02-3.14,3.52-6.58,4.45-10.2
				c0.42-1.64-1.86-2.63-2.74-1.16c-2.17,3.63-4.21,7.33-6.11,11.11c-0.72,1.42,1.24,3.23,2.36,1.82c2.67-3.36,4.68-7.1,5.96-11.21
				c0.5-1.6-1.99-2.7-2.74-1.16c-1.17,2.43-2.66,4.63-4.51,6.59c0.84,0.49,1.67,0.97,2.51,1.46c0.75-1.81,1.67-3.55,2.68-5.23
				c-0.86-0.5-1.73-1.01-2.59-1.51c-1.54,2.91-2.78,5.97-3.71,9.13c-0.34,1.16,1.12,2.5,2.2,1.69c4.19-3.13,7.63-7.07,10.05-11.71
				c0.75-1.44-1.18-3.16-2.36-1.82c-3,3.45-5.62,7.2-7.79,11.23c-0.77,1.42,1.26,3.21,2.36,1.82c3.24-4.11,5.19-8.87,5.78-14.08
				c0.18-1.62-2.04-1.84-2.8-0.76c-1.85,2.66-3.16,5.64-3.9,8.79c-0.31,1.32,1.52,2.73,2.51,1.46c2.06-2.64,3.67-5.48,4.84-8.62
				c0.59-1.58-2.06-2.72-2.74-1.16c-1.55,3.56-3.1,7.12-4.65,10.68c-0.77,1.77,1.43,3.08,2.59,1.51c2.24-3.01,4.47-6.02,6.71-9.02
				c1.16-1.56-1.43-3.01-2.59-1.51c-2.53,3.28-4.83,6.73-6.89,10.32c-0.89,1.56,1.08,2.85,2.36,1.82c3.38-2.75,5.68-6.69,6.42-10.98
				c0.23-1.36-1.4-2.66-2.51-1.46c-2.81,3.05-4.86,6.64-6.05,10.61c-0.37,1.24,1.1,2.38,2.2,1.69c3.94-2.45,6.82-6.23,8.13-10.68
				c0.42-1.43-1.47-2.53-2.51-1.46c-2.28,2.36-4.38,4.87-6.32,7.52c-1.08,1.47,1.14,2.82,2.36,1.82c2.83-2.34,5.49-4.87,7.98-7.58
				c-0.79-0.61-1.57-1.21-2.36-1.82c-1.71,2.59-3.56,5.09-5.55,7.47c-1.22,1.46,0.82,3.58,2.12,2.12c2.42-2.72,4.85-5.45,7.27-8.17
				c1.28-1.43-0.74-3.5-2.12-2.12c-3.8,3.8-7.6,7.6-11.4,11.39c0.71,0.71,1.41,1.41,2.12,2.12c1.09-1.25,2.27-2.39,3.57-3.42
				c-0.79-0.61-1.57-1.21-2.36-1.82c-0.84,1.4-1.74,2.75-2.69,4.08c-1.03,1.43,1.16,2.94,2.36,1.82c2.89-2.7,5.64-5.55,8.23-8.54
				c-0.71-0.71-1.41-1.41-2.12-2.12c-1.19,1.44-2.38,2.89-3.57,4.33c-0.99,1.21,0.31,3.41,1.82,2.36c2.26-1.59,4.38-3.35,6.34-5.31
				c1.37-1.37-0.74-3.47-2.12-2.12c-1.52,1.47-3.03,2.95-4.55,4.42c-1.39,1.35,0.7,3.42,2.12,2.12c2.18-1.98,4.35-3.97,6.53-5.95
				c-0.79-0.61-1.57-1.21-2.36-1.82c-1.15,1.58-2.31,3.16-3.46,4.74c-1.06,1.45,1.15,2.87,2.36,1.82c2.17-1.88,4.21-3.89,6.14-6.01
				c-0.71-0.71-1.41-1.41-2.12-2.12c-1.42,1.73-2.96,3.33-4.62,4.82c-1.26,1.12,0.4,3.31,1.82,2.36c2.25-1.51,4.35-3.22,6.29-5.11
				c-0.71-0.71-1.41-1.41-2.12-2.12c-2.04,2.17-3.9,4.51-5.56,6.98c-0.87,1.29,0.81,2.75,2.05,2.05c3.21-1.81,6.09-4.14,8.51-6.93
				c1.05-1.21-0.32-3.37-1.82-2.36c-2.65,1.79-5.11,3.82-7.35,6.11c0.79,0.61,1.57,1.21,2.36,1.82c1.2-2.05,2.79-3.79,4.74-5.15
				c-0.61-0.79-1.21-1.57-1.82-2.36c-2.27,2-4.54,4-6.82,6c-1.26,1.11,0.42,3.35,1.82,2.36c2.16-1.54,4.33-3.07,6.49-4.61
				c1.58-1.12,0.24-3.4-1.51-2.59c-3.83,1.77-7.66,3.54-11.48,5.31c0.5,0.86,1.01,1.73,1.51,2.59c4.88-2.27,9.75-4.54,14.63-6.81
				c-0.61-0.79-1.21-1.57-1.82-2.36c-1.73,2.07-3.58,4.03-5.53,5.89c0.71,0.71,1.41,1.41,2.12,2.12c2.34-2.43,4.69-4.86,7.03-7.29
				c-0.71-0.71-1.41-1.41-2.12-2.12c-1.95,2.15-3.9,4.3-5.85,6.45c-1.3,1.43,0.68,3.42,2.12,2.12c2.14-1.93,4.29-3.86,6.43-5.79
				c1.25-1.12-0.41-3.35-1.82-2.36c-2.81,1.99-5.63,3.98-8.44,5.97c0.5,0.86,1.01,1.73,1.51,2.59c3.24-2.39,6.02-5.23,8.34-8.53
				c1.05-1.5-1.14-2.81-2.36-1.82c-1.67,1.36-3.34,2.72-5,4.08c-1.32,1.08,0.4,3.27,1.82,2.36c2.13-1.37,4.29-2.69,6.48-3.96
				c-0.73-0.56-1.47-1.13-2.2-1.69c-0.14,0.49-0.28,0.99-0.41,1.48c-0.42,1.51,1.42,2.42,2.51,1.46c0.92-0.81,1.65-1.78,2.15-2.9
				c0.62-1.38-0.65-2.73-2.05-2.05c-0.55,0.26-1.1,0.53-1.65,0.79c0.5,0.86,1.01,1.73,1.51,2.59c1.28-0.84,2.31-1.9,3.06-3.24
				c0.79-1.41-0.74-2.62-2.05-2.05c-2.49,1.09-4.77,2.68-6.64,4.66c-0.89,0.94-1.68,1.98-2.38,3.06c-0.64,0.99-1.25,2.35-2.45,2.72
				c-1.56,0.48-1.35,3.04,0.4,2.95c0.45-0.02,0.91-0.05,1.36-0.07c-0.35-0.85-0.71-1.71-1.06-2.56c-0.82,0.94-1.63,1.89-2.45,2.83
				c-0.92,1.06-0.07,2.99,1.46,2.51c2.38-0.75,4.5-2.05,6.2-3.88c1.17-1.26-0.3-3.14-1.82-2.36c-1.69,0.88-3.38,1.76-5.07,2.63
				c-1.73,0.9-0.21,3.39,1.51,2.59c3.07-1.43,5.88-3.29,8.43-5.52c1.27-1.11-0.4-3.31-1.82-2.36c-3.07,2.08-5.96,4.4-8.64,6.96
				c-1.25,1.2,0.34,3.17,1.82,2.36c2.3-1.26,4.37-2.88,6.15-4.8c1.31-1.41-0.74-3.48-2.12-2.12c-1.66,1.63-3.08,3.47-4.25,5.49
				c-0.77,1.32,0.75,2.76,2.05,2.05c2.36-1.28,4.26-3.22,5.5-5.6c0.79-1.53-1.07-2.95-2.36-1.82c-1.23,1.09-2.28,2.35-3.15,3.74
				c-0.78,1.24,0.8,2.89,2.05,2.05c1.18-0.79,2.27-1.68,3.25-2.7c-0.71-0.71-1.41-1.41-2.12-2.12c-0.77,0.89-1.48,1.83-2.13,2.81
				c-1.07,1.61,1.52,3.12,2.59,1.51c0.51-0.77,1.06-1.5,1.66-2.2c1.24-1.45-0.77-3.53-2.12-2.12c-0.81,0.85-1.67,1.59-2.64,2.23
				c0.68,0.68,1.37,1.37,2.05,2.05c0.74-1.19,1.63-2.21,2.68-3.13c-0.79-0.61-1.57-1.21-2.36-1.82c-1.02,1.96-2.49,3.47-4.42,4.52
				c0.68,0.68,1.37,1.37,2.05,2.05c1.05-1.81,2.29-3.41,3.78-4.88c-0.71-0.71-1.41-1.41-2.12-2.12c-1.62,1.75-3.46,3.18-5.55,4.33
				c0.61,0.79,1.21,1.57,1.82,2.36c2.5-2.39,5.17-4.55,8.03-6.49c-0.61-0.79-1.21-1.57-1.82-2.36c-2.36,2.06-4.98,3.73-7.82,5.05
				c0.5,0.86,1.01,1.73,1.51,2.59c1.69-0.88,3.38-1.76,5.07-2.63c-0.61-0.79-1.21-1.57-1.82-2.36c-1.36,1.46-2.97,2.51-4.88,3.11
				c0.49,0.84,0.97,1.67,1.46,2.51c0.82-0.94,1.63-1.89,2.45-2.83c0.79-0.91,0.33-2.63-1.06-2.56c-0.45,0.02-0.91,0.05-1.36,0.07
				c0.13,0.98,0.27,1.96,0.4,2.95c2.76-0.85,3.69-3.62,5.39-5.68c1.84-2.23,4.17-3.91,6.81-5.06c-0.68-0.68-1.37-1.37-2.05-2.05
				c-0.5,0.89-1.13,1.6-1.98,2.16c-1.63,1.07-0.22,3.42,1.51,2.59c0.55-0.26,1.1-0.53,1.65-0.79c-0.68-0.68-1.37-1.37-2.05-2.05
				c-0.42,0.92-0.92,1.62-1.68,2.3c0.84,0.49,1.67,0.97,2.51,1.46c0.14-0.49,0.28-0.99,0.41-1.48c0.36-1.27-1.08-2.34-2.2-1.69
				c-2.19,1.27-4.35,2.58-6.48,3.96c0.61,0.79,1.21,1.57,1.82,2.36c1.67-1.36,3.34-2.72,5-4.08c-0.79-0.61-1.57-1.21-2.36-1.82
				c-2,2.85-4.46,5.38-7.26,7.45c-1.53,1.13-0.08,3.72,1.51,2.59c2.81-1.99,5.63-3.98,8.44-5.97c-0.61-0.79-1.21-1.57-1.82-2.36
				c-2.14,1.93-4.29,3.86-6.43,5.79c0.71,0.71,1.41,1.41,2.12,2.12c1.95-2.15,3.9-4.3,5.85-6.45c1.29-1.42-0.77-3.52-2.12-2.12
				c-2.34,2.43-4.69,4.86-7.03,7.29c-1.34,1.39,0.72,3.45,2.12,2.12c1.96-1.86,3.8-3.82,5.53-5.89c1.11-1.32-0.25-3.09-1.82-2.36
				c-4.88,2.27-9.75,4.54-14.63,6.81c-1.75,0.81-0.23,3.4,1.51,2.59c3.83-1.77,7.66-3.54,11.48-5.31c-0.5-0.86-1.01-1.73-1.51-2.59
				c-2.16,1.54-4.33,3.07-6.49,4.61c0.61,0.79,1.21,1.57,1.82,2.36c2.27-2,4.54-4,6.82-6c1.26-1.11-0.41-3.33-1.82-2.36
				c-2.38,1.65-4.35,3.72-5.82,6.22c-0.86,1.46,1.16,3.05,2.36,1.82c2.06-2.11,4.3-4,6.74-5.64c-0.61-0.79-1.21-1.57-1.82-2.36
				c-2.26,2.61-4.89,4.77-7.9,6.46c0.68,0.68,1.37,1.37,2.05,2.05c1.53-2.26,3.22-4.38,5.1-6.37c1.32-1.41-0.74-3.48-2.12-2.12
				c-1.76,1.72-3.64,3.27-5.68,4.64c0.61,0.79,1.21,1.57,1.82,2.36c1.67-1.49,3.21-3.09,4.62-4.82c1.2-1.47-0.8-3.57-2.12-2.12
				c-1.93,2.12-3.98,4.13-6.14,6.01c0.79,0.61,1.57,1.21,2.36,1.82c1.15-1.58,2.31-3.16,3.46-4.74c1.05-1.43-1.16-2.91-2.36-1.82
				c-2.18,1.98-4.35,3.97-6.53,5.95c0.71,0.71,1.41,1.41,2.12,2.12c1.52-1.47,3.03-2.95,4.55-4.42c-0.71-0.71-1.41-1.41-2.12-2.12
				c-1.77,1.78-3.68,3.4-5.73,4.84c0.61,0.79,1.21,1.57,1.82,2.36c1.19-1.44,2.38-2.89,3.57-4.33c1.21-1.47-0.84-3.59-2.12-2.12
				c-2.6,2.99-5.34,5.84-8.23,8.54c0.79,0.61,1.57,1.21,2.36,1.82c0.96-1.32,1.85-2.68,2.69-4.08c0.94-1.56-1.1-2.82-2.36-1.82
				c-1.3,1.03-2.48,2.17-3.57,3.42c-1.25,1.44,0.74,3.5,2.12,2.12c3.8-3.8,7.6-7.6,11.4-11.39c-0.71-0.71-1.41-1.41-2.12-2.12
				c-2.42,2.72-4.85,5.45-7.27,8.17c0.71,0.71,1.41,1.41,2.12,2.12c2.15-2.58,4.16-5.28,6.01-8.08c0.94-1.42-1.2-3.07-2.36-1.82
				c-2.49,2.7-5.15,5.23-7.98,7.58c0.79,0.61,1.57,1.21,2.36,1.82c1.79-2.44,3.75-4.74,5.85-6.91c-0.84-0.49-1.67-0.97-2.51-1.46
				c-1.09,3.7-3.48,6.84-6.75,8.89c0.73,0.56,1.47,1.13,2.2,1.69c1.04-3.47,2.82-6.62,5.28-9.29c-0.84-0.49-1.67-0.97-2.51-1.46
				c-0.66,3.86-2.61,7.19-5.64,9.66c0.79,0.61,1.57,1.21,2.36,1.82c2.06-3.6,4.36-7.04,6.89-10.32c-0.86-0.5-1.73-1.01-2.59-1.51
				c-2.24,3.01-4.47,6.02-6.71,9.02c0.86,0.5,1.73,1.01,2.59,1.51c1.55-3.56,3.1-7.12,4.65-10.68c-0.91-0.39-1.83-0.77-2.74-1.16
				c-0.98,2.62-2.35,5.1-4.07,7.3c0.84,0.49,1.67,0.97,2.51,1.46c0.68-2.93,1.88-5.61,3.59-8.07c-0.93-0.25-1.86-0.5-2.8-0.76
				c-0.49,4.33-2.2,8.53-4.9,11.95c0.79,0.61,1.57,1.21,2.36,1.82c2.05-3.81,4.48-7.36,7.32-10.62c-0.79-0.61-1.57-1.21-2.36-1.82
				c-2.18,4.16-5.21,7.82-8.98,10.63c0.73,0.56,1.47,1.13,2.2,1.69c0.86-2.92,1.99-5.72,3.4-8.41c0.9-1.71-1.59-3.17-2.59-1.51
				c-1.15,1.91-2.13,3.89-2.98,5.95c-0.59,1.42,1.54,2.49,2.51,1.46c2.01-2.14,3.7-4.55,4.98-7.2c-0.91-0.39-1.83-0.77-2.74-1.16
				c-1.12,3.58-2.86,6.94-5.19,9.88c0.79,0.61,1.57,1.21,2.36,1.82c1.91-3.77,3.95-7.48,6.11-11.11c-0.91-0.39-1.83-0.77-2.74-1.16
				c-0.87,3.39-2.25,6.54-4.14,9.48c0.91,0.39,1.83,0.77,2.74,1.16c1.41-3.43,3.07-6.75,4.91-9.97c0.98-1.71-1.48-3.05-2.59-1.51
				c-2.26,3.13-4.74,6.08-7.41,8.87c0.79,0.61,1.57,1.21,2.36,1.82c1.91-3.47,3.92-7.14,7.38-9.3c-0.68-0.68-1.37-1.37-2.05-2.05
				c-1.78,3.75-4.15,7.12-7.12,10.03c0.84,0.49,1.67,0.97,2.51,1.46c1.17-3.25,2.53-6.41,4.08-9.49c0.86-1.71-1.66-3.22-2.59-1.51
				c-1.56,2.88-3.13,5.77-4.69,8.65c-0.84,1.55,1.07,2.9,2.36,1.82c2.72-2.3,4.72-5.19,6.07-8.47c0.62-1.5-1.51-2.35-2.51-1.46
				c-2.88,2.56-5.75,5.11-8.63,7.67c0.79,0.61,1.57,1.21,2.36,1.82c1.69-3.48,4.14-6.49,7.28-8.76c-0.73-0.56-1.47-1.13-2.2-1.69
				c-0.99,3.42-2.65,6.59-4.95,9.31c0.79,0.61,1.57,1.21,2.36,1.82c1.49-2.58,2.97-5.16,4.46-7.74c0.83-1.45-1.18-3.1-2.36-1.82
				c-2.22,2.41-4.27,4.97-6.15,7.66c0.86,0.5,1.73,1.01,2.59,1.51c1.78-2.81,3.56-5.62,5.34-8.43c-0.86-0.5-1.73-1.01-2.59-1.51
				c-1.13,2.35-2.64,4.39-4.56,6.15c0.84,0.49,1.67,0.97,2.51,1.46c0.85-2.18,1.7-4.35,2.55-6.53c0.71-1.8-2.19-2.57-2.89-0.8
				c-1.17,2.92-2.33,5.84-3.5,8.77c-0.63,1.57,1.98,2.67,2.74,1.16c1.36-2.71,2.72-5.43,4.08-8.14c0.79-1.58-1.04-2.88-2.36-1.82
				c-2.44,1.96-4.55,4.22-6.4,6.74c0.91,0.39,1.83,0.77,2.74,1.16c0.62-1.74,1.51-3.37,2.66-4.82c-0.84-0.49-1.67-0.97-2.51-1.46
				c-0.85,2.17-1.86,4.27-3,6.3c0.86,0.5,1.73,1.01,2.59,1.51c1.36-2.67,2.91-5.24,4.64-7.69c-0.91-0.39-1.83-0.77-2.74-1.16
				c-0.52,2.88-2.19,5.26-4.77,6.66c0.68,0.68,1.37,1.37,2.05,2.05c1.41-2.62,3.13-5.01,5.19-7.15c-0.79-0.61-1.57-1.21-2.36-1.82
				c-1.3,2.44-2.45,4.96-3.47,7.53c-0.27,0.69,0.25,1.51,0.87,1.77c0.74,0.31,1.41-0.01,1.87-0.61c1.38-1.8,2.76-3.59,4.14-5.39
				c-0.86-0.5-1.73-1.01-2.59-1.51c-0.99,1.99-3.16,3.31-5.42,2.94c0.3,0.73,0.6,1.47,0.9,2.2c0.97-2.18,2.54-3.79,4.7-4.8
				c-0.75-0.43-1.5-0.86-2.26-1.3c-0.24,2.4-0.6,4.77-1.09,7.13c-0.38,1.88,2.41,2.69,2.89,0.8c0.48-1.89,0.96-3.78,1.44-5.68
				c0.31-1.23-1.06-2.41-2.2-1.69c-1.98,1.24-4.05,2.31-6.23,3.16c0.49,0.84,0.97,1.67,1.46,2.51c1.83-1.54,3.65-3.09,5.48-4.63
				c-0.85-0.35-1.71-0.71-2.56-1.06c-0.18,2.16-0.41,4.31-0.72,6.46c-0.2,1.42,1.33,2.56,2.51,1.46c2.69-2.51,5.38-5.03,8.07-7.54
				c1.33-1.25-0.36-3.01-1.82-2.36c-2.66,1.19-5.03,2.93-6.97,5.1c-0.83,0.93-0.3,2.59,1.06,2.56c7.49-0.18,14.04-4.08,21.18-5.82
				c1.88-0.46,1.08-3.32-0.8-2.89c-7.23,1.64-14.22,4.12-20.89,7.36c-1.61,0.78-0.42,3.05,1.16,2.74c8.3-1.63,16.33-4.42,23.88-8.24
				c1.65-0.83,0.39-2.96-1.16-2.74c-6.75,0.97-13.39,2.58-19.83,4.81c-1.82,0.63-1.1,3.3,0.8,2.89c6.68-1.42,13.31-3.07,19.82-5.16
				c1.54-0.49,1.36-3.05-0.4-2.95c-7.97,0.45-15.88,1.59-23.66,3.39c-1.89,0.44-1.08,3.26,0.8,2.89c4.15-0.81,8.29-1.62,12.44-2.44
				c2.03-0.4,4.06-0.8,6.1-1.19c1.81-0.36,3.48-0.62,4.97-1.77c1.1-0.85,0.11-2.52-1.06-2.56c-6.6-0.22-13.21,0.7-19.5,2.72
				c-1.6,0.51-1.33,2.92,0.4,2.95c4.74,0.08,9.49-0.09,14.21-0.56c2.29-0.23,4.58-0.52,6.86-0.87c1.78-0.27,4.12-0.3,4.76-2.34
				c0.3-0.95-0.5-1.89-1.45-1.9c-4.09-0.05-8.18,0.35-12.25,0.65c-4.05,0.3-8.09,0.6-12.14,0.89c-1.91,0.14-1.95,2.97,0,3
				c6.65,0.12,13.31,0.17,19.88-0.98c1.65-0.29,1.29-3.12-0.4-2.95c-7.87,0.81-15.73,1.62-23.6,2.43c-1.88,0.19-1.97,3.05,0,3
				c5.29-0.13,10.57-0.26,15.86-0.39c0-1,0-2,0-3c-5.19,0.44-10.37,0.88-15.56,1.33c-1.92,0.16-1.94,2.86,0,3
				c1.66,0.12,3.29-0.02,4.93-0.36c1.67-0.35,1.27-2.96-0.4-2.95c-2.34,0.02-4.62,0.45-6.79,1.34c-1.73,0.71-1.12,3.43,0.8,2.89
				c0.61-0.17,1.19-0.29,1.82-0.33c-0.35-0.85-0.71-1.71-1.06-2.56c-0.7,0.59-1.5,0.87-2.41,0.91c0.25,0.93,0.5,1.86,0.76,2.8
				c0.9-0.59,1.98-0.82,3.01-0.37C355.27,134.12,356.79,131.54,355.03,130.75L355.03,130.75z"/>
		</g>
	</g>
	<g>
		<g>
			<path class="st0" d="M325.25,198.62c0.86,0.82,1.86,1.41,2.99,1.77c0.13-0.98,0.27-1.96,0.4-2.95c-0.39,0.01,0.13,0.08-0.24-0.03
				c0.2,0.06-0.19-0.12-0.04,0c-0.04-0.03-0.29-0.33-0.19-0.18c-0.14-0.21-0.02,0.02-0.08-0.24c-0.73,0.56-1.47,1.13-2.2,1.69
				c0.74,0.33,1.47,0.65,2.21,0.98c0.74,0.33,1.61,0.21,2.05-0.54c0.45-0.77,0.11-1.56-0.54-2.05c-0.63-0.48-1.25-0.95-1.88-1.43
				c-0.12,0.91-0.24,1.83-0.36,2.74c-0.26,0.07-0.38-0.04-0.02,0.1c0.17,0.06,0.33,0.13,0.5,0.19c0.33,0.13,0.67,0.25,1,0.38
				c1.24,0.47,2.36-1.15,1.69-2.2c-0.75-1.19-1.85-2.03-3.2-2.43c-0.64-0.19-1.36,0.12-1.69,0.69c-0.31,0.54-0.27,1.4,0.23,1.82
				c0.51,0.42,1.05,0.7,1.7,0.86c0.23,0.06,0.46,0.1,0.69,0.16c0.34,0.09,0.19,0.02,0.48,0.22c0.61,0.42,1.52,0.17,1.94-0.39
				c0.47-0.63,0.38-1.38-0.12-1.97c-0.72-0.84-1.43-1.69-2.15-2.53c-0.49,0.84-0.97,1.67-1.46,2.51c0.77,0.28,1.48,0.69,2.15,1.16
				c0.6,0.42,1.52,0.17,1.94-0.39c0.46-0.62,0.39-1.39-0.12-1.97c-0.69-0.78-1.52-1.29-2.47-1.68c-0.6-0.25-1.39,0.17-1.69,0.69
				c-0.35,0.6-0.21,1.31,0.23,1.82c0.94,1.07,2.1,1.63,3.53,1.43c1.07-0.15,1.5-1.85,0.66-2.51c-0.99-0.78-1.98-1.55-2.97-2.33
				c0,0.71,0,1.41,0,2.12c0.03-0.03,0.07-0.06,0.1-0.09c-0.22,0.13-0.44,0.26-0.66,0.39c-0.16,0.06-0.35-0.12-0.09,0.05
				c0.16,0.11,0.36,0.18,0.53,0.28c0.35,0.2,0.68,0.43,0.98,0.7c1.43,1.28,3.48-0.73,2.12-2.12c-0.95-0.97-1.99-1.83-3.09-2.62
				c-0.39,0.91-0.77,1.83-1.16,2.74c0.71,0.13,1.23,0.48,1.9,0.96c0.66,0.47,1.29,0.96,2.04,1.27c0.69,0.29,1.45,0.26,1.94-0.39
				c0.4-0.54,0.48-1.5-0.12-1.97c-0.69-0.54-1.38-1.08-2.07-1.62c-0.35-0.27-0.69-0.54-1.04-0.81c-0.27-0.21-0.57-0.4-0.67-0.6
				c-0.08,0.61-0.16,1.21-0.23,1.82c0.04-0.03,0.07-0.06,0.11-0.09c-0.22,0.13-0.44,0.26-0.66,0.39c-0.54-0.14-0.73-0.17-0.55-0.09
				c0.11,0.09,0.21,0.19,0.32,0.28c0.16,0.14,0.32,0.28,0.48,0.42c0.37,0.32,0.75,0.65,1.12,0.97c0.82,0.71,2.22,0.5,2.51-0.66
				c0.38-1.55-0.82-2.58-1.85-3.51c-0.95-0.85-1.97-1.64-3.03-2.35c0,0.86,0,1.73,0,2.59c0.35-0.23-0.2-0.02-0.22-0.01
				c-0.08,0.05,0.21,0.06,0.06,0c0.16,0.07,0.3,0.2,0.46,0.41c-0.01-0.01,0.2,0.36,0.27,0.49c0.16,0.31,0.19,0.39,0.3,0.68
				c0.28,0.69,0.85,1.19,1.65,1.07c0.8-0.12,1.2-0.71,1.3-1.47c0.27-2.03-0.87-4.09-2.61-5.1c-0.85-0.49-1.94-0.03-2.2,0.9
				c-0.33,1.14,0.32,2,0.95,2.88c0.57,0.8,1.14,1.61,1.71,2.41c0.47,0.66,1.31,0.97,2.05,0.54c0.73-0.43,0.91-1.33,0.54-2.05
				c-0.61-1.19-1.22-2.38-1.84-3.56c-0.34-0.66-1.23-0.9-1.87-0.61c-0.61,0.27-1.16,1.07-0.87,1.77c0.54,1.3,0.86,2.68,1.49,3.94
				c0.57,1.15,1.82,2.96,3.34,2.54c1.84-0.51,1.37-2.85,0.92-4.18c-0.45-1.35-1.07-2.65-1.84-3.84c-0.77-1.19-2.86-0.8-2.8,0.76
				c0.05,1.13,0.23,2.26,0.6,3.33c0.34,0.98,0.85,2.5,1.81,3.06c0.77,0.45,1.8,0.19,2.27-0.57c0.35-0.56,0.29-1.17,0.21-1.8
				c-0.15-1.25-0.35-2.49-0.63-3.71c-0.37-1.62-3.08-1.31-2.95,0.4c0.06,0.83,0.13,1.66,0.3,2.47c0.15,0.76,0.39,1.69,0.96,2.24
				c0.9,0.87,2.27,0.38,2.79-0.62c0.4-0.77,0.59-1.7,0.72-2.54c0.11-0.74-0.12-1.47-0.87-1.77c-0.66-0.26-1.53-0.06-1.87,0.61
				c-0.37,0.72-0.66,1.47-0.84,2.25c-0.15,0.65,0.1,1.35,0.69,1.69c0.53,0.31,1.4,0.27,1.82-0.23c0.77-0.94,1.81-2.17,1.42-3.47
				c-0.43-1.43-2.17-1.96-3.4-1.23c-1.21,0.71-1.85,2.47-0.73,3.55c0.55,0.53,1.33,0.57,2.04,0.66c0.63,0.08,1.26,0.14,1.89,0.17
				c0-1,0-2,0-3c-0.69,0.07-1.39,0.09-2.08,0.07c0.13,0.98,0.27,1.96,0.4,2.95c0.21-0.06,0.38-0.11,0.59-0.13
				c0.81-0.05,1.5-0.65,1.5-1.5c0-0.77-0.69-1.55-1.5-1.5c-0.47,0.03-0.94,0.09-1.39,0.23c-1.62,0.5-1.31,2.89,0.4,2.95
				c0.7,0.02,1.39,0,2.08-0.07c0.81-0.08,1.5-0.63,1.5-1.5c0-0.85-0.69-1.46-1.5-1.5c-0.45-0.02-0.89-0.06-1.34-0.1
				c-0.16-0.02-0.33-0.04-0.49-0.06c-0.07-0.01-0.15-0.02-0.22-0.03c-0.25-0.06-0.21-0.02,0.14,0.14c0.13,0.22,0.26,0.44,0.39,0.66
				c0.16,0.43-0.12,0.67-0.46,0.66c-0.37-0.01-1.2-0.61-0.7-1.04c-0.26,0.24-0.42,0.69-0.65,0.97c0.84,0.49,1.67,0.97,2.51,1.46
				c0.12-0.54,0.29-1.05,0.54-1.54c-0.91-0.39-1.83-0.77-2.74-1.16c-0.06,0.37-0.13,0.74-0.23,1.11c-0.04,0.17-0.09,0.33-0.14,0.49
				c-0.02,0.07-0.04,0.13-0.06,0.2c-0.14,0.33-0.06,0.28,0.25-0.17c0.39-0.05,0.77-0.1,1.16-0.15c-0.04-0.01-0.09-0.01-0.13-0.02
				c0.22,0.13,0.44,0.26,0.66,0.39c0.25,0.24,0.03-0.07-0.02-0.25c-0.09-0.28-0.15-0.57-0.2-0.86c-0.09-0.48-0.12-0.98-0.15-1.48
				c-0.98,0.13-1.96,0.27-2.95,0.4c0.15,0.66,0.29,1.32,0.39,1.98c0.04,0.24,0.08,0.47,0.11,0.71c0.02,0.19,0.04,0.37,0.06,0.56
				c0.01,0.07,0.02,0.15,0.02,0.22c0.01,0.24,0.05,0.15,0.14-0.27c0.18-0.18,0.36-0.36,0.54-0.54c-0.03,0.02-0.07,0.03-0.1,0.05
				c0.39-0.05,0.77-0.1,1.16-0.15c-0.04-0.01-0.08-0.02-0.12-0.02c0.22,0.13,0.44,0.26,0.66,0.39c0.09,0.17,0.08,0.15-0.04-0.05
				c-0.03-0.06-0.07-0.11-0.1-0.17c-0.1-0.17-0.19-0.35-0.28-0.53c-0.16-0.33-0.29-0.67-0.4-1.03c-0.23-0.74-0.37-1.47-0.4-2.25
				c-0.93,0.25-1.86,0.5-2.8,0.76c0.47,0.72,0.89,1.47,1.22,2.26c0.17,0.41,0.32,0.83,0.44,1.25c0.06,0.2,0.13,0.41,0.16,0.62
				c0.03,0.07,0.04,0.15,0.02,0.23c-0.03,0.32,0,0.28,0.08-0.12c0.18-0.18,0.36-0.36,0.54-0.54c-0.04,0.02-0.07,0.03-0.11,0.05
				c0.25-0.07,0.5-0.14,0.76-0.2c-0.04,0-0.08-0.01-0.13-0.01c0.25,0.07,0.5,0.14,0.76,0.2c-0.16-0.07-0.39-0.32-0.56-0.57
				c-0.23-0.32-0.44-0.74-0.57-1.06c-0.4-0.95-0.64-1.95-1.03-2.9c-0.91,0.39-1.83,0.77-2.74,1.16c0.61,1.19,1.22,2.38,1.84,3.56
				c0.86-0.5,1.73-1.01,2.59-1.51c-0.44-0.62-0.88-1.24-1.32-1.85c-0.2-0.28-0.4-0.56-0.59-0.83c-0.11-0.15-0.22-0.31-0.33-0.46
				c-0.03-0.05-0.07-0.1-0.1-0.15c-0.15-0.31-0.16-0.2-0.02,0.32c-0.73,0.3-1.47,0.6-2.2,0.9c0.91,0.53,1.27,1.42,1.12,2.51
				c0.98-0.13,1.96-0.27,2.95-0.4c-0.41-1.03-0.85-2.11-1.7-2.85c-0.98-0.85-2.43-1.26-3.59-0.5c-0.98,0.64-0.95,1.95,0,2.59
				c0.68,0.46,1.34,0.95,1.97,1.48c0.31,0.26,0.61,0.54,0.91,0.81c0.15,0.14,0.3,0.28,0.44,0.42c0.45,0.45,0.07,0.26,0.19-0.24
				c0.84-0.22,1.67-0.44,2.51-0.66c-0.67-0.58-1.32-1.17-2-1.73c-0.97-0.81-2.04-0.97-3.07-0.14c-0.54,0.44-0.5,1.26-0.23,1.82
				c0.39,0.82,1.31,1.34,2,1.88c0.75,0.58,1.5,1.17,2.25,1.75c0.61-0.79,1.21-1.57,1.82-2.36c-1.65-0.7-2.83-2.19-4.66-2.54
				c-1.69-0.32-2.57,1.75-1.16,2.74c0.9,0.63,1.72,1.36,2.49,2.15c0.71-0.71,1.41-1.41,2.12-2.12c-1.31-1.17-3.46-2.71-5.11-1.33
				c-0.57,0.48-0.6,1.65,0,2.12c0.99,0.78,1.98,1.55,2.97,2.33c0.22-0.84,0.44-1.67,0.66-2.51c0.28-0.04,0.07-0.03-0.13-0.17
				c-0.08-0.06-0.35-0.34-0.48-0.49c-0.49,0.84-0.97,1.67-1.46,2.51c0.42,0.18,0.81,0.54,1.14,0.91c0.61-0.79,1.21-1.57,1.82-2.36
				c-0.89-0.62-1.85-1.09-2.87-1.46c-0.62-0.22-1.38,0.15-1.69,0.69c-0.35,0.61-0.2,1.31,0.23,1.82c0.72,0.84,1.43,1.69,2.15,2.53
				c0.61-0.79,1.21-1.57,1.82-2.36c-0.42-0.29-0.93-0.46-1.43-0.58c-0.2-0.05-0.41-0.09-0.61-0.14c-0.03-0.01-0.29-0.07-0.18-0.05
				c0.13,0.03-0.21-0.15-0.04,0c-0.49,0.84-0.97,1.67-1.46,2.51c0.6,0.17,1.07,0.51,1.41,1.05c0.56-0.73,1.13-1.47,1.69-2.2
				c-0.96-0.37-2.02-0.97-3.07-0.66c-0.57,0.17-1,0.66-1.07,1.25c-0.08,0.65,0.21,1.11,0.72,1.49c0.63,0.48,1.25,0.95,1.88,1.43
				c0.5-0.86,1.01-1.73,1.51-2.59c-0.74-0.33-1.47-0.65-2.21-0.98c-1.17-0.52-2.53,0.33-2.2,1.69c0.38,1.57,1.85,2.68,3.45,2.66
				c1.72-0.02,2-2.43,0.4-2.95c-0.61-0.2-1.18-0.53-1.66-1C325.98,195.17,323.85,197.28,325.25,198.62L325.25,198.62z"/>
		</g>
	</g>
	<g>
		<g>
			<path class="st0" d="M324.59,199.64c0.89,0.5,1.77,1.02,2.71,1.41c0.39-0.91,0.77-1.83,1.16-2.74c-0.22-0.07-0.44-0.14-0.65-0.23
				c0.12,0.05,0.24,0.1,0.36,0.15c-0.51-0.22-0.99-0.5-1.43-0.83c0.1,0.08,0.2,0.16,0.3,0.23c-0.12-0.09-0.24-0.19-0.35-0.29
				c-0.1-0.08-0.2-0.16-0.3-0.23c-0.17-0.11-0.36-0.17-0.56-0.18c-0.32-0.04-0.68,0-0.96,0.18c-0.22,0.14-0.4,0.32-0.54,0.54
				c-0.11,0.17-0.17,0.36-0.18,0.56c-0.04,0.2-0.04,0.4,0.03,0.6c0.15,0.44,0.36,0.79,0.68,1.13c0.16,0.17,0.34,0.32,0.53,0.46
				c0.48,0.38,0.97,0.75,1.49,1.07c0.5-0.86,1.01-1.73,1.51-2.59c-0.59-0.32-1.16-0.68-1.69-1.1c-0.17-0.11-0.36-0.17-0.56-0.18
				c-0.2-0.04-0.4-0.04-0.6,0.03c-0.35,0.1-0.73,0.36-0.9,0.69c-0.18,0.35-0.28,0.77-0.15,1.16c0.05,0.12,0.1,0.24,0.15,0.36
				c0.13,0.23,0.31,0.4,0.54,0.54c0.53,0.41,1.1,0.78,1.69,1.1c0.35,0.19,0.77,0.26,1.16,0.15c0.35-0.1,0.72-0.36,0.9-0.69
				c0.18-0.35,0.28-0.77,0.15-1.16c-0.12-0.38-0.35-0.69-0.69-0.9c-0.35-0.22-0.7-0.46-1.03-0.71c0.1,0.08,0.2,0.16,0.3,0.23
				c-0.28-0.22-0.57-0.44-0.8-0.72c0.08,0.1,0.16,0.2,0.23,0.3c-0.06-0.08-0.11-0.16-0.15-0.26c0.05,0.12,0.1,0.24,0.15,0.36
				c-0.01-0.03-0.02-0.05-0.03-0.08c-0.84,0.49-1.67,0.97-2.51,1.46c0.9,0.8,1.94,1.4,3.09,1.75c0.35,0.11,0.84,0.05,1.16-0.15
				c0.28-0.18,0.48-0.41,0.61-0.72c0.13-0.3,0.18-0.66,0.08-0.98c-0.11-0.34-0.34-0.75-0.69-0.9c-0.94-0.4-1.82-0.92-2.71-1.41
				c-0.34-0.19-0.77-0.26-1.16-0.15c-0.35,0.1-0.73,0.36-0.9,0.69c-0.18,0.35-0.28,0.77-0.15,1.16
				C324.02,199.11,324.25,199.44,324.59,199.64L324.59,199.64z"/>
		</g>
	</g>
	<g>
		<path class="st1" d="M518.27,168.39c-0.42,0-0.85-0.12-1.31-0.36c-0.31-0.16-0.61-0.36-0.89-0.59c-0.27-0.22-0.52-0.47-0.73-0.73
			c-0.38-0.47-0.57-0.98-0.57-1.51c0-0.64,0.16-1.29,0.48-1.92c0.26-0.53,0.59-1.01,0.97-1.45c0.36-0.42,0.73-0.77,1.11-1.07
			c0.6-0.46,1.17-0.68,1.76-0.68c0.67,0,1.34,0.19,1.99,0.56c0.52,0.3,0.97,0.64,1.34,1.01c0.98,0.98,0.64,1.98,0.52,2.27
			c-0.17,0.37-0.43,0.69-0.81,0.97c-0.1,0.08-0.3,0.27-0.65,0.63c-0.32,0.34-0.64,0.7-0.95,1.07c-0.21,0.26-0.28,0.37-0.29,0.39
			c-0.01,0.02-0.02,0.04-0.03,0.06c-0.08,0.22-0.21,0.54-0.49,0.82C519.36,168.2,518.87,168.39,518.27,168.39z"/>
		<path class="st0" d="M516.74,165.71c0.19,0.16,0.39,0.29,0.6,0.4c0.21,0.11,0.38,0.17,0.52,0.17s0.22-0.02,0.25-0.05
			s0.07-0.1,0.1-0.2c0.03-0.1,0.09-0.22,0.18-0.37c0.09-0.14,0.23-0.34,0.43-0.58c0.33-0.4,0.67-0.78,1.01-1.15
			c0.34-0.37,0.63-0.64,0.85-0.82c0.16-0.11,0.25-0.22,0.3-0.32c0.04-0.1-0.01-0.23-0.17-0.38c-0.27-0.27-0.59-0.51-0.98-0.73
			c-0.39-0.22-0.77-0.33-1.15-0.33c-0.2,0-0.44,0.11-0.73,0.33c-0.29,0.22-0.58,0.5-0.87,0.83c-0.29,0.33-0.53,0.7-0.73,1.1
			c-0.2,0.4-0.3,0.79-0.3,1.16c0,0.13,0.07,0.28,0.2,0.45C516.39,165.39,516.55,165.55,516.74,165.71z"/>
		<path class="st1" d="M546.42,190.76c-0.72,0-1.41-0.16-2.05-0.47c-0.51-0.25-0.96-0.56-1.36-0.94c-0.89,0.73-1.67,1.08-2.44,1.08
			c-0.7,0-1.39-0.15-2.02-0.43c-0.57-0.25-1.08-0.58-1.53-0.96c-0.45-0.39-0.83-0.82-1.11-1.29c-0.35-0.58-0.53-1.13-0.53-1.68
			c0-0.54,0.08-1.13,0.25-1.81c-0.4,0.45-0.78,0.91-1.15,1.36c-0.17,0.4-0.33,0.8-0.47,1.19c-0.15,0.43-0.29,0.85-0.41,1.25
			c-0.06,0.31-0.15,0.62-0.26,0.91c-0.34,0.89-1.13,1.44-2.08,1.44c-0.5,0-1.02-0.13-1.55-0.38c-0.43-0.21-0.85-0.48-1.23-0.82
			c-0.21-0.18-0.4-0.38-0.57-0.59c-0.29,0.2-0.59,0.39-0.88,0.56c-1.39,0.82-2.91,1.23-4.52,1.23c-0.91,0-1.77-0.2-2.55-0.6
			c-0.71-0.36-1.34-0.83-1.86-1.38c-0.2-0.21-0.38-0.42-0.54-0.64c-0.4,0.44-0.79,0.83-1.16,1.18c-1.05,0.98-1.95,1.44-2.84,1.44
			c-0.7,0-1.38-0.14-2.03-0.42c-0.58-0.25-1.1-0.57-1.54-0.95c-0.13-0.11-0.25-0.23-0.37-0.35c-0.1,0.1-0.21,0.2-0.31,0.29
			c-1.06,0.98-1.96,1.43-2.84,1.43c-0.72,0-1.41-0.16-2.06-0.46c-0.56-0.26-1.06-0.59-1.5-0.96c-0.45-0.39-0.82-0.81-1.09-1.25
			c-0.37-0.58-0.54-1.13-0.54-1.68c0-0.79,0.18-1.71,0.55-2.83c0.33-1,0.77-2.06,1.3-3.15c0.52-1.07,1.1-2.16,1.75-3.24
			c0.65-1.09,1.31-2.08,1.96-2.96c0.67-0.9,1.32-1.65,1.93-2.24c0.33-0.31,0.76-0.68,1.27-0.94c-0.05-0.25-0.08-0.52-0.1-0.79
			c-0.02-0.57,0.13-1.15,0.45-1.75c0.39-0.78,1.24-1.12,1.93-1.33c0.61-0.18,1.33-0.33,2.21-0.45c0.81-0.11,1.74-0.21,2.77-0.29
			c0.77-0.06,1.57-0.11,2.38-0.15c0.43-0.47,0.82-0.86,1.17-1.18c0.49-0.44,1.24-1.02,2.15-1.02c0.83,0,1.61,0.23,2.33,0.67
			c0.56,0.35,0.99,0.68,1.33,1.02c0.19,0.19,0.34,0.39,0.46,0.59c0.4,0.04,0.77,0.08,1.11,0.13c1.01,0.15,1.72,0.35,2.23,0.64
			l0.05,0.03l0.05,0.03c0.44,0.29,0.79,0.69,1.04,1.17c0.19,0.37,0.34,0.77,0.42,1.19c0.08,0.41,0.12,0.8,0.1,1.19
			c-0.02,0.52-0.15,0.97-0.37,1.36l-0.03,0.06c-0.06,0.09-0.12,0.18-0.19,0.27c0.27,0.22,0.52,0.45,0.73,0.68
			c0.14,0.15,0.48,0.52,0.69,1.03c0.56-0.85,1.04-1.49,1.45-1.96c0.57-0.64,1.08-1.02,1.6-1.21c0.43-0.16,0.88-0.24,1.34-0.24
			c0.78,0,1.57,0.2,2.35,0.6c0.52,0.27,0.94,0.53,1.27,0.8c0.46-0.31,0.91-0.57,1.34-0.78c0.82-0.41,1.57-0.61,2.29-0.61
			c0.8,0,1.53,0.09,2.18,0.28c0.78,0.22,1.53,0.7,2.24,1.41l0.04,0.04c0,0,0.04,0.04,0.04,0.04c0.49-0.47,1.01-0.89,1.54-1.25
			c0.97-0.66,1.94-0.99,2.88-0.99c0.55,0,1.12,0.15,1.75,0.44c0.49,0.23,0.97,0.52,1.42,0.84c0.47,0.34,0.88,0.71,1.21,1.11
			c0.52,0.61,0.77,1.21,0.77,1.83c0,0.59-0.14,1.3-0.44,2.17c-0.29,0.86-0.8,1.78-1.56,2.8l-0.03,0.04
			c-0.47,0.6-1.03,0.99-1.66,1.17c-0.44,0.12-1.02,0.18-1.87,0.18c-0.21,0-0.42-0.03-0.64-0.09c0.08,0.26,0.16,0.53,0.24,0.8
			c0.15,0.49,0.3,1,0.43,1.52c0.16,0.62,0.23,1.25,0.23,1.88c0,0.92-0.24,1.8-0.72,2.61c-0.43,0.72-0.99,1.36-1.66,1.89
			c-0.64,0.5-1.37,0.91-2.15,1.2C548.04,190.6,547.22,190.76,546.42,190.76z M524.08,184.13c0,0.05-0.01,0.1-0.01,0.15
			c0.16-0.02,0.31-0.06,0.46-0.11C524.38,184.16,524.22,184.15,524.08,184.13z M515.01,172.19c0.03-0.04,0.06-0.09,0.09-0.13
			c-0.07,0.01-0.13,0.01-0.2,0.02C514.9,172.08,514.98,172.16,515.01,172.19z M523.55,172.06c0.04-0.03,0.09-0.07,0.13-0.1
			c-0.02,0-0.04,0-0.05,0C523.6,171.99,523.58,172.03,523.55,172.06z"/>
		<path class="st0" d="M556.6,173.42c-0.24-0.29-0.55-0.57-0.91-0.83c-0.37-0.27-0.75-0.49-1.15-0.68c-0.4-0.19-0.74-0.28-1.03-0.28
			c-0.6,0-1.24,0.23-1.93,0.7c-0.69,0.47-1.34,1.04-1.96,1.73c-0.62,0.69-1.14,1.41-1.56,2.18c-0.42,0.77-0.67,1.46-0.73,2.08
			c0,0,0,0,0,0c-0.55,0.78-1.14,1.6-1.75,2.46c-0.61,0.87-1.21,1.67-1.8,2.41c-0.59,0.74-1.14,1.38-1.66,1.91
			c-0.52,0.53-0.96,0.84-1.31,0.93c-0.18-0.15-0.19-0.5-0.05-1.05c0.14-0.54,0.39-1.19,0.73-1.93c0.34-0.74,0.77-1.55,1.28-2.43
			c0.51-0.88,1.05-1.73,1.61-2.56c0.57-0.83,1.14-1.6,1.71-2.3c0.58-0.7,1.11-1.25,1.6-1.65c0.18-0.15,0.29-0.28,0.33-0.38
			c0.04-0.1-0.02-0.25-0.2-0.45c-0.51-0.51-1.01-0.84-1.51-0.98c-0.5-0.14-1.07-0.22-1.71-0.22c-0.44,0-0.95,0.14-1.53,0.43
			c-0.58,0.29-1.19,0.68-1.85,1.16c-0.65,0.49-1.33,1.05-2.01,1.7c-0.69,0.64-1.38,1.32-2.06,2.03c1-1.44,1.94-2.54,2.83-3.29
			c0.24-0.2,0.37-0.34,0.37-0.43c0-0.11-0.08-0.24-0.23-0.4c-0.24-0.24-0.64-0.5-1.18-0.78c-0.54-0.28-1.07-0.42-1.58-0.42
			c-0.27,0-0.52,0.04-0.77,0.13c-0.24,0.09-0.55,0.34-0.91,0.75c-0.37,0.41-0.82,1.03-1.36,1.86c-0.54,0.83-1.25,1.99-2.11,3.48
			c0,0,0,0,0,0c-0.58,0.8-1.18,1.65-1.81,2.56c-0.63,0.91-1.3,1.74-2.01,2.5c-0.71,0.75-1.45,1.38-2.23,1.88
			c-0.78,0.5-1.59,0.75-2.43,0.75c-0.53,0-0.89-0.16-1.06-0.48c-0.18-0.32-0.27-0.7-0.27-1.15c0-0.44,0.07-0.9,0.2-1.36
			c0.13-0.47,0.25-0.84,0.37-1.13c0.27,0.18,0.54,0.32,0.82,0.43c0.28,0.11,0.58,0.17,0.91,0.17c0.35,0,0.77-0.14,1.25-0.42
			c0.48-0.28,0.96-0.64,1.46-1.08c0.5-0.44,0.99-0.95,1.48-1.51c0.49-0.57,0.92-1.14,1.3-1.73c0.38-0.59,0.68-1.15,0.92-1.7
			c0.23-0.54,0.35-1.01,0.35-1.41c0-0.18-0.13-0.41-0.4-0.7c-0.27-0.29-0.59-0.57-0.98-0.83c-0.39-0.27-0.8-0.5-1.25-0.7
			c-0.44-0.2-0.84-0.3-1.2-0.3c-0.53,0-1.11,0.17-1.75,0.5c-0.63,0.33-1.28,0.78-1.93,1.35c-0.65,0.57-1.29,1.23-1.91,1.98
			c-0.62,0.75-1.2,1.55-1.73,2.4c0,0,0,0,0,0c-0.55,0.78-1.14,1.6-1.74,2.46c-0.61,0.87-1.21,1.67-1.8,2.41
			c-0.59,0.74-1.14,1.38-1.66,1.91c-0.52,0.53-0.96,0.84-1.31,0.93c-0.09-0.13-0.13-0.29-0.13-0.47c0-0.35,0.14-0.87,0.43-1.55
			c0.29-0.68,0.67-1.45,1.13-2.31c0.47-0.86,1.01-1.8,1.63-2.81c0.62-1.01,1.27-2.02,1.95-3.04c0.68-1.02,1.36-2.01,2.06-2.98
			c0.7-0.96,1.37-1.85,2.01-2.65c1.33,0.04,2.58,0.13,3.74,0.27c1.16,0.13,2.1,0.3,2.81,0.5c0.18,0.04,0.34,0.09,0.5,0.13
			c0.16,0.04,0.29-0.02,0.4-0.2c0.09-0.15,0.14-0.35,0.15-0.6c0.01-0.24-0.01-0.5-0.07-0.77c-0.06-0.27-0.14-0.52-0.27-0.75
			c-0.12-0.23-0.28-0.42-0.48-0.55c-0.31-0.18-0.85-0.32-1.63-0.43c-0.78-0.11-1.7-0.19-2.76-0.23c0.02-0.02,0.04-0.04,0.05-0.07
			c0.01-0.02,0.04-0.04,0.08-0.07c0.09-0.09,0.17-0.17,0.23-0.23c0.07-0.07,0.1-0.13,0.1-0.2c0-0.11-0.08-0.24-0.23-0.4
			c-0.24-0.24-0.59-0.5-1.03-0.78c-0.44-0.28-0.92-0.42-1.43-0.42c-0.24,0-0.58,0.19-1.01,0.58c-0.43,0.39-0.94,0.91-1.51,1.58
			c-1.04,0.04-2.06,0.11-3.04,0.18c-0.99,0.08-1.87,0.17-2.66,0.28c-0.79,0.11-1.44,0.24-1.96,0.4c-0.52,0.16-0.83,0.32-0.91,0.5
			c-0.18,0.33-0.26,0.63-0.25,0.88c0.01,0.26,0.05,0.5,0.12,0.75c0.04,0.18,0.1,0.28,0.17,0.3c0.07,0.02,0.19,0,0.37-0.07
			c0.49-0.18,1.29-0.32,2.41-0.43c1.12-0.11,2.38-0.18,3.78-0.2c-0.89,1.2-1.79,2.5-2.69,3.91c-0.91,1.41-1.76,2.81-2.56,4.21
			c0,0,0,0,0,0c-0.55,0.78-1.14,1.6-1.74,2.46c-0.61,0.87-1.21,1.67-1.8,2.41c-0.59,0.74-1.14,1.38-1.66,1.91
			c-0.52,0.53-0.96,0.84-1.31,0.93c-0.18-0.15-0.19-0.5-0.05-1.05c0.14-0.54,0.39-1.19,0.75-1.93c0.35-0.74,0.78-1.55,1.28-2.43
			c0.5-0.88,1.03-1.73,1.6-2.56c0.57-0.83,1.14-1.6,1.71-2.3c0.58-0.7,1.11-1.25,1.6-1.65c0.18-0.15,0.29-0.28,0.35-0.38
			c0.06-0.1-0.02-0.25-0.22-0.45c-0.31-0.29-0.69-0.56-1.13-0.82c-0.44-0.25-0.88-0.38-1.3-0.38c-0.36,0-0.8,0.26-1.35,0.78
			c-0.54,0.52-1.13,1.2-1.75,2.03c-0.62,0.83-1.24,1.77-1.86,2.81c-0.62,1.04-1.18,2.08-1.68,3.11c-0.5,1.03-0.9,2.01-1.21,2.94
			c-0.31,0.93-0.47,1.7-0.47,2.3c0,0.22,0.09,0.48,0.28,0.78c0.19,0.3,0.44,0.59,0.77,0.87c0.32,0.28,0.69,0.52,1.11,0.72
			c0.42,0.2,0.86,0.3,1.33,0.3c0.42,0,0.99-0.33,1.7-0.98c0.58-0.54,1.21-1.2,1.88-1.98c-0.01,0.11-0.02,0.21-0.02,0.3
			c0,0.24,0.1,0.52,0.3,0.83c0.2,0.31,0.45,0.6,0.77,0.86c0.31,0.27,0.68,0.49,1.11,0.68c0.43,0.19,0.88,0.28,1.35,0.28
			c0.42,0,0.98-0.33,1.68-0.98c0.7-0.65,1.46-1.49,2.3-2.5c0.18-0.22,0.37-0.46,0.56-0.69c0,0.06-0.01,0.12-0.01,0.18
			c0,0.38,0.11,0.79,0.33,1.25c0.22,0.45,0.53,0.89,0.91,1.3c0.39,0.41,0.85,0.75,1.4,1.03c0.54,0.28,1.14,0.42,1.78,0.42
			c1.31,0,2.53-0.33,3.66-1c0.88-0.52,1.72-1.15,2.52-1.89c-0.01,0.11-0.02,0.2-0.02,0.29c0,0.33,0.09,0.66,0.27,0.98
			c0.18,0.32,0.4,0.6,0.67,0.83s0.55,0.42,0.85,0.57c0.3,0.14,0.57,0.22,0.82,0.22c0.24,0,0.41-0.12,0.5-0.35
			c0.09-0.23,0.16-0.47,0.2-0.72c0.13-0.44,0.29-0.91,0.47-1.41c0.18-0.5,0.38-1,0.6-1.51c1.18-1.44,2.45-2.88,3.83-4.31
			c1.38-1.43,2.79-2.71,4.26-3.84c-0.53,0.82-1.04,1.68-1.51,2.58c-0.48,0.9-0.9,1.77-1.28,2.63c-0.38,0.85-0.68,1.65-0.9,2.4
			c-0.22,0.74-0.33,1.37-0.33,1.88c0,0.22,0.09,0.49,0.28,0.8c0.19,0.31,0.44,0.6,0.77,0.88c0.32,0.28,0.69,0.51,1.11,0.7
			c0.42,0.19,0.86,0.28,1.33,0.28c0.42,0,0.99-0.33,1.7-0.98c0.33-0.31,0.68-0.65,1.03-1.04c0.02,0.05,0.03,0.09,0.05,0.14
			c0.17,0.43,0.4,0.81,0.7,1.13c0.3,0.32,0.65,0.58,1.06,0.78c0.41,0.2,0.85,0.3,1.31,0.3c0.6,0,1.21-0.12,1.83-0.35
			c0.62-0.23,1.19-0.55,1.7-0.95c0.51-0.4,0.93-0.87,1.25-1.41c0.32-0.54,0.48-1.13,0.48-1.75c0-0.49-0.06-0.98-0.18-1.46
			c-0.12-0.49-0.26-0.96-0.4-1.41c-0.14-0.45-0.28-0.9-0.4-1.33c-0.12-0.43-0.18-0.84-0.18-1.21c0-0.47,0.12-0.96,0.35-1.48
			c0.23-0.52,0.54-1,0.93-1.45c0.39-0.44,0.82-0.84,1.3-1.2c0.48-0.35,0.95-0.6,1.41-0.73c0.04,0.2,0.02,0.44-0.08,0.72
			c-0.1,0.28-0.26,0.57-0.47,0.88c-0.21,0.31-0.47,0.64-0.77,0.98c-0.3,0.34-0.62,0.67-0.95,0.98c-0.11,0.11-0.14,0.22-0.1,0.32
			c0.04,0.1,0.12,0.2,0.23,0.3c0.11,0.1,0.24,0.18,0.38,0.23c0.14,0.06,0.26,0.08,0.35,0.08c0.67,0,1.14-0.04,1.41-0.12
			c0.28-0.08,0.54-0.27,0.78-0.58c0.64-0.86,1.08-1.64,1.31-2.33c0.23-0.69,0.35-1.23,0.35-1.63
			C556.97,173.96,556.85,173.71,556.6,173.42z M524.88,178.33c0.37-0.52,0.76-1.01,1.18-1.48c0.42-0.47,0.88-0.89,1.36-1.26
			c0.49-0.38,0.99-0.64,1.5-0.8c0.02,0.07,0.03,0.17,0.03,0.3c0,0.27-0.15,0.67-0.45,1.21c-0.3,0.54-0.67,1.09-1.11,1.65
			c-0.44,0.55-0.91,1.04-1.4,1.46c-0.49,0.42-0.91,0.63-1.26,0.63c-0.13,0-0.27-0.02-0.42-0.05c-0.14-0.03-0.27-0.11-0.38-0.22
			C524.2,179.34,524.52,178.85,524.88,178.33z M547.9,185.05c-0.14,0.23-0.33,0.43-0.55,0.58c-0.22,0.16-0.45,0.27-0.7,0.33
			c-0.24,0.07-0.48,0.1-0.7,0.1c-0.47,0-0.85-0.06-1.16-0.18c-0.21-0.08-0.38-0.17-0.54-0.27c0.1-0.12,0.2-0.24,0.31-0.37
			c0.82-1.01,1.67-2.13,2.55-3.36c0.16-0.23,0.32-0.45,0.48-0.68c0.04,0.2,0.08,0.41,0.12,0.6c0.1,0.47,0.19,0.9,0.28,1.3
			c0.09,0.4,0.13,0.77,0.13,1.1S548.05,184.82,547.9,185.05z"/>
	</g>
</g>
</svg>
